<?xml version="1.0" standalone="no"?><svg xmlns:xlink="http://www.w3.org/1999/xlink" xmlns="http://www.w3.org/2000/svg" viewBox="0 0 1000 416.66341030195383" preserveAspectRatio="xMaxYMax slice"><g transform="scale(0.8880994671403197)"><rect x="0" y="0" width="1126" height="469.16666666666663" fill="#ffffff"/><path d="M 93.83 93.83 A 93.83 93.83 0 0 1  187.66 0 L 93.83 93.83 A 93.83 93.83 0 0 0 187.66 0" fill="#d9e0fa"/><rect x="187.66666666666666" y="0" width="93.83333333333333" height="93.83333333333333" fill="#ffffff"/><path d="M 187.67 0 A 46.92 46.92 0 0 1  234.58999999999997 46.92 L 187.67 0 A 46.92 46.92 0 0 0 234.58999999999997 46.92" fill="#5673e9"/><path d="M 234.58 46.92 A 46.92 46.92 0 0 1  281.5 0 L 234.58 46.92 A 46.92 46.92 0 0 0 281.5 0" fill="#ff7b9b"/><rect x="375.3333333333333" y="0" width="93.83333333333333" height="93.83333333333333" fill="#ffffff"/><path d="M 375.33 46.92 A 46.92 46.92 0 0 1  422.25 0 L 375.33 46.92 A 46.92 46.92 0 0 0 422.25 0" fill="#fff4f7"/><path d="M 422.25 46.92 A 46.92 46.92 0 0 1  469.17 93.84 L 422.25 46.92 A 46.92 46.92 0 0 0 469.17 93.84" fill="#d9e0fa"/><rect x="844.5" y="0" width="93.83333333333333" height="93.83333333333333" fill="#ffffff"/><path d="M 844.5 46.92 A 46.92 46.92 0 0 1  891.42 93.84 L 844.5 46.92 A 46.92 46.92 0 0 0 891.42 93.84" fill="#93a5f1"/><path d="M 938.33 0 A 93.83 93.83 0 0 1  1032.16 93.83 L 938.33 0 A 93.83 93.83 0 0 0 1032.16 93.83" fill="#d4dbf9"/><path d="M 0 187.66 A 93.83 93.83 0 0 1  93.83 93.83 L 0 187.66 A 93.83 93.83 0 0 0 93.83 93.83" fill="#778eed"/><rect x="93.83333333333333" y="93.83333333333333" width="93.83333333333333" height="93.83333333333333" fill="#ffffff"/><path d="M 93.83 187.67000000000002 A 46.92 46.92 0 0 1  140.75 140.75 L 93.83 187.67000000000002 A 46.92 46.92 0 0 0 140.75 140.75" fill="#ff6287"/><path d="M 140.75 187.67000000000002 A 46.92 46.92 0 0 1  187.67000000000002 140.75 L 140.75 187.67000000000002 A 46.92 46.92 0 0 0 187.67000000000002 140.75" fill="#ffafc2"/><rect x="281.5" y="93.83333333333333" width="93.83333333333333" height="93.83333333333333" fill="#ffffff"/><path d="M 328.42 140.75 A 46.92 46.92 0 0 1  375.34000000000003 187.67000000000002 L 328.42 140.75 A 46.92 46.92 0 0 0 375.34000000000003 187.67000000000002" fill="#506ee8"/><path d="M 469.17 93.83 A 93.83 93.83 0 0 1  563 187.66 L 469.17 93.83 A 93.83 93.83 0 0 0 563 187.66" fill="#ff7a99"/><rect x="1032.1666666666665" y="93.83333333333333" width="93.83333333333333" height="93.83333333333333" fill="#ffffff"/><path d="M 1079.08 93.83 A 46.92 46.92 0 0 1  1126 140.75 L 1079.08 93.83 A 46.92 46.92 0 0 0 1126 140.75" fill="#fffbfc"/><rect x="0" y="187.66666666666666" width="93.83333333333333" height="93.83333333333333" fill="#ffffff"/><path d="M 0 281.5 A 46.92 46.92 0 0 1  46.92 234.58 L 0 281.5 A 46.92 46.92 0 0 0 46.92 234.58" fill="#ff3968"/><rect x="187.66666666666666" y="187.66666666666666" width="93.83333333333333" height="93.83333333333333" fill="#ffffff"/><path d="M 187.67 234.58 A 46.92 46.92 0 0 1  234.58999999999997 281.5 L 187.67 234.58 A 46.92 46.92 0 0 0 234.58999999999997 281.5" fill="#ff7797"/><path d="M 234.58 281.5 A 46.92 46.92 0 0 1  281.5 234.58 L 234.58 281.5 A 46.92 46.92 0 0 0 281.5 234.58" fill="#ffaabe"/><path d="M 469.17 281.5 A 93.83 93.83 0 0 1  563 187.67 L 469.17 281.5 A 93.83 93.83 0 0 0 563 187.67" fill="#ffacc0"/><rect x="1032.1666666666665" y="187.66666666666666" width="93.83333333333333" height="93.83333333333333" fill="#ffffff"/><path d="M 1032.17 234.58 A 46.92 46.92 0 0 1  1079.0900000000001 281.5 L 1032.17 234.58 A 46.92 46.92 0 0 0 1079.0900000000001 281.5" fill="#ffe4ea"/><path d="M 1079.08 281.5 A 46.92 46.92 0 0 1  1126 234.58 L 1079.08 281.5 A 46.92 46.92 0 0 0 1126 234.58" fill="#ff3b6a"/><rect x="187.66666666666666" y="281.5" width="93.83333333333333" height="93.83333333333333" fill="#ffffff"/><path d="M 187.67 281.5 A 46.92 46.92 0 0 1  234.58999999999997 328.42 L 187.67 281.5 A 46.92 46.92 0 0 0 234.58999999999997 328.42" fill="#ffdde5"/><path d="M 234.58 328.42 A 46.92 46.92 0 0 1  281.5 281.5 L 234.58 328.42 A 46.92 46.92 0 0 0 281.5 281.5" fill="#f6f8fe"/><path d="M 469.17 375.33 A 93.83 93.83 0 0 1  563 281.5 L 469.17 375.33 A 93.83 93.83 0 0 0 563 281.5" fill="#ffa1b8"/><rect x="563" y="281.5" width="93.83333333333333" height="93.83333333333333" fill="#ffffff"/><path d="M 609.92 328.42 A 46.92 46.92 0 0 1  656.8399999999999 281.5 L 609.92 328.42 A 46.92 46.92 0 0 0 656.8399999999999 281.5" fill="#ff8ca7"/><path d="M 844.5 281.5 A 93.83 93.83 0 0 1  938.33 375.33 L 844.5 281.5 A 93.83 93.83 0 0 0 938.33 375.33" fill="#ffaec1"/><path d="M 938.33 375.33 A 93.83 93.83 0 0 1  1032.16 281.5 L 938.33 375.33 A 93.83 93.83 0 0 0 1032.16 281.5" fill="#3154e4"/><path d="M 0 469.15999999999997 A 93.83 93.83 0 0 1  93.83 375.33 L 0 469.15999999999997 A 93.83 93.83 0 0 0 93.83 375.33" fill="#2c4fe4"/><path d="M 563 375.33 A 93.83 93.83 0 0 1  656.83 469.15999999999997 L 563 375.33 A 93.83 93.83 0 0 0 656.83 469.15999999999997" fill="#ff91ab"/><path d="M 938.33 469.15999999999997 A 93.83 93.83 0 0 1  1032.16 375.33 L 938.33 469.15999999999997 A 93.83 93.83 0 0 0 1032.16 375.33" fill="#5c78ea"/></g></svg>