<svg xmlns="http://www.w3.org/2000/svg" xmlns:xlink="http://www.w3.org/1999/xlink" viewBox="0 0 1074.14 594.01"><defs><style>.b2154601-3ef7-4e66-8477-78e19d3f2d2d{fill:none;}.a0ec201c-23ab-4ca0-bdf1-6fd2ebca7701{fill:#fff;}.fb659077-3c49-4f04-83e2-a29026fde74b{fill:#e6e1ff;}.aa890a93-aaa0-421a-b317-ed7c4319d30a{fill:#d2c9ff;}.aef6707c-bbed-4204-a643-f2029a2eb1ac{fill:#82e394;}.fd45f0b6-8457-4630-823f-f1e80e631667{fill:#673ef9;}.a6b8b71c-d1fb-4b5c-be6f-33264822a006{fill:#cec7ff;}.a860c3b8-03a2-47c9-a7ed-3d3a86ce9b86{fill:#28215a;}.bc310e1e-3bfc-4c5c-89e4-5c76ca1fdfbb{fill:#8585f9;}.fae0d16e-2daa-4497-abfb-42f8eb28e106{fill:#a8a2fc;}.b44a5cc6-8acf-4d21-8b48-890adf781bf9{clip-path:url(#f969900d-86da-4e8e-a428-b00f8c470c92);}.ed2b30e2-b6f9-4feb-81fc-e55fd4a6d399{clip-path:url(#b57742da-e3af-4120-848e-d8b1ad672d9a);}.e112896a-5a4f-421c-80e3-1a5bf43aa677{clip-path:url(#ec84955c-d565-4786-ba10-352df42d6419);}.fb632970-1a96-447f-ae17-3f46a10c038f{clip-path:url(#a2dcf873-d09a-4eba-a76d-59f3b60bf0ab);}.bcb7e07a-6cf2-4af0-97ce-5035d6154c60{clip-path:url(#e57d14fe-bf40-4e16-aeb7-b677c4c72a98);}</style><clipPath id="f969900d-86da-4e8e-a428-b00f8c470c92" transform="translate(0 38.85)"><rect class="b2154601-3ef7-4e66-8477-78e19d3f2d2d" x="889.12" y="417.26" width="108.55" height="82.74"/></clipPath><clipPath id="b57742da-e3af-4120-848e-d8b1ad672d9a" transform="translate(0 38.85)"><rect class="b2154601-3ef7-4e66-8477-78e19d3f2d2d" x="557.13" width="482.88" height="500"/></clipPath><clipPath id="ec84955c-d565-4786-ba10-352df42d6419" transform="translate(0 38.85)"><path class="b2154601-3ef7-4e66-8477-78e19d3f2d2d" d="M1033.28,325.89c-1,0-2,0-3-.13a33.67,33.67,0,0,1-22.83-11.92L977.8,278.37a33.64,33.64,0,1,1,51.6-43.19l29.68,35.47a33.64,33.64,0,0,1-25.8,55.24Z"/></clipPath><clipPath id="a2dcf873-d09a-4eba-a76d-59f3b60bf0ab" transform="translate(0 38.85)"><path class="b2154601-3ef7-4e66-8477-78e19d3f2d2d" d="M632.46,67.7c-1,0-2,0-3-.13a33.67,33.67,0,0,1-22.83-11.92L577,20.18a33.63,33.63,0,0,1-7.72-24.57,33.67,33.67,0,0,1,11.92-22.83,33.68,33.68,0,0,1,24.57-7.71A33.67,33.67,0,0,1,628.58-23l29.68,35.47a33.65,33.65,0,0,1-25.8,55.24Z"/></clipPath><clipPath id="e57d14fe-bf40-4e16-aeb7-b677c4c72a98" transform="translate(0 38.85)"><path class="b2154601-3ef7-4e66-8477-78e19d3f2d2d" d="M750.9,551.38c-1,0-2,0-3-.13a33.67,33.67,0,0,1-22.83-11.92l-29.68-35.47A33.64,33.64,0,1,1,747,460.67l29.68,35.47a33.65,33.65,0,0,1-25.8,55.24Z"/></clipPath></defs><g id="f37ebd36-a549-4acb-b4a7-bb59bf0c47a8" data-name="BACKGROUND"><rect class="a0ec201c-23ab-4ca0-bdf1-6fd2ebca7701" y="38.84" width="1040" height="500"/></g><g id="a9b1749e-6231-4068-889d-81e09e26b869" data-name="OBJECTS"><path class="fb659077-3c49-4f04-83e2-a29026fde74b" d="M1040,104.56V500H963.34l-73.87-88.26-6.86-8.19L877.16,397l-2.82-3.37-3.31-4-1.7-2-3.61-4.31c-.7-.83-1.39-1.67-2.06-2.51a171.91,171.91,0,0,1-33.08-66.32q-1.58-6.27-2.66-12.61-.72-4.16-1.23-8.33-.6-4.89-.92-9.79a173,173,0,0,1,55.94-139.09c1.71-1.56,3.45-3.1,5.24-4.6l.38-.32c.81-.68,1.63-1.35,2.45-2,1.66-1.34,3.34-2.64,5-3.92l1.87-1.37q3.87-2.82,7.84-5.38t8.3-5.06a172.47,172.47,0,0,1,79.09-22.46A173.88,173.88,0,0,1,1040,104.56Z" transform="translate(0 38.85)"/><path class="fb659077-3c49-4f04-83e2-a29026fde74b" d="M768.74,153a172.25,172.25,0,0,1-110.89,40.32,172.54,172.54,0,0,1-132.68-61.94L415.2,0H829.47A172.72,172.72,0,0,1,768.74,153Z" transform="translate(0 38.85)"/><path class="aa890a93-aaa0-421a-b317-ed7c4319d30a" d="M613.12,187.47a48.48,48.48,0,1,0-48,54.94c.82,0,1.64,0,2.45-.06a48.54,48.54,0,0,0,46-48.42A49.13,49.13,0,0,0,613.12,187.47Zm-48,25.14a18.68,18.68,0,1,1,18.67-18.68A18.7,18.7,0,0,1,565.07,212.61Z" transform="translate(0 38.85)"/><path class="aef6707c-bbed-4204-a643-f2029a2eb1ac" d="M1025.76,173a20.94,20.94,0,0,1-8.16,4.23A21.14,21.14,0,0,1,996,170.35l-29.72-35.51-22.29-26.63L853.37,0h55.19l83.35,99.59,36.49,43.6A21.15,21.15,0,0,1,1025.76,173Z" transform="translate(0 38.85)"/><path class="fd45f0b6-8457-4630-823f-f1e80e631667" d="M52.79,312.11A21.17,21.17,0,0,1,23,309.46L0,282V216.06L55.44,282.3A21.17,21.17,0,0,1,52.79,312.11Z" transform="translate(0 38.85)"/><path class="a6b8b71c-d1fb-4b5c-be6f-33264822a006" d="M1040,204v65.94L955.43,168.88a21.16,21.16,0,1,1,32.45-27.17l29.72,35.51Z" transform="translate(0 38.85)"/><path class="a6b8b71c-d1fb-4b5c-be6f-33264822a006" d="M83.6,406.59a21.17,21.17,0,0,1-29.81-2.65L0,339.67V273.73L36,316.8l50.21,60A21.17,21.17,0,0,1,83.6,406.59Z" transform="translate(0 38.85)"/><path class="fd45f0b6-8457-4630-823f-f1e80e631667" d="M743.17,300.2a21.13,21.13,0,0,1-16.24-7.58l-168-200.73a21.16,21.16,0,1,1,32.45-27.16l168,200.73a21.16,21.16,0,0,1-16.22,34.74Z" transform="translate(0 38.85)"/><path class="a6b8b71c-d1fb-4b5c-be6f-33264822a006" d="M706.59,500H651.41l-72-86-38.93-46.51a21.16,21.16,0,1,1,32.45-27.16Z" transform="translate(0 38.85)"/><path class="a860c3b8-03a2-47c9-a7ed-3d3a86ce9b86" d="M669.28,500H614.09l-43.91-52.46a21.16,21.16,0,1,1,32.46-27.16Z" transform="translate(0 38.85)"/><path class="a6b8b71c-d1fb-4b5c-be6f-33264822a006" d="M912.82,122.05A138.53,138.53,0,0,0,828.07,50.3h0A138.29,138.29,0,0,0,789,44.69,138,138,0,0,0,656.91,143h0a137.52,137.52,0,0,0-5.49,32q-.2,3.69-.2,7.41V317.57q0,3.72.2,7.41a137.74,137.74,0,0,0,234.94,90q1.59-1.59,3.11-3.23a136.72,136.72,0,0,0,37.23-94.17V182.44A137,137,0,0,0,912.82,122.05ZM789,436.3A118.72,118.72,0,0,1,671.51,334.94a116.56,116.56,0,0,1-1.23-14.68c0-.89,0-1.79,0-2.69V182.44c0-.9,0-1.8,0-2.69A116.88,116.88,0,0,1,671.51,165c.18-1.28.39-2.56.62-3.83a118.75,118.75,0,0,1,224.55-28.72,117.15,117.15,0,0,1,9.73,32.58,118.48,118.48,0,0,1,1.27,17.37V317.57A118.75,118.75,0,0,1,789,436.3Z" transform="translate(0 38.85)"/><path class="bc310e1e-3bfc-4c5c-89e4-5c76ca1fdfbb" d="M904.52,127.11a130.53,130.53,0,0,0-78.85-65.34h0A129.66,129.66,0,0,0,659.53,176.42c-.25,3.28-.37,6.59-.37,9.91V313.68q0,5,.37,9.91a129.8,129.8,0,0,0,221.21,81.87c.63-.63,1.25-1.27,1.87-1.91a128.87,128.87,0,0,0,36.15-89.87V186.33A129,129,0,0,0,904.52,127.11Zm-3.68,186.57a111.88,111.88,0,0,1-223.7,3.47c0-1.15-.06-2.31-.06-3.47V186.33c0-1.16,0-2.32.06-3.47a109,109,0,0,1,1.32-14.09,111.91,111.91,0,0,1,211.32-31c.38.77.74,1.54,1.1,2.33a111.41,111.41,0,0,1,10,46.22Z" transform="translate(0 38.85)"/><path class="a6b8b71c-d1fb-4b5c-be6f-33264822a006" d="M892.61,191V309a103.65,103.65,0,1,1-207.3,0V191a103.65,103.65,0,0,1,207.3,0Z" transform="translate(0 38.85)"/><path class="fb659077-3c49-4f04-83e2-a29026fde74b" d="M685.31,337.06H897.06S882.39,419.46,787,417.21,685.31,337.06,685.31,337.06Z" transform="translate(0 38.85)"/><path class="fae0d16e-2daa-4497-abfb-42f8eb28e106" d="M892.61,251.81v64.42L742.73,243.5a52.71,52.71,0,0,1-26.45-29.3l-14.11-38.6a24.19,24.19,0,0,1,10.69,2.49l.06,0a24,24,0,0,1,8.12,6.5l11.29,14a80.09,80.09,0,0,0,27,21.64h0a79.83,79.83,0,0,0,18,6.3Z" transform="translate(0 38.85)"/><path class="a0ec201c-23ab-4ca0-bdf1-6fd2ebca7701" d="M738.55,267.09h0a4.87,4.87,0,0,0,4.71,4.4L804,273.27l-36.27-17.63-26.8,7.95A3.32,3.32,0,0,0,738.55,267.09Z" transform="translate(0 38.85)"/><path class="a0ec201c-23ab-4ca0-bdf1-6fd2ebca7701" d="M795.29,307.33h0a7.1,7.1,0,0,0,6.86,6.41l90.46,2.48L838.37,290l-39.65,12.24A4.83,4.83,0,0,0,795.29,307.33Z" transform="translate(0 38.85)"/><path class="fd45f0b6-8457-4630-823f-f1e80e631667" d="M738.54,225.62l-13.63,3.76a52.73,52.73,0,0,1-8.63-15.18l-14.11-38.6a24.19,24.19,0,0,1,10.69,2.49l.06,0Z" transform="translate(0 38.85)"/><path class="a0ec201c-23ab-4ca0-bdf1-6fd2ebca7701" d="M892.61,251.81v33.58L738.54,225.62l20.84-5.33h0a79.83,79.83,0,0,0,18,6.3Z" transform="translate(0 38.85)"/><path class="fd45f0b6-8457-4630-823f-f1e80e631667" d="M802,301.21l63,1.71L838.37,290Z" transform="translate(0 38.85)"/><path class="fd45f0b6-8457-4630-823f-f1e80e631667" d="M744.42,262.55,787,265.06l-19.37-9.42Z" transform="translate(0 38.85)"/><path class="fae0d16e-2daa-4497-abfb-42f8eb28e106" d="M906.41,165.07a117.82,117.82,0,0,0-8.44-25c-.3-.64-.61-1.28-.92-1.92l-.48-1c-.56-1.13-1.14-2.26-1.76-3.37-.43-.82-.88-1.63-1.35-2.44-.16-.3-.33-.59-.51-.88-.36-.63-.73-1.25-1.11-1.87s-.91-1.48-1.38-2.21c-.28-.45-.57-.89-.87-1.33-.08-.14-.18-.29-.28-.43L888.13,123c-.39-.58-.8-1.15-1.21-1.73l-1.24-1.7q-2.74-3.73-5.83-7.26l-.7-.8q-.81-.93-1.65-1.83c-.54-.59-1.09-1.18-1.65-1.76s-1.23-1.27-1.86-1.9q-4.15-4.16-8.62-7.84c-.25-.21-.5-.42-.76-.62-1-.82-2-1.63-3.07-2.41L860.08,94c-1.3-1-2.61-1.88-3.94-2.78l-1.2-.8c-.66-.44-1.33-.87-2-1.29s-1.5-.94-2.26-1.39-1.68-1-2.53-1.48c-.61-.35-1.23-.69-1.85-1s-.95-.52-1.43-.77l-.33-.17c-.86-.46-1.73-.89-2.6-1.32l-.82-.4-1.55-.73q-2.05-1-4.14-1.83c-.36-.16-.72-.31-1.08-.44l-.09,0c-.5-.21-1-.41-1.52-.6-.74-.3-1.49-.58-2.24-.85-.5-.19-1-.37-1.51-.54a.11.11,0,0,0-.07,0c-.5-.18-1-.36-1.51-.52a.6.6,0,0,0-.19-.06l-1.36-.44s0,0,0,0,0,0,0,0q-.9-.3-1.8-.57c-.73-.22-1.45-.44-2.18-.64h-.06q-1-.28-2-.54c-.66-.18-1.33-.35-2-.51l-.09,0c-.59-.15-1.18-.29-1.78-.42a.32.32,0,0,0-.14,0l-1.21-.26c-2.32-.52-4.67-.95-7-1.31l-1.37-.2a1.25,1.25,0,0,0-.19,0c-.7-.1-1.41-.2-2.12-.28q-1.33-.17-2.7-.3l-1-.09c-.75-.07-1.5-.14-2.25-.19-1-.07-2-.14-3-.18s-1.91-.09-2.86-.11H792c-1,0-2,0-3,0a119.47,119.47,0,0,0-85,35.22c-.63.63-1.25,1.26-1.86,1.9s-1.22,1.29-1.82,1.94-.93,1-1.38,1.54c-.25.28-.51.57-.75.86-.47.52-.92,1-1.36,1.58s-1.13,1.35-1.67,2c-1.16,1.43-2.27,2.89-3.35,4.36-.41.56-.82,1.13-1.22,1.7l-.16.23q-.74,1-1.44,2.1c-.51.76-1,1.53-1.51,2.3s-.9,1.43-1.33,2.15q-1.27,2.09-2.44,4.21-.32.56-.6,1.11c-.57,1-1.11,2.06-1.62,3.1-.18.34-.35.69-.52,1-.32.66-.64,1.32-.95,2a119,119,0,0,0-7.61,21.35c-.29,1.19-.57,2.38-.83,3.58a119.86,119.86,0,0,0-2.24,14.32q-.56,5.77-.56,11.66V309q0,5.88.56,11.66A120.25,120.25,0,0,0,874,394l.35-.36a119.31,119.31,0,0,0,32.07-58.72,120.92,120.92,0,0,0,2.8-25.95V191A120.92,120.92,0,0,0,906.41,165.07ZM685.33,311.21c0-.74,0-1.48,0-2.22V191c0-.74,0-1.48,0-2.22l0-.94v-.08c0-.54,0-1.09.06-1.63,0-.12,0-.23,0-.35,0-.66.07-1.32.12-2,0-.23,0-.47.05-.71s0-.48.06-.71c.05-.67.11-1.33.18-2s.11-1.11.19-1.66a.49.49,0,0,1,0-.12c0-.24.05-.47.08-.71.11-.85.22-1.7.35-2.54.06-.39.12-.78.19-1.16,0,0,0-.09,0-.14.07-.47.15-1,.24-1.42.28-1.61.61-3.2,1-4.79,0-.17.07-.34.12-.5.14-.62.29-1.23.44-1.83.07-.26.13-.51.2-.76q.24-.94.51-1.89c.22-.79.45-1.57.69-2.35.12-.41.25-.81.39-1.21s.33-1.05.51-1.57q.39-1.16.81-2.31c0-.12.09-.24.14-.36s0-.15.08-.22c.2-.55.41-1.1.62-1.64,0-.06.05-.11.07-.17l.09-.23s0,0,0,0a1.22,1.22,0,0,1,.07-.17l.06-.14c0-.09.07-.17.1-.26.21-.53.42-1.06.65-1.58s.49-1.14.75-1.7a1.22,1.22,0,0,1,.07-.17s0,0,0-.05l.08-.18,0-.07c.28-.63.57-1.25.86-1.87l.09-.19c.18-.39.37-.77.56-1.15,0-.09.09-.17.13-.26.14-.28.28-.57.43-.85.26-.53.54-1.06.82-1.58l.22-.42q.54-1.05,1.14-2.07c.28-.49.56-1,.85-1.47.62-1.06,1.26-2.11,1.91-3.14.25-.39.5-.79.76-1.17.62-1,1.25-1.88,1.89-2.8.3-.43.61-.85.91-1.27l.18-.25.08-.11.09-.13.24-.32,0,0h0l.46-.6c.52-.69,1-1.37,1.58-2.05l1-1.26h0c.27-.34.54-.66.82-1s.79-.94,1.19-1.4,1-1.18,1.57-1.77.88-1,1.33-1.43.89-.94,1.35-1.4.91-.93,1.38-1.38.93-.91,1.4-1.36.9-.85,1.36-1.26l.54-.49.13-.12c.46-.42.92-.84,1.4-1.24s1.1-1,1.67-1.42l.09-.07c.2-.17.41-.35.63-.52.48-.39,1-.78,1.45-1.16s1.12-.88,1.69-1.31l.42-.31c.55-.42,1.12-.83,1.69-1.23l.56-.4,1.6-1.11.13-.09c.66-.44,1.34-.89,2-1.32h0c.7-.45,1.41-.89,2.12-1.32s1.43-.86,2.16-1.28l0,0c.68-.39,1.37-.77,2.06-1.15l.15-.08,2-1c.18-.1.37-.19.56-.28.45-.24.92-.47,1.39-.69l.75-.37.08,0c.64-.31,1.29-.61,1.94-.9l.19-.09,1.87-.82.67-.28.05,0,.06,0c.59-.25,1.21-.5,1.81-.73q1.18-.47,2.37-.9c.8-.29,1.6-.58,2.4-.84s1.42-.48,2.13-.7l.24-.07.14-.05c.73-.23,1.47-.45,2.21-.66l.22-.06,2-.55.63-.16,1.86-.46.88-.2c.67-.15,1.35-.3,2-.43.84-.18,1.69-.34,2.54-.49s1.55-.27,2.33-.39l.66-.1c.6-.09,1.21-.18,1.82-.25l.76-.1.26,0q1-.12,1.92-.21c.78-.08,1.55-.15,2.33-.21l.94-.07,1.91-.12,1,0,1.17,0c.48,0,1,0,1.44,0l1.83,0c.76,0,1.51,0,2.26,0q.6,0,1.2,0l1.3,0,1.3.07h.23c.47,0,1,.06,1.41.09l.5,0c1.56.12,3.11.28,4.65.47.38,0,.75.09,1.12.15l2.08.29c.77.12,1.54.25,2.3.39l1.7.32.4.08,1.17.24.68.15,1.43.32,1.43.35,1.56.4h0c1.12.3,2.23.61,3.33,1l1.22.37.18.06.62.2c.83.27,1.66.55,2.49.85.46.16.92.32,1.38.5s1,.36,1.45.55l1.1.43.38.15.19.08.17.07.65.26,1.29.55.65.29h0c.3.13.62.26.92.41l1.57.73,1.11.54,1.71.85c.74.38,1.48.77,2.21,1.17.53.29,1.07.58,1.6.89l1,.55c1.1.64,2.19,1.3,3.26,2l1.24.79.75.49.25.17,1,.64,1.11.77.94.67c.39.28.78.56,1.17.86.23.16.45.33.67.5l1.39,1.06c.75.58,1.48,1.17,2.21,1.77l.07.06c.63.52,1.24,1,1.85,1.57s1.08.94,1.61,1.43,1.31,1.19,2,1.8,1.27,1.23,1.9,1.85c.41.42.82.83,1.23,1.26.27.28.55.56.82.85l.15.16.1.11.39.42.16.18c.27.28.52.56.78.85.88,1,1.74,2,2.59,3l.14.17v0c.22.25.43.5.63.76.4.48.79,1,1.17,1.46l.42.54.42.54.07.09.24.31.09.12,0,0c.29.39.59.78.87,1.17q1.05,1.43,2,2.88c.26.37.51.75.76,1.13l.06.08.12.18.12.18c.15.22.29.46.44.69l.44.69c.64,1,1.25,2,1.85,3,.3.51.59,1,.88,1.53s.68,1.2,1,1.81a.75.75,0,0,1,.07.12c.17.32.35.65.51,1,.28.51.55,1,.8,1.56a.83.83,0,0,1,.07.13l.09.18.09.19c.13.25.25.5.37.75s.25.51.37.77l.12.25c.24.5.47,1,.7,1.51s.54,1.21.8,1.82.62,1.46.91,2.2c.21.52.42,1.05.62,1.58.1.25.2.51.29.76v0c.15.39.29.78.43,1.17.53,1.46,1,2.94,1.49,4.43.16.51.31,1,.46,1.53l.06.23c.13.41.24.82.35,1.23,0,.12.07.25.11.38s.09.32.13.49c.11.39.21.79.31,1.18.2.79.39,1.58.58,2.38s.29,1.32.43,2c0,.12.05.23.07.35.17.79.32,1.59.46,2.39,0,0,0,0,0,.06l0,.17,0,.17s0,0,0,.05c.13.66.23,1.35.34,2,0,.24.07.48.11.73.06.44.13.88.18,1.32s.1.73.14,1.09c.2,1.57.36,3.14.48,4.73,0,.14,0,.29,0,.44,0,.65.09,1.31.12,2,0,.27,0,.54,0,.8,0,.62.06,1.24.07,1.86,0,.29,0,.57,0,.86a1.09,1.09,0,0,1,0,.18c0,.69,0,1.38,0,2.07V309c0,.8,0,1.59,0,2.38,0,.24,0,.48,0,.72v.19l-.06,1.47c0,.62-.06,1.24-.1,1.86l0,.5s0,.07,0,.11a.34.34,0,0,1,0,.1c0,.58-.08,1.15-.14,1.72,0,0,0,.1,0,.15,0,.41-.07.81-.11,1.21,0,.21,0,.41-.07.61l0,.33c0,.54-.11,1.09-.18,1.62l0,.23c-.07.57-.15,1.14-.24,1.7,0,.12,0,.24,0,.36l-.12.81s0,.06,0,.09c-.07.43-.14.86-.22,1.29a5.07,5.07,0,0,1-.09.54c-.06.36-.12.72-.2,1.08,0,0,0,0,0,.06-.1.59-.21,1.18-.34,1.76s-.26,1.27-.41,1.9c0,.12-.05.24-.08.36s-.11.48-.16.71c0,0,0,.06,0,.09-.11.47-.23.94-.34,1.4-.07.29-.15.58-.22.86-.14.55-.29,1.09-.45,1.64l-.06.23c-.09.33-.19.66-.29,1-.17.6-.35,1.2-.53,1.8-.25.8-.51,1.59-.78,2.38-.22.64-.44,1.28-.67,1.92a1.34,1.34,0,0,0-.07.18c-.06.17-.12.35-.19.52-.25.69-.51,1.38-.78,2.06l-.06.14c-.27.69-.55,1.38-.84,2.06-.07.19-.15.37-.23.55q-.42,1-.87,2c-.3.66-.6,1.32-.91,2-.08.17-.17.35-.26.52l-.12.25s0,0,0,.05c-.28.58-.57,1.17-.87,1.74q-.57,1.11-1.17,2.22c-.39.73-.8,1.46-1.22,2.19l0,.08c-.4.69-.81,1.38-1.24,2.07-.84,1.4-1.73,2.78-2.64,4.14-.36.53-.72,1.05-1.09,1.57-.23.34-.47.67-.71,1q-.55.78-1.14,1.56c-.45.6-.91,1.2-1.38,1.79l-.38.49c-.38.49-.77,1-1.18,1.46-.15.19-.3.38-.46.56h0c-.4.48-.81,1-1.22,1.44l-.11.13c-.48.56-1,1.11-1.46,1.65l-.14.15c-.38.42-.76.83-1.15,1.24l0,.06-.2.21-.57.59-.05.06q-1.63,1.69-3.34,3.32l-1.06,1c-.51.47-1,.94-1.54,1.39s-.89.79-1.34,1.17c-.17.15-.34.3-.51.43-.31.28-.63.54-1,.81l-.35.28c-.32.27-.64.52-1,.77s-.77.62-1.16.92l-.35.27c-.6.47-1.2.92-1.81,1.36-.08.07-.16.12-.24.18l-.28.2c-.38.27-.75.55-1.13.81l-1.17.81-1.2.81-.51.34-.16.1c-.41.28-.82.54-1.24.8s-.78.5-1.17.73c-.62.39-1.25.77-1.88,1.13s-1.16.68-1.75,1a.65.65,0,0,1-.16.09c-.64.37-1.29.72-1.95,1.07-.15.08-.31.17-.47.24-.61.33-1.22.64-1.84.94l-.39.2-.18.09-.18.09-1.2.57-1.23.57c-.26.13-.53.25-.79.36-.5.23-1,.44-1.5.65l-.86.37-1.27.52-1.2.47c-.5.2-1,.39-1.51.57-.25.1-.49.19-.74.27-.6.22-1.2.43-1.81.63l-.2.07c-.54.18-1.09.37-1.64.53l-.4.13-.08,0-.06,0-.28.09-1.46.44-.3.08-.86.25-1.12.3-.52.15c-.8.21-1.61.41-2.42.6-.52.13-1,.25-1.57.35s-1,.23-1.52.33c-.78.16-1.57.32-2.36.46s-1.57.27-2.35.39l-.86.13-.23,0H804l-1.47.2c-.5.07-1,.13-1.51.18h-.11l-.14,0c-.39.06-.79.09-1.17.13-.74.08-1.46.14-2.19.2h-.23c-.9.07-1.8.13-2.71.18h-.14c-1.76.08-3.54.13-5.33.13l-2.23,0-1.2,0-1.36,0-1.46-.08-.81,0h-.14c-.4,0-.8,0-1.2-.09h-.06c-.58,0-1.16-.1-1.73-.16s-1.09-.11-1.63-.18c-.95-.09-1.89-.21-2.83-.35l-.8-.11-1.19-.19-1.3-.22-.77-.14c-.73-.13-1.46-.27-2.18-.42s-1.32-.27-2-.42l-.09,0H766l-.15,0c-.59-.13-1.17-.27-1.75-.42l-.43-.1h0l-.12,0-.09,0-2.27-.61c-.48-.13-1-.27-1.45-.42l-.11,0-.68-.2-.17-.06c-.34-.09-.69-.2-1-.32l-.2-.06-1.22-.4-.26-.09a3.24,3.24,0,0,1-.41-.13c-.49-.16-1-.33-1.46-.51l-.24-.09c-.37-.12-.73-.26-1.1-.4-.61-.22-1.22-.45-1.82-.69-.75-.29-1.49-.6-2.23-.91l-.42-.19-.23-.1-.17-.07c-.31-.12-.62-.26-.92-.4l-.06,0-.2-.09c-.64-.27-1.27-.57-1.9-.87-.41-.18-.82-.38-1.22-.58-1.31-.63-2.6-1.3-3.87-2l-1.05-.58c-.53-.29-1.07-.59-1.6-.9l-.05,0c-.54-.3-1.07-.62-1.59-.94l-.45-.28c-.45-.26-.88-.54-1.32-.82l-1.08-.69q-2.61-1.68-5.11-3.54l-1.33-1c-.49-.37-1-.74-1.46-1.14s-1.06-.84-1.59-1.27L723,389c-.63-.52-1.26-1-1.88-1.59s-1.44-1.27-2.15-1.92c-.18-.16-.36-.32-.53-.49l-.07-.06-.25-.24c-.44-.4-.86-.81-1.29-1.23l-.66-.64,0-.05c-.41-.4-.82-.81-1.21-1.22s-.56-.57-.83-.85l-.5-.52c-.46-.48-.91-1-1.35-1.46l-.06-.06c-.53-.59-1.07-1.19-1.59-1.8s-1-1.1-1.4-1.66l-.45-.53-.06-.08c-.41-.5-.81-1-1.21-1.51l-.23-.29c-.38-.49-.76-1-1.13-1.48l-1.46-2c-.48-.67-.95-1.34-1.41-2-.34-.49-.67-1-1-1.48s-.54-.81-.79-1.22l-.15-.23c-.34-.53-.68-1.07-1-1.61s-.72-1.2-1.07-1.8c-.26-.45-.52-.89-.76-1.35a1.74,1.74,0,0,1-.11-.18l0,0-.3-.53,0-.1c-.4-.73-.79-1.46-1.17-2.2-.24-.46-.48-.92-.7-1.39-.12-.22-.23-.45-.33-.67s-.32-.63-.46-1c-.29-.58-.56-1.17-.83-1.77l-.09-.2c-.28-.61-.55-1.22-.81-1.85l0-.1c-.79-1.83-1.52-3.7-2.2-5.59-.17-.48-.35-1-.51-1.46-.07-.2-.14-.41-.2-.61l-.09-.25c-.13-.37-.25-.75-.37-1.13l-.09-.31c-.09-.23-.16-.48-.23-.72v0c-.14-.46-.28-.92-.41-1.38s-.21-.71-.31-1.07c-.22-.79-.43-1.58-.64-2.37s-.35-1.42-.52-2.13c0-.13-.06-.25-.08-.38s-.07-.28-.1-.42c-.14-.63-.28-1.26-.4-1.89-.18-.84-.34-1.69-.49-2.54s-.26-1.48-.37-2.22l-.12-.79c-.09-.59-.18-1.18-.25-1.78,0-.26-.07-.52-.1-.78-.09-.73-.17-1.45-.24-2.18s-.13-1.3-.18-1.95c0-.05,0-.1,0-.15s0-.31,0-.46c0-.35-.06-.69-.07-1a1.94,1.94,0,0,1,0-.24l0-.49c0-.45,0-.9-.08-1.34l-.06-1.69v-.08Z" transform="translate(0 38.85)"/><path class="a860c3b8-03a2-47c9-a7ed-3d3a86ce9b86" d="M874,106A120.39,120.39,0,0,0,680,140.1H898A120.2,120.2,0,0,0,874,106Z" transform="translate(0 38.85)"/><path class="bc310e1e-3bfc-4c5c-89e4-5c76ca1fdfbb" d="M801.35,123.85H776.57a5.79,5.79,0,0,1-5.77-5.77h0a5.78,5.78,0,0,1,5.77-5.76h24.78a5.78,5.78,0,0,1,5.77,5.76h0A5.79,5.79,0,0,1,801.35,123.85Z" transform="translate(0 38.85)"/><g class="b44a5cc6-8acf-4d21-8b48-890adf781bf9"><path class="fd45f0b6-8457-4630-823f-f1e80e631667" d="M945.54,526.2A48.48,48.48,0,1,1,994,477.72,48.54,48.54,0,0,1,945.54,526.2Zm0-67.15a18.67,18.67,0,1,0,18.67,18.67A18.68,18.68,0,0,0,945.54,459.05Z" transform="translate(0 38.85)"/></g><g class="ed2b30e2-b6f9-4feb-81fc-e55fd4a6d399"><g class="e112896a-5a4f-421c-80e3-1a5bf43aa677"><path class="a860c3b8-03a2-47c9-a7ed-3d3a86ce9b86" d="M965.52,328.29a1.39,1.39,0,1,1-1.39-1.39A1.39,1.39,0,0,1,965.52,328.29Z" transform="translate(0 38.85)"/><path class="a860c3b8-03a2-47c9-a7ed-3d3a86ce9b86" d="M982.23,328.29a1.39,1.39,0,1,1-1.39-1.39A1.39,1.39,0,0,1,982.23,328.29Z" transform="translate(0 38.85)"/><path class="a860c3b8-03a2-47c9-a7ed-3d3a86ce9b86" d="M999,328.29a1.39,1.39,0,1,1-1.39-1.39A1.39,1.39,0,0,1,999,328.29Z" transform="translate(0 38.85)"/><path class="a860c3b8-03a2-47c9-a7ed-3d3a86ce9b86" d="M1015.66,328.29a1.39,1.39,0,1,1-1.39-1.39A1.39,1.39,0,0,1,1015.66,328.29Z" transform="translate(0 38.85)"/><path class="a860c3b8-03a2-47c9-a7ed-3d3a86ce9b86" d="M1032.38,328.29a1.39,1.39,0,1,1-1.39-1.39A1.39,1.39,0,0,1,1032.38,328.29Z" transform="translate(0 38.85)"/><path class="a860c3b8-03a2-47c9-a7ed-3d3a86ce9b86" d="M1049.09,328.29a1.39,1.39,0,1,1-1.39-1.39A1.39,1.39,0,0,1,1049.09,328.29Z" transform="translate(0 38.85)"/><path class="a860c3b8-03a2-47c9-a7ed-3d3a86ce9b86" d="M1065.8,328.29a1.39,1.39,0,1,1-1.39-1.39A1.39,1.39,0,0,1,1065.8,328.29Z" transform="translate(0 38.85)"/><circle class="a860c3b8-03a2-47c9-a7ed-3d3a86ce9b86" cx="972.46" cy="358.44" r="1.39"/><path class="a860c3b8-03a2-47c9-a7ed-3d3a86ce9b86" d="M990.57,319.59a1.39,1.39,0,1,1-1.39-1.39A1.39,1.39,0,0,1,990.57,319.59Z" transform="translate(0 38.85)"/><circle class="a860c3b8-03a2-47c9-a7ed-3d3a86ce9b86" cx="1005.89" cy="358.44" r="1.39"/><path class="a860c3b8-03a2-47c9-a7ed-3d3a86ce9b86" d="M1024,319.59a1.39,1.39,0,1,1-1.39-1.39A1.39,1.39,0,0,1,1024,319.59Z" transform="translate(0 38.85)"/><path class="a860c3b8-03a2-47c9-a7ed-3d3a86ce9b86" d="M1040.71,319.59a1.39,1.39,0,1,1-1.39-1.39A1.39,1.39,0,0,1,1040.71,319.59Z" transform="translate(0 38.85)"/><circle class="a860c3b8-03a2-47c9-a7ed-3d3a86ce9b86" cx="1056.04" cy="358.44" r="1.39"/><path class="a860c3b8-03a2-47c9-a7ed-3d3a86ce9b86" d="M1074.14,319.59a1.39,1.39,0,1,1-1.39-1.39A1.39,1.39,0,0,1,1074.14,319.59Z" transform="translate(0 38.85)"/><path class="a860c3b8-03a2-47c9-a7ed-3d3a86ce9b86" d="M965.52,311.81a1.39,1.39,0,1,1-1.39-1.39A1.39,1.39,0,0,1,965.52,311.81Z" transform="translate(0 38.85)"/><path class="a860c3b8-03a2-47c9-a7ed-3d3a86ce9b86" d="M982.23,311.81a1.39,1.39,0,1,1-1.39-1.39A1.39,1.39,0,0,1,982.23,311.81Z" transform="translate(0 38.85)"/><path class="a860c3b8-03a2-47c9-a7ed-3d3a86ce9b86" d="M999,311.81a1.39,1.39,0,1,1-1.39-1.39A1.39,1.39,0,0,1,999,311.81Z" transform="translate(0 38.85)"/><path class="a860c3b8-03a2-47c9-a7ed-3d3a86ce9b86" d="M1015.66,311.81a1.39,1.39,0,1,1-1.39-1.39A1.39,1.39,0,0,1,1015.66,311.81Z" transform="translate(0 38.85)"/><path class="a860c3b8-03a2-47c9-a7ed-3d3a86ce9b86" d="M1032.38,311.81a1.39,1.39,0,1,1-1.39-1.39A1.39,1.39,0,0,1,1032.38,311.81Z" transform="translate(0 38.85)"/><path class="a860c3b8-03a2-47c9-a7ed-3d3a86ce9b86" d="M1049.09,311.81a1.39,1.39,0,1,1-1.39-1.39A1.39,1.39,0,0,1,1049.09,311.81Z" transform="translate(0 38.85)"/><path class="a860c3b8-03a2-47c9-a7ed-3d3a86ce9b86" d="M1065.8,311.81a1.39,1.39,0,1,1-1.39-1.39A1.39,1.39,0,0,1,1065.8,311.81Z" transform="translate(0 38.85)"/><path class="a860c3b8-03a2-47c9-a7ed-3d3a86ce9b86" d="M973.86,303.12a1.39,1.39,0,1,1-1.39-1.39A1.4,1.4,0,0,1,973.86,303.12Z" transform="translate(0 38.85)"/><path class="a860c3b8-03a2-47c9-a7ed-3d3a86ce9b86" d="M990.57,303.12a1.39,1.39,0,1,1-1.39-1.39A1.39,1.39,0,0,1,990.57,303.12Z" transform="translate(0 38.85)"/><path class="a860c3b8-03a2-47c9-a7ed-3d3a86ce9b86" d="M1007.28,303.12a1.39,1.39,0,1,1-1.39-1.39A1.39,1.39,0,0,1,1007.28,303.12Z" transform="translate(0 38.85)"/><path class="a860c3b8-03a2-47c9-a7ed-3d3a86ce9b86" d="M1024,303.12a1.39,1.39,0,1,1-1.39-1.39A1.39,1.39,0,0,1,1024,303.12Z" transform="translate(0 38.85)"/><path class="a860c3b8-03a2-47c9-a7ed-3d3a86ce9b86" d="M1040.71,303.12a1.39,1.39,0,1,1-1.39-1.39A1.39,1.39,0,0,1,1040.71,303.12Z" transform="translate(0 38.85)"/><path class="a860c3b8-03a2-47c9-a7ed-3d3a86ce9b86" d="M1057.43,303.12a1.39,1.39,0,1,1-1.39-1.39A1.39,1.39,0,0,1,1057.43,303.12Z" transform="translate(0 38.85)"/><path class="a860c3b8-03a2-47c9-a7ed-3d3a86ce9b86" d="M1074.14,303.12a1.39,1.39,0,1,1-1.39-1.39A1.39,1.39,0,0,1,1074.14,303.12Z" transform="translate(0 38.85)"/><circle class="a860c3b8-03a2-47c9-a7ed-3d3a86ce9b86" cx="964.12" cy="334.18" r="1.39"/><path class="a860c3b8-03a2-47c9-a7ed-3d3a86ce9b86" d="M982.23,295.34a1.39,1.39,0,1,1-1.39-1.39A1.39,1.39,0,0,1,982.23,295.34Z" transform="translate(0 38.85)"/><circle class="a860c3b8-03a2-47c9-a7ed-3d3a86ce9b86" cx="997.55" cy="334.18" r="1.39"/><path class="a860c3b8-03a2-47c9-a7ed-3d3a86ce9b86" d="M1015.66,295.34a1.39,1.39,0,1,1-1.39-1.39A1.39,1.39,0,0,1,1015.66,295.34Z" transform="translate(0 38.85)"/><circle class="a860c3b8-03a2-47c9-a7ed-3d3a86ce9b86" cx="1030.98" cy="334.18" r="1.39"/><path class="a860c3b8-03a2-47c9-a7ed-3d3a86ce9b86" d="M1049.09,295.34a1.39,1.39,0,1,1-1.39-1.39A1.39,1.39,0,0,1,1049.09,295.34Z" transform="translate(0 38.85)"/><path class="a860c3b8-03a2-47c9-a7ed-3d3a86ce9b86" d="M1065.8,295.34a1.39,1.39,0,1,1-1.39-1.39A1.39,1.39,0,0,1,1065.8,295.34Z" transform="translate(0 38.85)"/><circle class="a860c3b8-03a2-47c9-a7ed-3d3a86ce9b86" cx="972.46" cy="325.49" r="1.39"/><path class="a860c3b8-03a2-47c9-a7ed-3d3a86ce9b86" d="M990.57,286.64a1.39,1.39,0,1,1-1.39-1.39A1.39,1.39,0,0,1,990.57,286.64Z" transform="translate(0 38.85)"/><circle class="a860c3b8-03a2-47c9-a7ed-3d3a86ce9b86" cx="1005.89" cy="325.49" r="1.39"/><path class="a860c3b8-03a2-47c9-a7ed-3d3a86ce9b86" d="M1024,286.64a1.39,1.39,0,1,1-1.39-1.39A1.39,1.39,0,0,1,1024,286.64Z" transform="translate(0 38.85)"/><path class="a860c3b8-03a2-47c9-a7ed-3d3a86ce9b86" d="M1040.71,286.64a1.39,1.39,0,1,1-1.39-1.39A1.39,1.39,0,0,1,1040.71,286.64Z" transform="translate(0 38.85)"/><circle class="a860c3b8-03a2-47c9-a7ed-3d3a86ce9b86" cx="1056.04" cy="325.49" r="1.39"/><path class="a860c3b8-03a2-47c9-a7ed-3d3a86ce9b86" d="M1074.14,286.64a1.39,1.39,0,1,1-1.39-1.39A1.39,1.39,0,0,1,1074.14,286.64Z" transform="translate(0 38.85)"/><circle class="a860c3b8-03a2-47c9-a7ed-3d3a86ce9b86" cx="964.12" cy="317.71" r="1.39"/><path class="a860c3b8-03a2-47c9-a7ed-3d3a86ce9b86" d="M982.23,278.86a1.39,1.39,0,1,1-1.39-1.39A1.39,1.39,0,0,1,982.23,278.86Z" transform="translate(0 38.85)"/><circle class="a860c3b8-03a2-47c9-a7ed-3d3a86ce9b86" cx="997.55" cy="317.71" r="1.39"/><path class="a860c3b8-03a2-47c9-a7ed-3d3a86ce9b86" d="M1015.66,278.86a1.39,1.39,0,1,1-1.39-1.39A1.39,1.39,0,0,1,1015.66,278.86Z" transform="translate(0 38.85)"/><circle class="a860c3b8-03a2-47c9-a7ed-3d3a86ce9b86" cx="1030.98" cy="317.71" r="1.39"/><path class="a860c3b8-03a2-47c9-a7ed-3d3a86ce9b86" d="M1049.09,278.86a1.39,1.39,0,1,1-1.39-1.39A1.39,1.39,0,0,1,1049.09,278.86Z" transform="translate(0 38.85)"/><path class="a860c3b8-03a2-47c9-a7ed-3d3a86ce9b86" d="M1065.8,278.86a1.39,1.39,0,1,1-1.39-1.39A1.39,1.39,0,0,1,1065.8,278.86Z" transform="translate(0 38.85)"/><circle class="a860c3b8-03a2-47c9-a7ed-3d3a86ce9b86" cx="972.46" cy="309.01" r="1.39"/><path class="a860c3b8-03a2-47c9-a7ed-3d3a86ce9b86" d="M990.57,270.16a1.39,1.39,0,1,1-1.39-1.39A1.39,1.39,0,0,1,990.57,270.16Z" transform="translate(0 38.85)"/><circle class="a860c3b8-03a2-47c9-a7ed-3d3a86ce9b86" cx="1005.89" cy="309.01" r="1.39"/><path class="a860c3b8-03a2-47c9-a7ed-3d3a86ce9b86" d="M1024,270.16a1.39,1.39,0,1,1-1.39-1.39A1.39,1.39,0,0,1,1024,270.16Z" transform="translate(0 38.85)"/><path class="a860c3b8-03a2-47c9-a7ed-3d3a86ce9b86" d="M1040.71,270.16a1.39,1.39,0,1,1-1.39-1.39A1.39,1.39,0,0,1,1040.71,270.16Z" transform="translate(0 38.85)"/><circle class="a860c3b8-03a2-47c9-a7ed-3d3a86ce9b86" cx="1056.04" cy="309.01" r="1.39"/><path class="a860c3b8-03a2-47c9-a7ed-3d3a86ce9b86" d="M1074.14,270.16a1.39,1.39,0,1,1-1.39-1.39A1.39,1.39,0,0,1,1074.14,270.16Z" transform="translate(0 38.85)"/><path class="a860c3b8-03a2-47c9-a7ed-3d3a86ce9b86" d="M965.52,262.38a1.39,1.39,0,1,1-1.39-1.39A1.39,1.39,0,0,1,965.52,262.38Z" transform="translate(0 38.85)"/><path class="a860c3b8-03a2-47c9-a7ed-3d3a86ce9b86" d="M982.23,262.38a1.39,1.39,0,1,1-1.39-1.39A1.39,1.39,0,0,1,982.23,262.38Z" transform="translate(0 38.85)"/><path class="a860c3b8-03a2-47c9-a7ed-3d3a86ce9b86" d="M999,262.38a1.39,1.39,0,1,1-1.39-1.39A1.39,1.39,0,0,1,999,262.38Z" transform="translate(0 38.85)"/><path class="a860c3b8-03a2-47c9-a7ed-3d3a86ce9b86" d="M1015.66,262.38a1.39,1.39,0,1,1-1.39-1.39A1.39,1.39,0,0,1,1015.66,262.38Z" transform="translate(0 38.85)"/><path class="a860c3b8-03a2-47c9-a7ed-3d3a86ce9b86" d="M1032.38,262.38A1.39,1.39,0,1,1,1031,261,1.39,1.39,0,0,1,1032.38,262.38Z" transform="translate(0 38.85)"/><path class="a860c3b8-03a2-47c9-a7ed-3d3a86ce9b86" d="M1049.09,262.38a1.39,1.39,0,1,1-1.39-1.39A1.39,1.39,0,0,1,1049.09,262.38Z" transform="translate(0 38.85)"/><path class="a860c3b8-03a2-47c9-a7ed-3d3a86ce9b86" d="M1065.8,262.38a1.39,1.39,0,1,1-1.39-1.39A1.39,1.39,0,0,1,1065.8,262.38Z" transform="translate(0 38.85)"/><path class="a860c3b8-03a2-47c9-a7ed-3d3a86ce9b86" d="M973.86,253.69a1.39,1.39,0,1,1-1.39-1.39A1.39,1.39,0,0,1,973.86,253.69Z" transform="translate(0 38.85)"/><path class="a860c3b8-03a2-47c9-a7ed-3d3a86ce9b86" d="M990.57,253.69a1.39,1.39,0,1,1-1.39-1.39A1.39,1.39,0,0,1,990.57,253.69Z" transform="translate(0 38.85)"/><path class="a860c3b8-03a2-47c9-a7ed-3d3a86ce9b86" d="M1007.28,253.69a1.39,1.39,0,1,1-1.39-1.39A1.39,1.39,0,0,1,1007.28,253.69Z" transform="translate(0 38.85)"/><path class="a860c3b8-03a2-47c9-a7ed-3d3a86ce9b86" d="M1024,253.69a1.39,1.39,0,1,1-1.39-1.39A1.39,1.39,0,0,1,1024,253.69Z" transform="translate(0 38.85)"/><path class="a860c3b8-03a2-47c9-a7ed-3d3a86ce9b86" d="M1040.71,253.69a1.39,1.39,0,1,1-1.39-1.39A1.39,1.39,0,0,1,1040.71,253.69Z" transform="translate(0 38.85)"/><path class="a860c3b8-03a2-47c9-a7ed-3d3a86ce9b86" d="M1057.43,253.69a1.39,1.39,0,1,1-1.39-1.39A1.39,1.39,0,0,1,1057.43,253.69Z" transform="translate(0 38.85)"/><path class="a860c3b8-03a2-47c9-a7ed-3d3a86ce9b86" d="M1074.14,253.69a1.39,1.39,0,1,1-1.39-1.39A1.39,1.39,0,0,1,1074.14,253.69Z" transform="translate(0 38.85)"/><circle class="a860c3b8-03a2-47c9-a7ed-3d3a86ce9b86" cx="964.12" cy="284.75" r="1.39"/><path class="a860c3b8-03a2-47c9-a7ed-3d3a86ce9b86" d="M982.23,245.91a1.39,1.39,0,1,1-1.39-1.39A1.39,1.39,0,0,1,982.23,245.91Z" transform="translate(0 38.85)"/><circle class="a860c3b8-03a2-47c9-a7ed-3d3a86ce9b86" cx="997.55" cy="284.75" r="1.39"/><path class="a860c3b8-03a2-47c9-a7ed-3d3a86ce9b86" d="M1015.66,245.91a1.39,1.39,0,1,1-1.39-1.39A1.39,1.39,0,0,1,1015.66,245.91Z" transform="translate(0 38.85)"/><circle class="a860c3b8-03a2-47c9-a7ed-3d3a86ce9b86" cx="1030.98" cy="284.75" r="1.39"/><path class="a860c3b8-03a2-47c9-a7ed-3d3a86ce9b86" d="M1049.09,245.91a1.39,1.39,0,1,1-1.39-1.39A1.39,1.39,0,0,1,1049.09,245.91Z" transform="translate(0 38.85)"/><path class="a860c3b8-03a2-47c9-a7ed-3d3a86ce9b86" d="M1065.8,245.91a1.39,1.39,0,1,1-1.39-1.39A1.39,1.39,0,0,1,1065.8,245.91Z" transform="translate(0 38.85)"/><path class="a860c3b8-03a2-47c9-a7ed-3d3a86ce9b86" d="M973.86,237.21a1.39,1.39,0,1,1-1.39-1.39A1.39,1.39,0,0,1,973.86,237.21Z" transform="translate(0 38.85)"/><path class="a860c3b8-03a2-47c9-a7ed-3d3a86ce9b86" d="M990.57,237.21a1.39,1.39,0,1,1-1.39-1.39A1.39,1.39,0,0,1,990.57,237.21Z" transform="translate(0 38.85)"/><path class="a860c3b8-03a2-47c9-a7ed-3d3a86ce9b86" d="M1007.28,237.21a1.39,1.39,0,1,1-1.39-1.39A1.39,1.39,0,0,1,1007.28,237.21Z" transform="translate(0 38.85)"/><path class="a860c3b8-03a2-47c9-a7ed-3d3a86ce9b86" d="M1024,237.21a1.39,1.39,0,1,1-1.39-1.39A1.39,1.39,0,0,1,1024,237.21Z" transform="translate(0 38.85)"/><path class="a860c3b8-03a2-47c9-a7ed-3d3a86ce9b86" d="M1040.71,237.21a1.39,1.39,0,1,1-1.39-1.39A1.39,1.39,0,0,1,1040.71,237.21Z" transform="translate(0 38.85)"/><path class="a860c3b8-03a2-47c9-a7ed-3d3a86ce9b86" d="M1057.43,237.21a1.39,1.39,0,1,1-1.39-1.39A1.39,1.39,0,0,1,1057.43,237.21Z" transform="translate(0 38.85)"/><path class="a860c3b8-03a2-47c9-a7ed-3d3a86ce9b86" d="M1074.14,237.21a1.39,1.39,0,1,1-1.39-1.39A1.39,1.39,0,0,1,1074.14,237.21Z" transform="translate(0 38.85)"/><circle class="a860c3b8-03a2-47c9-a7ed-3d3a86ce9b86" cx="964.12" cy="268.28" r="1.39"/><path class="a860c3b8-03a2-47c9-a7ed-3d3a86ce9b86" d="M982.23,229.43a1.39,1.39,0,1,1-1.39-1.39A1.39,1.39,0,0,1,982.23,229.43Z" transform="translate(0 38.85)"/><circle class="a860c3b8-03a2-47c9-a7ed-3d3a86ce9b86" cx="997.55" cy="268.28" r="1.39"/><path class="a860c3b8-03a2-47c9-a7ed-3d3a86ce9b86" d="M1015.66,229.43a1.39,1.39,0,1,1-1.39-1.39A1.39,1.39,0,0,1,1015.66,229.43Z" transform="translate(0 38.85)"/><circle class="a860c3b8-03a2-47c9-a7ed-3d3a86ce9b86" cx="1030.98" cy="268.28" r="1.39"/><path class="a860c3b8-03a2-47c9-a7ed-3d3a86ce9b86" d="M1049.09,229.43a1.39,1.39,0,1,1-1.39-1.39A1.39,1.39,0,0,1,1049.09,229.43Z" transform="translate(0 38.85)"/><path class="a860c3b8-03a2-47c9-a7ed-3d3a86ce9b86" d="M1065.8,229.43a1.39,1.39,0,1,1-1.39-1.39A1.39,1.39,0,0,1,1065.8,229.43Z" transform="translate(0 38.85)"/><circle class="a860c3b8-03a2-47c9-a7ed-3d3a86ce9b86" cx="972.46" cy="259.58" r="1.39"/><path class="a860c3b8-03a2-47c9-a7ed-3d3a86ce9b86" d="M990.57,220.74a1.39,1.39,0,1,1-1.39-1.39A1.38,1.38,0,0,1,990.57,220.74Z" transform="translate(0 38.85)"/><circle class="a860c3b8-03a2-47c9-a7ed-3d3a86ce9b86" cx="1005.89" cy="259.58" r="1.39"/><path class="a860c3b8-03a2-47c9-a7ed-3d3a86ce9b86" d="M1024,220.74a1.39,1.39,0,1,1-1.39-1.39A1.38,1.38,0,0,1,1024,220.74Z" transform="translate(0 38.85)"/><path class="a860c3b8-03a2-47c9-a7ed-3d3a86ce9b86" d="M1040.71,220.74a1.39,1.39,0,1,1-1.39-1.39A1.38,1.38,0,0,1,1040.71,220.74Z" transform="translate(0 38.85)"/><circle class="a860c3b8-03a2-47c9-a7ed-3d3a86ce9b86" cx="1056.04" cy="259.58" r="1.39"/><path class="a860c3b8-03a2-47c9-a7ed-3d3a86ce9b86" d="M1074.14,220.74a1.39,1.39,0,1,1-1.39-1.39A1.38,1.38,0,0,1,1074.14,220.74Z" transform="translate(0 38.85)"/></g><g class="fb632970-1a96-447f-ae17-3f46a10c038f"><path class="a860c3b8-03a2-47c9-a7ed-3d3a86ce9b86" d="M564.7,70.1a1.39,1.39,0,1,1-1.39-1.39A1.4,1.4,0,0,1,564.7,70.1Z" transform="translate(0 38.85)"/><path class="a860c3b8-03a2-47c9-a7ed-3d3a86ce9b86" d="M581.41,70.1A1.39,1.39,0,1,1,580,68.71,1.39,1.39,0,0,1,581.41,70.1Z" transform="translate(0 38.85)"/><path class="a860c3b8-03a2-47c9-a7ed-3d3a86ce9b86" d="M598.12,70.1a1.39,1.39,0,1,1-1.38-1.39A1.39,1.39,0,0,1,598.12,70.1Z" transform="translate(0 38.85)"/><path class="a860c3b8-03a2-47c9-a7ed-3d3a86ce9b86" d="M614.84,70.1a1.39,1.39,0,1,1-1.39-1.39A1.39,1.39,0,0,1,614.84,70.1Z" transform="translate(0 38.85)"/><path class="a860c3b8-03a2-47c9-a7ed-3d3a86ce9b86" d="M631.55,70.1a1.39,1.39,0,1,1-1.39-1.39A1.39,1.39,0,0,1,631.55,70.1Z" transform="translate(0 38.85)"/><path class="a860c3b8-03a2-47c9-a7ed-3d3a86ce9b86" d="M648.27,70.1a1.39,1.39,0,1,1-1.39-1.39A1.39,1.39,0,0,1,648.27,70.1Z" transform="translate(0 38.85)"/><path class="a860c3b8-03a2-47c9-a7ed-3d3a86ce9b86" d="M665,70.1a1.39,1.39,0,1,1-1.39-1.39A1.39,1.39,0,0,1,665,70.1Z" transform="translate(0 38.85)"/><path class="a860c3b8-03a2-47c9-a7ed-3d3a86ce9b86" d="M573,61.4A1.39,1.39,0,1,1,571.64,60,1.39,1.39,0,0,1,573,61.4Z" transform="translate(0 38.85)"/><path class="a860c3b8-03a2-47c9-a7ed-3d3a86ce9b86" d="M589.75,61.4A1.39,1.39,0,1,1,588.36,60,1.39,1.39,0,0,1,589.75,61.4Z" transform="translate(0 38.85)"/><path class="a860c3b8-03a2-47c9-a7ed-3d3a86ce9b86" d="M606.46,61.4A1.39,1.39,0,1,1,605.07,60,1.39,1.39,0,0,1,606.46,61.4Z" transform="translate(0 38.85)"/><path class="a860c3b8-03a2-47c9-a7ed-3d3a86ce9b86" d="M623.18,61.4A1.39,1.39,0,1,1,621.79,60,1.39,1.39,0,0,1,623.18,61.4Z" transform="translate(0 38.85)"/><path class="a860c3b8-03a2-47c9-a7ed-3d3a86ce9b86" d="M639.89,61.4A1.39,1.39,0,1,1,638.5,60,1.39,1.39,0,0,1,639.89,61.4Z" transform="translate(0 38.85)"/><path class="a860c3b8-03a2-47c9-a7ed-3d3a86ce9b86" d="M656.61,61.4A1.39,1.39,0,1,1,655.22,60,1.39,1.39,0,0,1,656.61,61.4Z" transform="translate(0 38.85)"/><path class="a860c3b8-03a2-47c9-a7ed-3d3a86ce9b86" d="M673.32,61.4A1.39,1.39,0,1,1,671.93,60,1.39,1.39,0,0,1,673.32,61.4Z" transform="translate(0 38.85)"/><circle class="a860c3b8-03a2-47c9-a7ed-3d3a86ce9b86" cx="563.3" cy="92.47" r="1.39"/><path class="a860c3b8-03a2-47c9-a7ed-3d3a86ce9b86" d="M581.41,53.62A1.39,1.39,0,1,1,580,52.23,1.39,1.39,0,0,1,581.41,53.62Z" transform="translate(0 38.85)"/><circle class="a860c3b8-03a2-47c9-a7ed-3d3a86ce9b86" cx="596.73" cy="92.47" r="1.39"/><path class="a860c3b8-03a2-47c9-a7ed-3d3a86ce9b86" d="M614.84,53.62a1.39,1.39,0,1,1-1.39-1.39A1.39,1.39,0,0,1,614.84,53.62Z" transform="translate(0 38.85)"/><circle class="a860c3b8-03a2-47c9-a7ed-3d3a86ce9b86" cx="630.16" cy="92.47" r="1.39"/><path class="a860c3b8-03a2-47c9-a7ed-3d3a86ce9b86" d="M648.27,53.62a1.39,1.39,0,1,1-1.39-1.39A1.39,1.39,0,0,1,648.27,53.62Z" transform="translate(0 38.85)"/><circle class="a860c3b8-03a2-47c9-a7ed-3d3a86ce9b86" cx="663.59" cy="92.47" r="1.39"/><path class="a860c3b8-03a2-47c9-a7ed-3d3a86ce9b86" d="M573,44.92a1.39,1.39,0,1,1-1.39-1.39A1.39,1.39,0,0,1,573,44.92Z" transform="translate(0 38.85)"/><path class="a860c3b8-03a2-47c9-a7ed-3d3a86ce9b86" d="M589.75,44.92a1.39,1.39,0,1,1-1.39-1.39A1.39,1.39,0,0,1,589.75,44.92Z" transform="translate(0 38.85)"/><path class="a860c3b8-03a2-47c9-a7ed-3d3a86ce9b86" d="M606.46,44.92a1.39,1.39,0,1,1-1.39-1.39A1.39,1.39,0,0,1,606.46,44.92Z" transform="translate(0 38.85)"/><path class="a860c3b8-03a2-47c9-a7ed-3d3a86ce9b86" d="M623.18,44.92a1.39,1.39,0,1,1-1.39-1.39A1.39,1.39,0,0,1,623.18,44.92Z" transform="translate(0 38.85)"/><path class="a860c3b8-03a2-47c9-a7ed-3d3a86ce9b86" d="M639.89,44.92a1.39,1.39,0,1,1-1.39-1.39A1.39,1.39,0,0,1,639.89,44.92Z" transform="translate(0 38.85)"/><path class="a860c3b8-03a2-47c9-a7ed-3d3a86ce9b86" d="M656.61,44.92a1.39,1.39,0,1,1-1.39-1.39A1.39,1.39,0,0,1,656.61,44.92Z" transform="translate(0 38.85)"/><path class="a860c3b8-03a2-47c9-a7ed-3d3a86ce9b86" d="M673.32,44.92a1.39,1.39,0,1,1-1.39-1.39A1.39,1.39,0,0,1,673.32,44.92Z" transform="translate(0 38.85)"/><circle class="a860c3b8-03a2-47c9-a7ed-3d3a86ce9b86" cx="563.3" cy="75.99" r="1.39"/><path class="a860c3b8-03a2-47c9-a7ed-3d3a86ce9b86" d="M581.41,37.14A1.39,1.39,0,1,1,580,35.75,1.39,1.39,0,0,1,581.41,37.14Z" transform="translate(0 38.85)"/><circle class="a860c3b8-03a2-47c9-a7ed-3d3a86ce9b86" cx="596.73" cy="75.99" r="1.39"/><path class="a860c3b8-03a2-47c9-a7ed-3d3a86ce9b86" d="M614.84,37.14a1.39,1.39,0,1,1-1.39-1.39A1.39,1.39,0,0,1,614.84,37.14Z" transform="translate(0 38.85)"/><circle class="a860c3b8-03a2-47c9-a7ed-3d3a86ce9b86" cx="630.16" cy="75.99" r="1.39"/><path class="a860c3b8-03a2-47c9-a7ed-3d3a86ce9b86" d="M648.27,37.14a1.39,1.39,0,1,1-1.39-1.39A1.39,1.39,0,0,1,648.27,37.14Z" transform="translate(0 38.85)"/><circle class="a860c3b8-03a2-47c9-a7ed-3d3a86ce9b86" cx="663.59" cy="75.99" r="1.39"/><circle class="a860c3b8-03a2-47c9-a7ed-3d3a86ce9b86" cx="571.64" cy="67.3" r="1.39"/><path class="a860c3b8-03a2-47c9-a7ed-3d3a86ce9b86" d="M589.75,28.45a1.39,1.39,0,1,1-1.39-1.39A1.39,1.39,0,0,1,589.75,28.45Z" transform="translate(0 38.85)"/><circle class="a860c3b8-03a2-47c9-a7ed-3d3a86ce9b86" cx="605.07" cy="67.3" r="1.39"/><path class="a860c3b8-03a2-47c9-a7ed-3d3a86ce9b86" d="M623.18,28.45a1.39,1.39,0,1,1-1.39-1.39A1.39,1.39,0,0,1,623.18,28.45Z" transform="translate(0 38.85)"/><circle class="a860c3b8-03a2-47c9-a7ed-3d3a86ce9b86" cx="638.5" cy="67.3" r="1.39"/><path class="a860c3b8-03a2-47c9-a7ed-3d3a86ce9b86" d="M656.61,28.45a1.39,1.39,0,1,1-1.39-1.39A1.39,1.39,0,0,1,656.61,28.45Z" transform="translate(0 38.85)"/><circle class="a860c3b8-03a2-47c9-a7ed-3d3a86ce9b86" cx="671.93" cy="67.3" r="1.39"/><path class="a860c3b8-03a2-47c9-a7ed-3d3a86ce9b86" d="M564.7,20.67a1.39,1.39,0,1,1-1.39-1.39A1.4,1.4,0,0,1,564.7,20.67Z" transform="translate(0 38.85)"/><path class="a860c3b8-03a2-47c9-a7ed-3d3a86ce9b86" d="M581.41,20.67A1.39,1.39,0,1,1,580,19.28,1.39,1.39,0,0,1,581.41,20.67Z" transform="translate(0 38.85)"/><path class="a860c3b8-03a2-47c9-a7ed-3d3a86ce9b86" d="M598.12,20.67a1.39,1.39,0,1,1-1.38-1.39A1.39,1.39,0,0,1,598.12,20.67Z" transform="translate(0 38.85)"/><path class="a860c3b8-03a2-47c9-a7ed-3d3a86ce9b86" d="M614.84,20.67a1.39,1.39,0,1,1-1.39-1.39A1.39,1.39,0,0,1,614.84,20.67Z" transform="translate(0 38.85)"/><path class="a860c3b8-03a2-47c9-a7ed-3d3a86ce9b86" d="M631.55,20.67a1.39,1.39,0,1,1-1.39-1.39A1.39,1.39,0,0,1,631.55,20.67Z" transform="translate(0 38.85)"/><path class="a860c3b8-03a2-47c9-a7ed-3d3a86ce9b86" d="M648.27,20.67a1.39,1.39,0,1,1-1.39-1.39A1.39,1.39,0,0,1,648.27,20.67Z" transform="translate(0 38.85)"/><path class="a860c3b8-03a2-47c9-a7ed-3d3a86ce9b86" d="M665,20.67a1.39,1.39,0,1,1-1.39-1.39A1.39,1.39,0,0,1,665,20.67Z" transform="translate(0 38.85)"/><circle class="a860c3b8-03a2-47c9-a7ed-3d3a86ce9b86" cx="571.64" cy="50.82" r="1.39"/><path class="a860c3b8-03a2-47c9-a7ed-3d3a86ce9b86" d="M589.75,12a1.39,1.39,0,1,1-1.39-1.39A1.39,1.39,0,0,1,589.75,12Z" transform="translate(0 38.85)"/><circle class="a860c3b8-03a2-47c9-a7ed-3d3a86ce9b86" cx="605.07" cy="50.82" r="1.39"/><path class="a860c3b8-03a2-47c9-a7ed-3d3a86ce9b86" d="M623.18,12a1.39,1.39,0,1,1-1.39-1.39A1.39,1.39,0,0,1,623.18,12Z" transform="translate(0 38.85)"/><circle class="a860c3b8-03a2-47c9-a7ed-3d3a86ce9b86" cx="638.5" cy="50.82" r="1.39"/><path class="a860c3b8-03a2-47c9-a7ed-3d3a86ce9b86" d="M656.61,12a1.39,1.39,0,1,1-1.39-1.39A1.39,1.39,0,0,1,656.61,12Z" transform="translate(0 38.85)"/><circle class="a860c3b8-03a2-47c9-a7ed-3d3a86ce9b86" cx="671.93" cy="50.82" r="1.39"/><path class="a860c3b8-03a2-47c9-a7ed-3d3a86ce9b86" d="M564.7,4.19a1.39,1.39,0,1,1-1.39-1.39A1.39,1.39,0,0,1,564.7,4.19Z" transform="translate(0 38.85)"/><path class="a860c3b8-03a2-47c9-a7ed-3d3a86ce9b86" d="M581.41,4.19A1.39,1.39,0,1,1,580,2.8,1.39,1.39,0,0,1,581.41,4.19Z" transform="translate(0 38.85)"/><path class="a860c3b8-03a2-47c9-a7ed-3d3a86ce9b86" d="M598.12,4.19a1.39,1.39,0,1,1-1.38-1.39A1.38,1.38,0,0,1,598.12,4.19Z" transform="translate(0 38.85)"/><path class="a860c3b8-03a2-47c9-a7ed-3d3a86ce9b86" d="M614.84,4.19a1.39,1.39,0,1,1-1.39-1.39A1.39,1.39,0,0,1,614.84,4.19Z" transform="translate(0 38.85)"/><path class="a860c3b8-03a2-47c9-a7ed-3d3a86ce9b86" d="M631.55,4.19a1.39,1.39,0,1,1-1.39-1.39A1.39,1.39,0,0,1,631.55,4.19Z" transform="translate(0 38.85)"/><path class="a860c3b8-03a2-47c9-a7ed-3d3a86ce9b86" d="M648.27,4.19a1.39,1.39,0,1,1-1.39-1.39A1.39,1.39,0,0,1,648.27,4.19Z" transform="translate(0 38.85)"/><path class="a860c3b8-03a2-47c9-a7ed-3d3a86ce9b86" d="M665,4.19a1.39,1.39,0,1,1-1.39-1.39A1.39,1.39,0,0,1,665,4.19Z" transform="translate(0 38.85)"/><path class="a860c3b8-03a2-47c9-a7ed-3d3a86ce9b86" d="M573-4.5a1.38,1.38,0,0,1-1.39,1.38,1.38,1.38,0,0,1-1.38-1.38,1.38,1.38,0,0,1,1.38-1.39A1.39,1.39,0,0,1,573-4.5Z" transform="translate(0 38.85)"/><path class="a860c3b8-03a2-47c9-a7ed-3d3a86ce9b86" d="M589.75-4.5a1.38,1.38,0,0,1-1.39,1.38A1.38,1.38,0,0,1,587-4.5a1.39,1.39,0,0,1,1.39-1.39A1.39,1.39,0,0,1,589.75-4.5Z" transform="translate(0 38.85)"/><path class="a860c3b8-03a2-47c9-a7ed-3d3a86ce9b86" d="M606.46-4.5a1.38,1.38,0,0,1-1.39,1.38,1.39,1.39,0,0,1-1.39-1.38,1.39,1.39,0,0,1,1.39-1.39A1.39,1.39,0,0,1,606.46-4.5Z" transform="translate(0 38.85)"/><path class="a860c3b8-03a2-47c9-a7ed-3d3a86ce9b86" d="M623.18-4.5a1.38,1.38,0,0,1-1.39,1.38A1.38,1.38,0,0,1,620.4-4.5a1.39,1.39,0,0,1,1.39-1.39A1.39,1.39,0,0,1,623.18-4.5Z" transform="translate(0 38.85)"/><path class="a860c3b8-03a2-47c9-a7ed-3d3a86ce9b86" d="M639.89-4.5a1.38,1.38,0,0,1-1.39,1.38,1.39,1.39,0,0,1-1.39-1.38,1.39,1.39,0,0,1,1.39-1.39A1.39,1.39,0,0,1,639.89-4.5Z" transform="translate(0 38.85)"/><path class="a860c3b8-03a2-47c9-a7ed-3d3a86ce9b86" d="M656.61-4.5a1.38,1.38,0,0,1-1.39,1.38,1.38,1.38,0,0,1-1.39-1.38,1.39,1.39,0,0,1,1.39-1.39A1.39,1.39,0,0,1,656.61-4.5Z" transform="translate(0 38.85)"/><path class="a860c3b8-03a2-47c9-a7ed-3d3a86ce9b86" d="M673.32-4.5a1.38,1.38,0,0,1-1.39,1.38,1.39,1.39,0,0,1-1.39-1.38,1.39,1.39,0,0,1,1.39-1.39A1.39,1.39,0,0,1,673.32-4.5Z" transform="translate(0 38.85)"/><circle class="a860c3b8-03a2-47c9-a7ed-3d3a86ce9b86" cx="563.3" cy="26.56" r="1.39"/><path class="a860c3b8-03a2-47c9-a7ed-3d3a86ce9b86" d="M581.41-12.29A1.39,1.39,0,0,1,580-10.9a1.39,1.39,0,0,1-1.39-1.39A1.39,1.39,0,0,1,580-13.68,1.39,1.39,0,0,1,581.41-12.29Z" transform="translate(0 38.85)"/><circle class="a860c3b8-03a2-47c9-a7ed-3d3a86ce9b86" cx="596.73" cy="26.56" r="1.39"/><path class="a860c3b8-03a2-47c9-a7ed-3d3a86ce9b86" d="M614.84-12.29a1.39,1.39,0,0,1-1.39,1.39,1.39,1.39,0,0,1-1.39-1.39,1.39,1.39,0,0,1,1.39-1.39A1.39,1.39,0,0,1,614.84-12.29Z" transform="translate(0 38.85)"/><circle class="a860c3b8-03a2-47c9-a7ed-3d3a86ce9b86" cx="630.16" cy="26.56" r="1.39"/><path class="a860c3b8-03a2-47c9-a7ed-3d3a86ce9b86" d="M648.27-12.29a1.39,1.39,0,0,1-1.39,1.39,1.39,1.39,0,0,1-1.39-1.39,1.39,1.39,0,0,1,1.39-1.39A1.39,1.39,0,0,1,648.27-12.29Z" transform="translate(0 38.85)"/><circle class="a860c3b8-03a2-47c9-a7ed-3d3a86ce9b86" cx="663.59" cy="26.56" r="1.39"/><circle class="a860c3b8-03a2-47c9-a7ed-3d3a86ce9b86" cx="571.64" cy="17.87" r="1.39"/><path class="a860c3b8-03a2-47c9-a7ed-3d3a86ce9b86" d="M589.75-21a1.39,1.39,0,0,1-1.39,1.39A1.39,1.39,0,0,1,587-21a1.39,1.39,0,0,1,1.39-1.39A1.39,1.39,0,0,1,589.75-21Z" transform="translate(0 38.85)"/><circle class="a860c3b8-03a2-47c9-a7ed-3d3a86ce9b86" cx="605.07" cy="17.87" r="1.39"/><path class="a860c3b8-03a2-47c9-a7ed-3d3a86ce9b86" d="M623.18-21a1.39,1.39,0,0,1-1.39,1.39A1.39,1.39,0,0,1,620.4-21a1.39,1.39,0,0,1,1.39-1.39A1.39,1.39,0,0,1,623.18-21Z" transform="translate(0 38.85)"/><circle class="a860c3b8-03a2-47c9-a7ed-3d3a86ce9b86" cx="638.5" cy="17.87" r="1.39"/><path class="a860c3b8-03a2-47c9-a7ed-3d3a86ce9b86" d="M656.61-21a1.39,1.39,0,0,1-1.39,1.39A1.39,1.39,0,0,1,653.83-21a1.39,1.39,0,0,1,1.39-1.39A1.39,1.39,0,0,1,656.61-21Z" transform="translate(0 38.85)"/><circle class="a860c3b8-03a2-47c9-a7ed-3d3a86ce9b86" cx="671.93" cy="17.87" r="1.39"/><circle class="a860c3b8-03a2-47c9-a7ed-3d3a86ce9b86" cx="563.3" cy="10.08" r="1.39"/><path class="a860c3b8-03a2-47c9-a7ed-3d3a86ce9b86" d="M581.41-28.76A1.39,1.39,0,0,1,580-27.37a1.39,1.39,0,0,1-1.39-1.39A1.39,1.39,0,0,1,580-30.15,1.39,1.39,0,0,1,581.41-28.76Z" transform="translate(0 38.85)"/><circle class="a860c3b8-03a2-47c9-a7ed-3d3a86ce9b86" cx="596.73" cy="10.08" r="1.39"/><path class="a860c3b8-03a2-47c9-a7ed-3d3a86ce9b86" d="M614.84-28.76a1.39,1.39,0,0,1-1.39,1.39,1.39,1.39,0,0,1-1.39-1.39,1.39,1.39,0,0,1,1.39-1.39A1.39,1.39,0,0,1,614.84-28.76Z" transform="translate(0 38.85)"/><circle class="a860c3b8-03a2-47c9-a7ed-3d3a86ce9b86" cx="630.16" cy="10.08" r="1.39"/><path class="a860c3b8-03a2-47c9-a7ed-3d3a86ce9b86" d="M648.27-28.76a1.39,1.39,0,0,1-1.39,1.39,1.39,1.39,0,0,1-1.39-1.39,1.39,1.39,0,0,1,1.39-1.39A1.39,1.39,0,0,1,648.27-28.76Z" transform="translate(0 38.85)"/><circle class="a860c3b8-03a2-47c9-a7ed-3d3a86ce9b86" cx="663.59" cy="10.08" r="1.39"/><circle class="a860c3b8-03a2-47c9-a7ed-3d3a86ce9b86" cx="571.64" cy="1.39" r="1.39"/><path class="a860c3b8-03a2-47c9-a7ed-3d3a86ce9b86" d="M589.75-37.46a1.39,1.39,0,0,1-1.39,1.39A1.39,1.39,0,0,1,587-37.46a1.39,1.39,0,0,1,1.39-1.39A1.39,1.39,0,0,1,589.75-37.46Z" transform="translate(0 38.85)"/><circle class="a860c3b8-03a2-47c9-a7ed-3d3a86ce9b86" cx="605.07" cy="1.39" r="1.39"/><path class="a860c3b8-03a2-47c9-a7ed-3d3a86ce9b86" d="M623.18-37.46a1.39,1.39,0,0,1-1.39,1.39,1.39,1.39,0,0,1-1.39-1.39,1.39,1.39,0,0,1,1.39-1.39A1.39,1.39,0,0,1,623.18-37.46Z" transform="translate(0 38.85)"/><circle class="a860c3b8-03a2-47c9-a7ed-3d3a86ce9b86" cx="638.5" cy="1.39" r="1.39"/><path class="a860c3b8-03a2-47c9-a7ed-3d3a86ce9b86" d="M656.61-37.46a1.39,1.39,0,0,1-1.39,1.39,1.39,1.39,0,0,1-1.39-1.39,1.39,1.39,0,0,1,1.39-1.39A1.39,1.39,0,0,1,656.61-37.46Z" transform="translate(0 38.85)"/><circle class="a860c3b8-03a2-47c9-a7ed-3d3a86ce9b86" cx="671.93" cy="1.39" r="1.39"/></g><g class="bcb7e07a-6cf2-4af0-97ce-5035d6154c60"><path class="a860c3b8-03a2-47c9-a7ed-3d3a86ce9b86" d="M683.14,553.78a1.39,1.39,0,1,1-1.39-1.39A1.4,1.4,0,0,1,683.14,553.78Z" transform="translate(0 38.85)"/><circle class="a860c3b8-03a2-47c9-a7ed-3d3a86ce9b86" cx="698.46" cy="592.62" r="1.39"/><circle class="a860c3b8-03a2-47c9-a7ed-3d3a86ce9b86" cx="715.17" cy="592.62" r="1.39"/><path class="a860c3b8-03a2-47c9-a7ed-3d3a86ce9b86" d="M733.28,553.78a1.39,1.39,0,1,1-1.39-1.39A1.39,1.39,0,0,1,733.28,553.78Z" transform="translate(0 38.85)"/><circle class="a860c3b8-03a2-47c9-a7ed-3d3a86ce9b86" cx="748.6" cy="592.62" r="1.39"/><path class="a860c3b8-03a2-47c9-a7ed-3d3a86ce9b86" d="M766.71,553.78a1.39,1.39,0,1,1-1.39-1.39A1.39,1.39,0,0,1,766.71,553.78Z" transform="translate(0 38.85)"/><circle class="a860c3b8-03a2-47c9-a7ed-3d3a86ce9b86" cx="782.03" cy="592.62" r="1.39"/><path class="a860c3b8-03a2-47c9-a7ed-3d3a86ce9b86" d="M691.48,545.08a1.39,1.39,0,1,1-1.39-1.39A1.39,1.39,0,0,1,691.48,545.08Z" transform="translate(0 38.85)"/><circle class="a860c3b8-03a2-47c9-a7ed-3d3a86ce9b86" cx="706.8" cy="583.93" r="1.39"/><circle class="a860c3b8-03a2-47c9-a7ed-3d3a86ce9b86" cx="723.51" cy="583.93" r="1.39"/><path class="a860c3b8-03a2-47c9-a7ed-3d3a86ce9b86" d="M741.62,545.08a1.39,1.39,0,1,1-1.39-1.39A1.39,1.39,0,0,1,741.62,545.08Z" transform="translate(0 38.85)"/><circle class="a860c3b8-03a2-47c9-a7ed-3d3a86ce9b86" cx="756.94" cy="583.93" r="1.39"/><path class="a860c3b8-03a2-47c9-a7ed-3d3a86ce9b86" d="M775.05,545.08a1.39,1.39,0,1,1-1.39-1.39A1.39,1.39,0,0,1,775.05,545.08Z" transform="translate(0 38.85)"/><circle class="a860c3b8-03a2-47c9-a7ed-3d3a86ce9b86" cx="790.37" cy="583.93" r="1.39"/><path class="a860c3b8-03a2-47c9-a7ed-3d3a86ce9b86" d="M683.14,537.3a1.39,1.39,0,1,1-1.39-1.39A1.39,1.39,0,0,1,683.14,537.3Z" transform="translate(0 38.85)"/><path class="a860c3b8-03a2-47c9-a7ed-3d3a86ce9b86" d="M699.85,537.3a1.39,1.39,0,1,1-1.39-1.39A1.39,1.39,0,0,1,699.85,537.3Z" transform="translate(0 38.85)"/><path class="a860c3b8-03a2-47c9-a7ed-3d3a86ce9b86" d="M716.57,537.3a1.39,1.39,0,1,1-1.39-1.39A1.39,1.39,0,0,1,716.57,537.3Z" transform="translate(0 38.85)"/><path class="a860c3b8-03a2-47c9-a7ed-3d3a86ce9b86" d="M733.28,537.3a1.39,1.39,0,1,1-1.39-1.39A1.39,1.39,0,0,1,733.28,537.3Z" transform="translate(0 38.85)"/><path class="a860c3b8-03a2-47c9-a7ed-3d3a86ce9b86" d="M750,537.3a1.39,1.39,0,1,1-1.39-1.39A1.39,1.39,0,0,1,750,537.3Z" transform="translate(0 38.85)"/><path class="a860c3b8-03a2-47c9-a7ed-3d3a86ce9b86" d="M766.71,537.3a1.39,1.39,0,1,1-1.39-1.39A1.39,1.39,0,0,1,766.71,537.3Z" transform="translate(0 38.85)"/><path class="a860c3b8-03a2-47c9-a7ed-3d3a86ce9b86" d="M783.42,537.3a1.39,1.39,0,1,1-1.38-1.39A1.38,1.38,0,0,1,783.42,537.3Z" transform="translate(0 38.85)"/><path class="a860c3b8-03a2-47c9-a7ed-3d3a86ce9b86" d="M691.48,528.61a1.39,1.39,0,1,1-1.39-1.39A1.39,1.39,0,0,1,691.48,528.61Z" transform="translate(0 38.85)"/><path class="a860c3b8-03a2-47c9-a7ed-3d3a86ce9b86" d="M708.19,528.61a1.39,1.39,0,1,1-1.39-1.39A1.38,1.38,0,0,1,708.19,528.61Z" transform="translate(0 38.85)"/><path class="a860c3b8-03a2-47c9-a7ed-3d3a86ce9b86" d="M724.9,528.61a1.39,1.39,0,1,1-1.38-1.39A1.38,1.38,0,0,1,724.9,528.61Z" transform="translate(0 38.85)"/><path class="a860c3b8-03a2-47c9-a7ed-3d3a86ce9b86" d="M741.62,528.61a1.39,1.39,0,1,1-1.39-1.39A1.38,1.38,0,0,1,741.62,528.61Z" transform="translate(0 38.85)"/><path class="a860c3b8-03a2-47c9-a7ed-3d3a86ce9b86" d="M758.33,528.61a1.39,1.39,0,1,1-1.39-1.39A1.38,1.38,0,0,1,758.33,528.61Z" transform="translate(0 38.85)"/><path class="a860c3b8-03a2-47c9-a7ed-3d3a86ce9b86" d="M775.05,528.61a1.39,1.39,0,1,1-1.39-1.39A1.38,1.38,0,0,1,775.05,528.61Z" transform="translate(0 38.85)"/><path class="a860c3b8-03a2-47c9-a7ed-3d3a86ce9b86" d="M791.76,528.61a1.39,1.39,0,1,1-1.39-1.39A1.38,1.38,0,0,1,791.76,528.61Z" transform="translate(0 38.85)"/><path class="a860c3b8-03a2-47c9-a7ed-3d3a86ce9b86" d="M683.14,520.82a1.39,1.39,0,1,1-1.39-1.39A1.39,1.39,0,0,1,683.14,520.82Z" transform="translate(0 38.85)"/><circle class="a860c3b8-03a2-47c9-a7ed-3d3a86ce9b86" cx="698.46" cy="559.67" r="1.39"/><circle class="a860c3b8-03a2-47c9-a7ed-3d3a86ce9b86" cx="715.17" cy="559.67" r="1.39"/><path class="a860c3b8-03a2-47c9-a7ed-3d3a86ce9b86" d="M733.28,520.82a1.39,1.39,0,1,1-1.39-1.39A1.39,1.39,0,0,1,733.28,520.82Z" transform="translate(0 38.85)"/><circle class="a860c3b8-03a2-47c9-a7ed-3d3a86ce9b86" cx="748.6" cy="559.67" r="1.39"/><path class="a860c3b8-03a2-47c9-a7ed-3d3a86ce9b86" d="M766.71,520.82a1.39,1.39,0,1,1-1.39-1.39A1.39,1.39,0,0,1,766.71,520.82Z" transform="translate(0 38.85)"/><circle class="a860c3b8-03a2-47c9-a7ed-3d3a86ce9b86" cx="782.03" cy="559.67" r="1.39"/><path class="a860c3b8-03a2-47c9-a7ed-3d3a86ce9b86" d="M691.48,512.13a1.39,1.39,0,1,1-1.39-1.39A1.39,1.39,0,0,1,691.48,512.13Z" transform="translate(0 38.85)"/><path class="a860c3b8-03a2-47c9-a7ed-3d3a86ce9b86" d="M708.19,512.13a1.39,1.39,0,1,1-1.39-1.39A1.39,1.39,0,0,1,708.19,512.13Z" transform="translate(0 38.85)"/><path class="a860c3b8-03a2-47c9-a7ed-3d3a86ce9b86" d="M724.9,512.13a1.39,1.39,0,1,1-1.38-1.39A1.38,1.38,0,0,1,724.9,512.13Z" transform="translate(0 38.85)"/><path class="a860c3b8-03a2-47c9-a7ed-3d3a86ce9b86" d="M741.62,512.13a1.39,1.39,0,1,1-1.39-1.39A1.39,1.39,0,0,1,741.62,512.13Z" transform="translate(0 38.85)"/><path class="a860c3b8-03a2-47c9-a7ed-3d3a86ce9b86" d="M758.33,512.13a1.39,1.39,0,1,1-1.39-1.39A1.39,1.39,0,0,1,758.33,512.13Z" transform="translate(0 38.85)"/><path class="a860c3b8-03a2-47c9-a7ed-3d3a86ce9b86" d="M775.05,512.13a1.39,1.39,0,1,1-1.39-1.39A1.39,1.39,0,0,1,775.05,512.13Z" transform="translate(0 38.85)"/><path class="a860c3b8-03a2-47c9-a7ed-3d3a86ce9b86" d="M791.76,512.13a1.39,1.39,0,1,1-1.39-1.39A1.39,1.39,0,0,1,791.76,512.13Z" transform="translate(0 38.85)"/><path class="a860c3b8-03a2-47c9-a7ed-3d3a86ce9b86" d="M683.14,504.35a1.39,1.39,0,1,1-1.39-1.39A1.4,1.4,0,0,1,683.14,504.35Z" transform="translate(0 38.85)"/><circle class="a860c3b8-03a2-47c9-a7ed-3d3a86ce9b86" cx="698.46" cy="543.19" r="1.39"/><circle class="a860c3b8-03a2-47c9-a7ed-3d3a86ce9b86" cx="715.17" cy="543.19" r="1.39"/><path class="a860c3b8-03a2-47c9-a7ed-3d3a86ce9b86" d="M733.28,504.35a1.39,1.39,0,1,1-1.39-1.39A1.39,1.39,0,0,1,733.28,504.35Z" transform="translate(0 38.85)"/><circle class="a860c3b8-03a2-47c9-a7ed-3d3a86ce9b86" cx="748.6" cy="543.19" r="1.39"/><path class="a860c3b8-03a2-47c9-a7ed-3d3a86ce9b86" d="M766.71,504.35a1.39,1.39,0,1,1-1.39-1.39A1.39,1.39,0,0,1,766.71,504.35Z" transform="translate(0 38.85)"/><circle class="a860c3b8-03a2-47c9-a7ed-3d3a86ce9b86" cx="782.03" cy="543.19" r="1.39"/><path class="a860c3b8-03a2-47c9-a7ed-3d3a86ce9b86" d="M691.48,495.65a1.39,1.39,0,1,1-1.39-1.39A1.39,1.39,0,0,1,691.48,495.65Z" transform="translate(0 38.85)"/><circle class="a860c3b8-03a2-47c9-a7ed-3d3a86ce9b86" cx="706.8" cy="534.5" r="1.39"/><circle class="a860c3b8-03a2-47c9-a7ed-3d3a86ce9b86" cx="723.51" cy="534.5" r="1.39"/><path class="a860c3b8-03a2-47c9-a7ed-3d3a86ce9b86" d="M741.62,495.65a1.39,1.39,0,1,1-1.39-1.39A1.39,1.39,0,0,1,741.62,495.65Z" transform="translate(0 38.85)"/><circle class="a860c3b8-03a2-47c9-a7ed-3d3a86ce9b86" cx="756.94" cy="534.5" r="1.39"/><path class="a860c3b8-03a2-47c9-a7ed-3d3a86ce9b86" d="M775.05,495.65a1.39,1.39,0,1,1-1.39-1.39A1.39,1.39,0,0,1,775.05,495.65Z" transform="translate(0 38.85)"/><circle class="a860c3b8-03a2-47c9-a7ed-3d3a86ce9b86" cx="790.37" cy="534.5" r="1.39"/><path class="a860c3b8-03a2-47c9-a7ed-3d3a86ce9b86" d="M683.14,487.87a1.39,1.39,0,1,1-1.39-1.39A1.39,1.39,0,0,1,683.14,487.87Z" transform="translate(0 38.85)"/><path class="a860c3b8-03a2-47c9-a7ed-3d3a86ce9b86" d="M699.85,487.87a1.39,1.39,0,1,1-1.39-1.39A1.39,1.39,0,0,1,699.85,487.87Z" transform="translate(0 38.85)"/><path class="a860c3b8-03a2-47c9-a7ed-3d3a86ce9b86" d="M716.57,487.87a1.39,1.39,0,1,1-1.39-1.39A1.39,1.39,0,0,1,716.57,487.87Z" transform="translate(0 38.85)"/><path class="a860c3b8-03a2-47c9-a7ed-3d3a86ce9b86" d="M733.28,487.87a1.39,1.39,0,1,1-1.39-1.39A1.39,1.39,0,0,1,733.28,487.87Z" transform="translate(0 38.85)"/><path class="a860c3b8-03a2-47c9-a7ed-3d3a86ce9b86" d="M750,487.87a1.39,1.39,0,1,1-1.39-1.39A1.39,1.39,0,0,1,750,487.87Z" transform="translate(0 38.85)"/><path class="a860c3b8-03a2-47c9-a7ed-3d3a86ce9b86" d="M766.71,487.87a1.39,1.39,0,1,1-1.39-1.39A1.39,1.39,0,0,1,766.71,487.87Z" transform="translate(0 38.85)"/><path class="a860c3b8-03a2-47c9-a7ed-3d3a86ce9b86" d="M783.42,487.87a1.39,1.39,0,1,1-1.38-1.39A1.38,1.38,0,0,1,783.42,487.87Z" transform="translate(0 38.85)"/><path class="a860c3b8-03a2-47c9-a7ed-3d3a86ce9b86" d="M691.48,479.18a1.39,1.39,0,1,1-1.39-1.39A1.4,1.4,0,0,1,691.48,479.18Z" transform="translate(0 38.85)"/><circle class="a860c3b8-03a2-47c9-a7ed-3d3a86ce9b86" cx="706.8" cy="518.02" r="1.39"/><circle class="a860c3b8-03a2-47c9-a7ed-3d3a86ce9b86" cx="723.51" cy="518.02" r="1.39"/><path class="a860c3b8-03a2-47c9-a7ed-3d3a86ce9b86" d="M741.62,479.18a1.39,1.39,0,1,1-1.39-1.39A1.39,1.39,0,0,1,741.62,479.18Z" transform="translate(0 38.85)"/><circle class="a860c3b8-03a2-47c9-a7ed-3d3a86ce9b86" cx="756.94" cy="518.02" r="1.39"/><path class="a860c3b8-03a2-47c9-a7ed-3d3a86ce9b86" d="M775.05,479.18a1.39,1.39,0,1,1-1.39-1.39A1.39,1.39,0,0,1,775.05,479.18Z" transform="translate(0 38.85)"/><circle class="a860c3b8-03a2-47c9-a7ed-3d3a86ce9b86" cx="790.37" cy="518.02" r="1.39"/><path class="a860c3b8-03a2-47c9-a7ed-3d3a86ce9b86" d="M683.14,471.39a1.39,1.39,0,1,1-1.39-1.39A1.39,1.39,0,0,1,683.14,471.39Z" transform="translate(0 38.85)"/><path class="a860c3b8-03a2-47c9-a7ed-3d3a86ce9b86" d="M699.85,471.39a1.39,1.39,0,1,1-1.39-1.39A1.39,1.39,0,0,1,699.85,471.39Z" transform="translate(0 38.85)"/><path class="a860c3b8-03a2-47c9-a7ed-3d3a86ce9b86" d="M716.57,471.39a1.39,1.39,0,1,1-1.39-1.39A1.39,1.39,0,0,1,716.57,471.39Z" transform="translate(0 38.85)"/><path class="a860c3b8-03a2-47c9-a7ed-3d3a86ce9b86" d="M733.28,471.39a1.39,1.39,0,1,1-1.39-1.39A1.39,1.39,0,0,1,733.28,471.39Z" transform="translate(0 38.85)"/><path class="a860c3b8-03a2-47c9-a7ed-3d3a86ce9b86" d="M750,471.39a1.39,1.39,0,1,1-1.39-1.39A1.39,1.39,0,0,1,750,471.39Z" transform="translate(0 38.85)"/><path class="a860c3b8-03a2-47c9-a7ed-3d3a86ce9b86" d="M766.71,471.39a1.39,1.39,0,1,1-1.39-1.39A1.39,1.39,0,0,1,766.71,471.39Z" transform="translate(0 38.85)"/><path class="a860c3b8-03a2-47c9-a7ed-3d3a86ce9b86" d="M783.42,471.39A1.39,1.39,0,1,1,782,470,1.38,1.38,0,0,1,783.42,471.39Z" transform="translate(0 38.85)"/><path class="a860c3b8-03a2-47c9-a7ed-3d3a86ce9b86" d="M691.48,462.7a1.39,1.39,0,1,1-1.39-1.39A1.39,1.39,0,0,1,691.48,462.7Z" transform="translate(0 38.85)"/><path class="a860c3b8-03a2-47c9-a7ed-3d3a86ce9b86" d="M708.19,462.7a1.39,1.39,0,1,1-1.39-1.39A1.39,1.39,0,0,1,708.19,462.7Z" transform="translate(0 38.85)"/><path class="a860c3b8-03a2-47c9-a7ed-3d3a86ce9b86" d="M724.9,462.7a1.39,1.39,0,1,1-1.38-1.39A1.38,1.38,0,0,1,724.9,462.7Z" transform="translate(0 38.85)"/><path class="a860c3b8-03a2-47c9-a7ed-3d3a86ce9b86" d="M741.62,462.7a1.39,1.39,0,1,1-1.39-1.39A1.39,1.39,0,0,1,741.62,462.7Z" transform="translate(0 38.85)"/><path class="a860c3b8-03a2-47c9-a7ed-3d3a86ce9b86" d="M758.33,462.7a1.39,1.39,0,1,1-1.39-1.39A1.39,1.39,0,0,1,758.33,462.7Z" transform="translate(0 38.85)"/><path class="a860c3b8-03a2-47c9-a7ed-3d3a86ce9b86" d="M775.05,462.7a1.39,1.39,0,1,1-1.39-1.39A1.39,1.39,0,0,1,775.05,462.7Z" transform="translate(0 38.85)"/><path class="a860c3b8-03a2-47c9-a7ed-3d3a86ce9b86" d="M791.76,462.7a1.39,1.39,0,1,1-1.39-1.39A1.39,1.39,0,0,1,791.76,462.7Z" transform="translate(0 38.85)"/><path class="a860c3b8-03a2-47c9-a7ed-3d3a86ce9b86" d="M683.14,454.92a1.39,1.39,0,1,1-1.39-1.39A1.39,1.39,0,0,1,683.14,454.92Z" transform="translate(0 38.85)"/><circle class="a860c3b8-03a2-47c9-a7ed-3d3a86ce9b86" cx="698.46" cy="493.77" r="1.39"/><circle class="a860c3b8-03a2-47c9-a7ed-3d3a86ce9b86" cx="715.17" cy="493.77" r="1.39"/><path class="a860c3b8-03a2-47c9-a7ed-3d3a86ce9b86" d="M733.28,454.92a1.39,1.39,0,1,1-1.39-1.39A1.39,1.39,0,0,1,733.28,454.92Z" transform="translate(0 38.85)"/><circle class="a860c3b8-03a2-47c9-a7ed-3d3a86ce9b86" cx="748.6" cy="493.77" r="1.39"/><path class="a860c3b8-03a2-47c9-a7ed-3d3a86ce9b86" d="M766.71,454.92a1.39,1.39,0,1,1-1.39-1.39A1.39,1.39,0,0,1,766.71,454.92Z" transform="translate(0 38.85)"/><circle class="a860c3b8-03a2-47c9-a7ed-3d3a86ce9b86" cx="782.03" cy="493.77" r="1.39"/><path class="a860c3b8-03a2-47c9-a7ed-3d3a86ce9b86" d="M691.48,446.22a1.39,1.39,0,1,1-1.39-1.39A1.39,1.39,0,0,1,691.48,446.22Z" transform="translate(0 38.85)"/><circle class="a860c3b8-03a2-47c9-a7ed-3d3a86ce9b86" cx="706.8" cy="485.07" r="1.39"/><circle class="a860c3b8-03a2-47c9-a7ed-3d3a86ce9b86" cx="723.51" cy="485.07" r="1.39"/><path class="a860c3b8-03a2-47c9-a7ed-3d3a86ce9b86" d="M741.62,446.22a1.39,1.39,0,1,1-1.39-1.39A1.39,1.39,0,0,1,741.62,446.22Z" transform="translate(0 38.85)"/><circle class="a860c3b8-03a2-47c9-a7ed-3d3a86ce9b86" cx="756.94" cy="485.07" r="1.39"/><path class="a860c3b8-03a2-47c9-a7ed-3d3a86ce9b86" d="M775.05,446.22a1.39,1.39,0,1,1-1.39-1.39A1.39,1.39,0,0,1,775.05,446.22Z" transform="translate(0 38.85)"/><circle class="a860c3b8-03a2-47c9-a7ed-3d3a86ce9b86" cx="790.37" cy="485.07" r="1.39"/></g></g></g></svg>