<svg xmlns="http://www.w3.org/2000/svg" xmlns:xlink="http://www.w3.org/1999/xlink" viewBox="0 0 658.94 594.01"><defs><style>.a22c058a-83a1-47e5-b2cf-09890fa3a136{fill:none;}.a2bffeca-6560-49d4-97cd-b3ca871e396c{fill:#e6e1ff;}.ff4f1e84-208f-45d5-aebd-c12edbfb4f76{fill:#d2c9ff;}.b53bdb13-f47c-448e-a925-d4e1e0977f03{fill:#82e394;}.ab369115-b141-4860-8a0b-f8ef5bb19a6d{fill:#cec7ff;}.bb6028b7-4fa0-4856-9020-e70d237aa030{fill:#673ef9;}.abdc6a38-97c5-4e22-afdf-e43d570348c5{fill:#28215a;}.b1ab8ef8-e7ce-4038-a9ed-86792013c649{fill:#8585f9;}.e2efab98-4fda-467b-a55e-6fe29244f572{fill:#a8a2fc;}.a1515eb5-b74e-4be2-a5fb-bb2c419148fa{fill:#fff;}.ec4dbffc-0126-4989-b6a1-aace02aaadad{clip-path:url(#a87fa344-74aa-4cb0-8974-9721633ae764);}.acb70e3c-0d34-42db-bf61-05ee5aa8c570{clip-path:url(#f581208e-dfc9-45c3-a731-808c4f3b602b);}.ba8b6566-5d48-4faf-8f34-6914aaefa171{clip-path:url(#fe13bcfe-af5f-4f93-acd2-e1137e4ab5da);}.b18c2fed-e008-4213-adca-e8631a99a21a{clip-path:url(#a98e44d8-bbfc-44e4-8df8-c4835be91876);}</style><clipPath id="a87fa344-74aa-4cb0-8974-9721633ae764" transform="translate(-731.8 -190.54)"><rect class="a22c058a-83a1-47e5-b2cf-09890fa3a136" x="873.72" y="229.38" width="482.88" height="500"/></clipPath><clipPath id="f581208e-dfc9-45c3-a731-808c4f3b602b" transform="translate(-731.8 -190.54)"><path class="a22c058a-83a1-47e5-b2cf-09890fa3a136" d="M1349.88,555.28c-1,0-2,0-3-.13a33.63,33.63,0,0,1-22.82-11.92l-29.69-35.47A33.65,33.65,0,0,1,1346,464.57L1375.68,500a33.65,33.65,0,0,1-25.8,55.24Z"/></clipPath><clipPath id="fe13bcfe-af5f-4f93-acd2-e1137e4ab5da" transform="translate(-731.8 -190.54)"><path class="a22c058a-83a1-47e5-b2cf-09890fa3a136" d="M949.06,297.09c-1,0-2,0-3-.14A33.63,33.63,0,0,1,923.25,285l-29.68-35.46a33.65,33.65,0,0,1,51.61-43.19l29.68,35.46a33.66,33.66,0,0,1-25.8,55.25Z"/></clipPath><clipPath id="a98e44d8-bbfc-44e4-8df8-c4835be91876" transform="translate(-731.8 -190.54)"><path class="a22c058a-83a1-47e5-b2cf-09890fa3a136" d="M1067.5,780.77c-1,0-2,0-3-.14a33.55,33.55,0,0,1-22.82-11.92L1012,733.25a33.65,33.65,0,0,1,51.61-43.19l29.68,35.46a33.66,33.66,0,0,1-25.8,55.25Z"/></clipPath></defs><g id="b7f64621-e545-4d9c-b612-a2687d39add5" data-name="OBJECTS"><path class="a2bffeca-6560-49d4-97cd-b3ca871e396c" d="M1356.6,333.94V729.38h-76.66l-73.87-88.26-6.86-8.19-5.45-6.52-2.82-3.37-3.31-3.95-1.7-2-3.61-4.31c-.7-.83-1.39-1.67-2.06-2.51a171.91,171.91,0,0,1-33.08-66.32q-1.58-6.27-2.66-12.61-.72-4.15-1.23-8.33-.6-4.89-.92-9.79a173,173,0,0,1,55.94-139.09c1.71-1.56,3.45-3.1,5.24-4.6l.38-.32c.81-.68,1.63-1.35,2.45-2,1.66-1.34,3.34-2.64,5-3.92l1.87-1.37q3.87-2.82,7.84-5.38t8.3-5.06A172.47,172.47,0,0,1,1308.51,329,173.88,173.88,0,0,1,1356.6,333.94Z" transform="translate(-731.8 -190.54)"/><path class="a2bffeca-6560-49d4-97cd-b3ca871e396c" d="M1085.34,382.39a172.89,172.89,0,0,1-243.57-21.62l-110-131.39h414.27A172.72,172.72,0,0,1,1085.34,382.39Z" transform="translate(-731.8 -190.54)"/><path class="ff4f1e84-208f-45d5-aebd-c12edbfb4f76" d="M929.72,416.85a48.48,48.48,0,1,0-48.05,54.94c.82,0,1.64,0,2.45-.06a48.54,48.54,0,0,0,46-48.42A49.13,49.13,0,0,0,929.72,416.85ZM881.67,442a18.68,18.68,0,1,1,18.67-18.68A18.7,18.7,0,0,1,881.67,442Z" transform="translate(-731.8 -190.54)"/><path class="b53bdb13-f47c-448e-a925-d4e1e0977f03" d="M1342.36,402.37a20.94,20.94,0,0,1-8.16,4.23,21.14,21.14,0,0,1-21.65-6.87l-29.72-35.51-22.29-26.63L1170,229.38h55.19L1308.51,329l36.49,43.6A21.15,21.15,0,0,1,1342.36,402.37Z" transform="translate(-731.8 -190.54)"/><path class="ab369115-b141-4860-8a0b-f8ef5bb19a6d" d="M1356.6,433.37v65.94L1272,398.26a21.16,21.16,0,1,1,32.45-27.17l29.72,35.51Z" transform="translate(-731.8 -190.54)"/><path class="bb6028b7-4fa0-4856-9020-e70d237aa030" d="M1059.77,529.59a21.13,21.13,0,0,1-16.24-7.58l-168-200.73A21.16,21.16,0,0,1,908,294.11l168,200.74a21.16,21.16,0,0,1-16.21,34.74Z" transform="translate(-731.8 -190.54)"/><path class="ab369115-b141-4860-8a0b-f8ef5bb19a6d" d="M1027,529.92V585.1l-86,72L894.43,696a21.16,21.16,0,1,1-27.16-32.45Z" transform="translate(-731.8 -190.54)"/><path class="abdc6a38-97c5-4e22-afdf-e43d570348c5" d="M1019.36,590V645.2L966.9,689.11a21.16,21.16,0,1,1-27.16-32.46Z" transform="translate(-731.8 -190.54)"/><path class="ab369115-b141-4860-8a0b-f8ef5bb19a6d" d="M1229.42,351.43a138.53,138.53,0,0,0-84.75-71.75h0a138.29,138.29,0,0,0-39.11-5.6,138,138,0,0,0-132,98.33h0a137.52,137.52,0,0,0-5.49,32q-.19,3.69-.2,7.41V547q0,3.72.2,7.41a137.74,137.74,0,0,0,234.94,90q1.59-1.59,3.11-3.23A136.72,136.72,0,0,0,1243.3,547V411.82A137,137,0,0,0,1229.42,351.43ZM1105.56,665.68A118.72,118.72,0,0,1,988.11,564.32a116.56,116.56,0,0,1-1.23-14.68c0-.89,0-1.79,0-2.69V411.82c0-.9,0-1.8,0-2.69a116.88,116.88,0,0,1,1.23-14.71c.18-1.28.39-2.56.62-3.83a118.75,118.75,0,0,1,224.55-28.72,117.15,117.15,0,0,1,9.73,32.58,118.48,118.48,0,0,1,1.27,17.37V547a118.75,118.75,0,0,1-118.72,118.73Z" transform="translate(-731.8 -190.54)"/><path class="b1ab8ef8-e7ce-4038-a9ed-86792013c649" d="M1221.12,356.49a130.53,130.53,0,0,0-78.85-65.34h0A129.66,129.66,0,0,0,976.13,405.8c-.25,3.28-.37,6.59-.37,9.91V543.06q0,5,.37,9.91a129.8,129.8,0,0,0,221.21,81.87c.63-.63,1.25-1.27,1.87-1.91a128.87,128.87,0,0,0,36.15-89.87V415.71A129,129,0,0,0,1221.12,356.49Zm-3.68,186.57a111.88,111.88,0,0,1-223.7,3.47c0-1.15-.06-2.31-.06-3.47V415.71c0-1.16,0-2.32.06-3.47a109,109,0,0,1,1.32-14.09,111.91,111.91,0,0,1,211.32-31c.38.77.74,1.54,1.1,2.33a111.41,111.41,0,0,1,10,46.22Z" transform="translate(-731.8 -190.54)"/><path class="ab369115-b141-4860-8a0b-f8ef5bb19a6d" d="M1209.21,420.4v118a103.65,103.65,0,1,1-207.3,0v-118a103.65,103.65,0,1,1,207.3,0Z" transform="translate(-731.8 -190.54)"/><path class="a2bffeca-6560-49d4-97cd-b3ca871e396c" d="M1001.91,566.45h211.75s-14.68,82.4-110.09,80.15S1001.91,566.45,1001.91,566.45Z" transform="translate(-731.8 -190.54)"/><path class="e2efab98-4fda-467b-a55e-6fe29244f572" d="M1209.21,481.2v64.41l-149.89-72.72a52.74,52.74,0,0,1-26.44-29.3L1018.77,405a24.19,24.19,0,0,1,10.69,2.49l.06,0a24,24,0,0,1,8.11,6.51l11.3,14a80,80,0,0,0,27,21.64h0a79.75,79.75,0,0,0,18,6.3Z" transform="translate(-731.8 -190.54)"/><path class="a1515eb5-b74e-4be2-a5fb-bb2c419148fa" d="M1055.15,496.48h0a4.87,4.87,0,0,0,4.71,4.4l60.72,1.78L1084.31,485l-26.8,8A3.31,3.31,0,0,0,1055.15,496.48Z" transform="translate(-731.8 -190.54)"/><path class="a1515eb5-b74e-4be2-a5fb-bb2c419148fa" d="M1111.88,536.71h0a7.11,7.11,0,0,0,6.87,6.42l90.46,2.48L1155,519.38l-39.64,12.23A4.84,4.84,0,0,0,1111.88,536.71Z" transform="translate(-731.8 -190.54)"/><path class="bb6028b7-4fa0-4856-9020-e70d237aa030" d="M1055.14,455l-13.63,3.76a52.76,52.76,0,0,1-8.63-15.18L1018.77,405a24.19,24.19,0,0,1,10.69,2.49l.06,0Z" transform="translate(-731.8 -190.54)"/><path class="a1515eb5-b74e-4be2-a5fb-bb2c419148fa" d="M1209.21,481.2v33.58L1055.14,455l20.84-5.33h0a79.75,79.75,0,0,0,18,6.3Z" transform="translate(-731.8 -190.54)"/><path class="bb6028b7-4fa0-4856-9020-e70d237aa030" d="M1118.61,530.6l63,1.71L1155,519.38Z" transform="translate(-731.8 -190.54)"/><path class="bb6028b7-4fa0-4856-9020-e70d237aa030" d="M1061,491.94l42.55,2.5L1084.2,485Z" transform="translate(-731.8 -190.54)"/><path class="e2efab98-4fda-467b-a55e-6fe29244f572" d="M1223,394.45a117.82,117.82,0,0,0-8.44-25c-.3-.64-.61-1.28-.92-1.92l-.48-1c-.56-1.13-1.14-2.26-1.76-3.37-.43-.82-.88-1.63-1.35-2.44-.16-.3-.33-.59-.51-.88-.36-.63-.73-1.25-1.11-1.87s-.91-1.48-1.38-2.21c-.28-.45-.57-.89-.87-1.33-.08-.14-.18-.29-.28-.43l-1.18-1.74c-.39-.58-.8-1.15-1.21-1.73l-1.24-1.7q-2.74-3.74-5.83-7.26l-.7-.8q-.81-.93-1.65-1.83c-.54-.59-1.09-1.18-1.65-1.76s-1.23-1.27-1.86-1.9q-4.15-4.16-8.62-7.84c-.25-.21-.5-.42-.76-.62-1-.82-2-1.63-3.07-2.41l-1.46-1.1c-1.3-1-2.61-1.88-3.94-2.78l-1.2-.8c-.66-.44-1.33-.87-2-1.29s-1.5-.94-2.26-1.39-1.68-1-2.53-1.48c-.61-.35-1.23-.69-1.85-1s-1-.52-1.43-.77l-.33-.17c-.86-.46-1.73-.89-2.6-1.32l-.82-.4-1.55-.73q-2.06-1-4.14-1.83c-.36-.16-.72-.31-1.08-.44l-.09,0c-.5-.21-1-.41-1.52-.6-.74-.3-1.49-.58-2.24-.85-.5-.19-1-.37-1.51-.54a.11.11,0,0,0-.07,0c-.5-.18-1-.36-1.51-.52a.6.6,0,0,0-.19-.06l-1.36-.44s0,0,0,0,0,0,0,0l-1.8-.57c-.73-.22-1.45-.44-2.18-.64h-.06q-1-.28-2-.54c-.66-.18-1.33-.35-2-.51l-.09,0c-.59-.15-1.18-.29-1.78-.42a.32.32,0,0,0-.14,0l-1.21-.26c-2.32-.52-4.67-.95-7-1.31l-1.37-.2a1.25,1.25,0,0,0-.19,0c-.7-.1-1.41-.2-2.12-.28q-1.34-.17-2.7-.3l-1-.09c-.75-.07-1.5-.14-2.25-.19-1-.07-2-.14-3-.18s-1.91-.09-2.86-.11h-.13c-1,0-2,0-3,0a119.47,119.47,0,0,0-85,35.22c-.63.63-1.25,1.26-1.86,1.9s-1.22,1.29-1.82,1.94-.93,1-1.38,1.54c-.25.28-.51.57-.75.86-.47.52-.92,1-1.36,1.58s-1.13,1.35-1.67,2c-1.16,1.43-2.27,2.89-3.35,4.36-.41.56-.82,1.13-1.22,1.7l-.16.23q-.74,1-1.44,2.1c-.51.76-1,1.53-1.51,2.3s-.9,1.43-1.33,2.15q-1.27,2.08-2.44,4.21-.32.56-.6,1.11c-.57,1-1.11,2.06-1.62,3.1-.18.34-.35.69-.52,1-.32.66-.64,1.32-1,2a119,119,0,0,0-7.61,21.35c-.29,1.19-.57,2.38-.83,3.58a119.86,119.86,0,0,0-2.24,14.32q-.55,5.77-.56,11.66v118q0,5.88.56,11.66a120.25,120.25,0,0,0,204.72,73.37l.35-.36A119.31,119.31,0,0,0,1223,564.32a120.92,120.92,0,0,0,2.8-26v-118A120.92,120.92,0,0,0,1223,394.45ZM1001.93,540.59c0-.74,0-1.48,0-2.22v-118c0-.74,0-1.48,0-2.22l0-.94v-.08c0-.54,0-1.09.06-1.63,0-.12,0-.23,0-.35,0-.66.07-1.32.12-2,0-.23,0-.47.05-.71s0-.48.06-.71c.05-.67.11-1.33.18-2s.11-1.11.19-1.66a.49.49,0,0,1,0-.12c0-.24.05-.47.08-.71.11-.85.22-1.7.35-2.54.06-.39.12-.78.19-1.16,0-.05,0-.09,0-.14.07-.47.15-1,.24-1.42.28-1.61.61-3.2,1-4.79,0-.17.07-.34.12-.5.14-.62.29-1.23.44-1.83.07-.26.13-.51.2-.76q.24-.94.51-1.89c.22-.79.45-1.57.69-2.35.12-.41.25-.81.39-1.21s.33-1.05.51-1.57q.39-1.15.81-2.31c0-.12.09-.24.14-.36s.05-.15.08-.22c.2-.55.41-1.1.62-1.64,0-.06,0-.11.07-.17l.09-.23s0,0,0,0a1.22,1.22,0,0,1,.07-.17l.06-.14c0-.09.07-.17.1-.26.21-.53.42-1.06.65-1.58s.49-1.14.75-1.7a1.22,1.22,0,0,1,.07-.17s0,0,0-.05l.08-.18,0-.07c.28-.63.57-1.25.86-1.87l.09-.19c.18-.39.37-.77.56-1.15,0-.09.09-.17.13-.26.14-.28.28-.57.43-.85.26-.53.54-1.06.82-1.58l.22-.42q.54-1.05,1.14-2.07c.28-.49.56-1,.85-1.47.62-1.06,1.26-2.11,1.91-3.14.25-.39.5-.79.76-1.17.62-.95,1.25-1.88,1.89-2.8.3-.43.61-.85.91-1.27l.18-.25.08-.11.09-.13.24-.32,0,0h0l.46-.6c.52-.69,1-1.37,1.58-2.05l1-1.26h0c.27-.34.54-.66.82-1s.79-.94,1.19-1.4,1-1.18,1.57-1.77.88-1,1.33-1.43.89-.94,1.35-1.4.91-.93,1.38-1.38.93-.91,1.4-1.36.9-.85,1.36-1.26l.54-.49.13-.12c.46-.42.92-.84,1.4-1.24s1.1-.95,1.67-1.42l.09-.07c.2-.17.41-.35.63-.52.48-.39,1-.78,1.45-1.16s1.12-.88,1.69-1.31l.42-.31c.55-.42,1.12-.83,1.69-1.23l.56-.4,1.6-1.11.13-.09c.66-.44,1.34-.89,2-1.32h0c.7-.45,1.41-.89,2.12-1.32s1.43-.86,2.16-1.28l0,0c.68-.39,1.37-.77,2.06-1.15l.15-.08,2-1c.18-.1.37-.19.56-.28.45-.24.92-.47,1.39-.69l.75-.37.08,0c.64-.31,1.29-.61,1.94-.9l.19-.09L1065,325l.67-.28,0,0,.06,0c.59-.25,1.21-.5,1.81-.73q1.18-.46,2.37-.9c.8-.29,1.6-.58,2.4-.84s1.42-.48,2.13-.7l.24-.07.14-.05c.73-.23,1.47-.45,2.21-.66l.22-.06,2-.55.63-.16,1.86-.46.88-.2c.67-.15,1.35-.3,2-.43.84-.18,1.69-.34,2.54-.49s1.55-.27,2.33-.39l.66-.1c.6-.09,1.21-.18,1.82-.25l.76-.1.26,0,1.92-.21c.78-.08,1.55-.15,2.33-.21l.94-.07,1.91-.12,1,0,1.17,0,1.44,0,1.83,0c.76,0,1.51,0,2.26,0q.6,0,1.2,0l1.3.05,1.3.07h.23l1.41.09.5,0c1.56.12,3.11.28,4.65.47.38.05.75.09,1.12.15l2.08.29c.77.12,1.54.25,2.3.39l1.7.32.4.08,1.17.24.68.15,1.43.32,1.43.35,1.56.4h0c1.12.3,2.23.61,3.33.95l1.22.37.18.06.62.2c.83.27,1.66.55,2.49.85.46.16.92.32,1.38.5s1,.36,1.45.55l1.1.43.38.15.19.08.17.07.65.26,1.29.55.65.29h0c.3.13.62.26.92.41l1.57.73,1.11.54,1.71.85c.74.38,1.48.77,2.21,1.17.53.29,1.07.58,1.6.89l1,.55c1.1.64,2.19,1.3,3.26,2l1.24.79.75.49.25.17,1,.64,1.11.77.94.67c.39.28.78.56,1.17.86.23.16.45.33.67.5l1.39,1.06c.75.58,1.48,1.17,2.21,1.77l.07.06c.63.52,1.24,1,1.85,1.57s1.08.94,1.61,1.43,1.31,1.19,2,1.8,1.27,1.23,1.9,1.85c.41.42.82.83,1.23,1.26.27.28.55.56.82.85l.15.16.1.11.39.42.16.18c.27.28.52.56.78.85.88,1,1.74,2,2.59,3l.14.17v0c.22.25.43.5.63.76.4.48.79,1,1.17,1.46l.42.54.42.54.07.09.24.31.09.12,0,0c.29.39.59.78.87,1.17q1,1.42,2,2.88c.26.37.51.75.76,1.13l.06.08.12.18.12.18c.15.22.29.46.44.69l.44.69c.64,1,1.25,2,1.85,3,.3.51.59,1,.88,1.53s.68,1.2,1,1.81a.75.75,0,0,1,.07.12c.17.32.35.65.51,1,.28.51.55,1,.8,1.56a.83.83,0,0,1,.07.13l.09.18.09.19c.13.25.25.5.37.75s.25.51.37.77l.12.25c.24.5.47,1,.7,1.51s.54,1.21.8,1.82.62,1.46.91,2.2c.21.52.42,1.05.62,1.58.1.25.2.51.29.76v0c.15.39.29.78.43,1.17.53,1.46,1,2.94,1.49,4.43.16.51.31,1,.46,1.53l.06.23c.13.41.24.82.35,1.23,0,.12.07.25.11.38s.09.32.13.49c.11.39.21.79.31,1.18.2.79.39,1.58.58,2.38s.29,1.32.43,2c0,.12,0,.23.07.35.17.79.32,1.59.46,2.39,0,0,0,0,0,.06l0,.17,0,.17s0,0,0,0c.13.66.23,1.35.34,2,0,.24.07.48.11.73.06.44.13.88.18,1.32s.1.73.14,1.09c.2,1.57.36,3.14.48,4.73,0,.14,0,.29,0,.44,0,.65.09,1.31.12,2,0,.27,0,.54,0,.8,0,.62.06,1.24.07,1.86,0,.29,0,.57,0,.86a1.09,1.09,0,0,1,0,.18c0,.69,0,1.38,0,2.07v118c0,.8,0,1.59,0,2.38,0,.24,0,.48,0,.72v.19l-.06,1.47c0,.62-.06,1.24-.1,1.86l0,.5s0,.07,0,.11a.34.34,0,0,1,0,.1c0,.58-.08,1.15-.14,1.72,0,.05,0,.1,0,.15,0,.41-.07.81-.11,1.21,0,.21,0,.41-.07.61l0,.33c0,.54-.11,1.09-.18,1.62l0,.23c-.07.57-.15,1.14-.24,1.7,0,.12,0,.24-.05.36l-.12.81s0,.06,0,.09c-.07.43-.14.86-.22,1.29a5.07,5.07,0,0,1-.09.54c-.06.36-.12.72-.2,1.08,0,0,0,0,0,.06-.1.59-.21,1.18-.34,1.76s-.26,1.27-.41,1.9c0,.12,0,.24-.08.36s-.11.48-.16.71c0,0,0,.06,0,.09-.11.47-.23.94-.34,1.4-.07.29-.15.58-.22.86-.14.55-.29,1.09-.45,1.64l-.06.23c-.09.33-.19.66-.29,1-.17.6-.35,1.2-.53,1.8-.25.8-.51,1.59-.78,2.38s-.44,1.28-.67,1.92a1.34,1.34,0,0,0-.07.18c-.06.17-.12.35-.19.52-.25.69-.51,1.38-.78,2.06l-.06.14c-.27.69-.55,1.38-.84,2.06-.07.19-.15.37-.23.55q-.42,1-.87,2c-.3.66-.6,1.32-.91,2l-.26.52-.12.25s0,0,0,.05c-.28.58-.57,1.17-.87,1.74q-.57,1.11-1.17,2.22c-.39.73-.8,1.46-1.22,2.19l0,.08c-.4.69-.81,1.38-1.24,2.07-.84,1.4-1.73,2.78-2.64,4.14-.36.53-.72,1-1.09,1.57-.23.34-.47.67-.71,1q-.55.78-1.14,1.56c-.45.6-.91,1.2-1.38,1.79l-.38.49c-.38.49-.77,1-1.18,1.46-.15.19-.3.38-.46.56h0c-.4.48-.81,1-1.22,1.44l-.11.13c-.48.56-1,1.11-1.46,1.65l-.14.15c-.38.42-.76.83-1.15,1.24l-.05.06-.2.21-.57.59,0,.06q-1.63,1.69-3.34,3.32l-1.06,1c-.51.47-1,.94-1.54,1.39s-.89.79-1.34,1.17c-.17.15-.34.3-.51.43s-.63.54-1,.81l-.35.28c-.32.27-.64.52-1,.77s-.77.62-1.16.92l-.35.27c-.6.47-1.2.92-1.81,1.36l-.24.18-.28.2c-.38.27-.75.55-1.13.81l-1.17.81q-.6.42-1.2.81l-.51.34-.16.1c-.41.28-.82.54-1.24.8s-.78.5-1.17.73c-.62.39-1.25.77-1.88,1.13s-1.16.68-1.75,1a.65.65,0,0,1-.16.09c-.64.37-1.29.72-2,1.07-.15.08-.31.17-.47.24-.61.33-1.22.64-1.84.94l-.39.2-.18.09-.18.09q-.6.3-1.2.57t-1.23.57c-.26.13-.53.25-.79.36-.5.23-1,.44-1.5.65l-.86.37-1.27.52-1.2.47c-.5.2-1,.39-1.51.57-.25.1-.49.19-.74.27-.6.22-1.2.43-1.81.63l-.2.07c-.54.18-1.09.37-1.64.53l-.4.13-.08,0-.06,0-.28.09-1.46.44-.3.08-.86.25-1.12.3-.52.15c-.8.21-1.61.41-2.42.6-.52.13-1,.25-1.57.35s-1,.23-1.52.33c-.78.16-1.57.32-2.36.46s-1.57.27-2.35.39l-.86.13-.23,0h-.09l-1.47.2c-.5.07-1,.13-1.51.18h-.11l-.14,0c-.39.06-.79.09-1.17.13-.74.08-1.46.14-2.19.2h-.23c-.9.07-1.8.13-2.71.18h-.14c-1.76.08-3.54.13-5.33.13l-2.23,0-1.2,0-1.36-.05-1.46-.08-.81-.05h-.14l-1.2-.09h-.06c-.58,0-1.16-.1-1.73-.16s-1.09-.11-1.63-.18c-1-.09-1.89-.21-2.83-.35l-.8-.11-1.19-.19-1.3-.22-.77-.14c-.73-.13-1.46-.27-2.18-.42s-1.32-.27-2-.42l-.09,0h-.06l-.15,0c-.59-.13-1.17-.27-1.75-.42l-.43-.1h0l-.12,0-.09,0-2.27-.61c-.48-.13-1-.27-1.45-.42l-.11,0-.68-.2-.17-.06c-.34-.09-.69-.2-1-.32l-.2-.06-1.22-.4-.26-.09a3.24,3.24,0,0,1-.41-.13c-.49-.16-1-.33-1.46-.51l-.24-.09c-.37-.12-.73-.26-1.1-.4-.61-.22-1.22-.45-1.82-.69s-1.49-.6-2.23-.91l-.42-.19-.23-.1-.17-.07c-.31-.12-.62-.26-.92-.4l-.06,0-.2-.09c-.64-.27-1.27-.57-1.9-.87-.41-.18-.82-.38-1.22-.58-1.31-.63-2.6-1.3-3.87-2l-1-.58c-.53-.29-1.07-.59-1.6-.9l0,0c-.54-.3-1.07-.62-1.59-.94l-.45-.28c-.45-.26-.88-.54-1.32-.82s-.72-.45-1.08-.69q-2.61-1.68-5.11-3.54l-1.33-1c-.49-.37-1-.74-1.46-1.14s-1.06-.84-1.59-1.27l-.09-.08c-.63-.52-1.26-1.05-1.88-1.59s-1.44-1.27-2.15-1.92c-.18-.16-.36-.32-.53-.49l-.07-.06-.25-.24c-.44-.4-.86-.81-1.29-1.23l-.66-.64,0,0c-.41-.4-.82-.81-1.21-1.22s-.56-.57-.83-.85l-.5-.52c-.46-.48-.91-1-1.35-1.46l-.06-.06c-.53-.59-1.07-1.19-1.59-1.8s-1-1.1-1.4-1.66l-.45-.53-.06-.08c-.41-.5-.81-1-1.21-1.51l-.23-.29c-.38-.49-.76-1-1.13-1.48l-1.46-2c-.48-.67-1-1.34-1.41-2-.34-.49-.67-1-1-1.48s-.54-.81-.79-1.22l-.15-.23c-.34-.53-.68-1.07-1-1.61s-.72-1.2-1.07-1.8-.52-.89-.76-1.35a1.74,1.74,0,0,1-.11-.18l0,0-.3-.53,0-.1c-.4-.73-.79-1.46-1.17-2.2-.24-.46-.48-.92-.7-1.39-.12-.22-.23-.45-.33-.67s-.32-.63-.46-1c-.29-.58-.56-1.17-.83-1.77l-.09-.2c-.28-.61-.55-1.22-.81-1.85l0-.1c-.79-1.83-1.52-3.7-2.2-5.59-.17-.48-.35-1-.51-1.46-.07-.2-.14-.41-.2-.61l-.09-.25c-.13-.37-.25-.75-.37-1.13l-.09-.31c-.09-.23-.16-.48-.23-.72v0c-.14-.46-.28-.92-.41-1.38s-.21-.71-.31-1.07c-.22-.79-.43-1.58-.64-2.37s-.35-1.42-.52-2.13c0-.13-.06-.25-.08-.38s-.07-.28-.1-.42c-.14-.63-.28-1.26-.4-1.89-.18-.84-.34-1.69-.49-2.54s-.26-1.48-.37-2.22l-.12-.79c-.09-.59-.18-1.18-.25-1.78,0-.26-.07-.52-.1-.78-.09-.73-.17-1.45-.24-2.18s-.13-1.3-.18-2c0,0,0-.1,0-.15s0-.31,0-.46c0-.35-.06-.69-.07-1a1.94,1.94,0,0,1,0-.24l0-.49c0-.45-.05-.9-.08-1.34l-.06-1.69v-.08Z" transform="translate(-731.8 -190.54)"/><path class="abdc6a38-97c5-4e22-afdf-e43d570348c5" d="M1190.59,335.36a120.39,120.39,0,0,0-194,34.13h218A120.46,120.46,0,0,0,1190.59,335.36Z" transform="translate(-731.8 -190.54)"/><path class="b1ab8ef8-e7ce-4038-a9ed-86792013c649" d="M1118,353.23h-24.79a5.77,5.77,0,0,1-5.76-5.76h0a5.78,5.78,0,0,1,5.76-5.77H1118a5.78,5.78,0,0,1,5.76,5.77h0A5.77,5.77,0,0,1,1118,353.23Z" transform="translate(-731.8 -190.54)"/><g class="ec4dbffc-0126-4989-b6a1-aace02aaadad"><g class="acb70e3c-0d34-42db-bf61-05ee5aa8c570"><path class="abdc6a38-97c5-4e22-afdf-e43d570348c5" d="M1282.11,557.68a1.39,1.39,0,1,1-1.39-1.39A1.38,1.38,0,0,1,1282.11,557.68Z" transform="translate(-731.8 -190.54)"/><path class="abdc6a38-97c5-4e22-afdf-e43d570348c5" d="M1298.83,557.68a1.39,1.39,0,1,1-1.39-1.39A1.39,1.39,0,0,1,1298.83,557.68Z" transform="translate(-731.8 -190.54)"/><path class="abdc6a38-97c5-4e22-afdf-e43d570348c5" d="M1315.54,557.68a1.39,1.39,0,1,1-1.39-1.39A1.38,1.38,0,0,1,1315.54,557.68Z" transform="translate(-731.8 -190.54)"/><path class="abdc6a38-97c5-4e22-afdf-e43d570348c5" d="M1332.26,557.68a1.39,1.39,0,1,1-1.39-1.39A1.39,1.39,0,0,1,1332.26,557.68Z" transform="translate(-731.8 -190.54)"/><path class="abdc6a38-97c5-4e22-afdf-e43d570348c5" d="M1349,557.68a1.39,1.39,0,1,1-1.39-1.39A1.38,1.38,0,0,1,1349,557.68Z" transform="translate(-731.8 -190.54)"/><path class="abdc6a38-97c5-4e22-afdf-e43d570348c5" d="M1365.69,557.68a1.39,1.39,0,1,1-1.39-1.39A1.39,1.39,0,0,1,1365.69,557.68Z" transform="translate(-731.8 -190.54)"/><path class="abdc6a38-97c5-4e22-afdf-e43d570348c5" d="M1382.4,557.68a1.39,1.39,0,1,1-1.39-1.39A1.38,1.38,0,0,1,1382.4,557.68Z" transform="translate(-731.8 -190.54)"/><circle class="abdc6a38-97c5-4e22-afdf-e43d570348c5" cx="557.26" cy="358.44" r="1.39"/><path class="abdc6a38-97c5-4e22-afdf-e43d570348c5" d="M1307.17,549a1.39,1.39,0,1,1-1.39-1.39A1.39,1.39,0,0,1,1307.17,549Z" transform="translate(-731.8 -190.54)"/><circle class="abdc6a38-97c5-4e22-afdf-e43d570348c5" cx="590.69" cy="358.44" r="1.39"/><path class="abdc6a38-97c5-4e22-afdf-e43d570348c5" d="M1340.59,549a1.39,1.39,0,1,1-1.38-1.39A1.38,1.38,0,0,1,1340.59,549Z" transform="translate(-731.8 -190.54)"/><path class="abdc6a38-97c5-4e22-afdf-e43d570348c5" d="M1357.31,549a1.39,1.39,0,1,1-1.39-1.39A1.39,1.39,0,0,1,1357.31,549Z" transform="translate(-731.8 -190.54)"/><circle class="abdc6a38-97c5-4e22-afdf-e43d570348c5" cx="640.84" cy="358.44" r="1.39"/><path class="abdc6a38-97c5-4e22-afdf-e43d570348c5" d="M1390.74,549a1.39,1.39,0,1,1-1.39-1.39A1.39,1.39,0,0,1,1390.74,549Z" transform="translate(-731.8 -190.54)"/><path class="abdc6a38-97c5-4e22-afdf-e43d570348c5" d="M1282.11,541.2a1.39,1.39,0,1,1-1.39-1.39A1.39,1.39,0,0,1,1282.11,541.2Z" transform="translate(-731.8 -190.54)"/><path class="abdc6a38-97c5-4e22-afdf-e43d570348c5" d="M1298.83,541.2a1.39,1.39,0,1,1-1.39-1.39A1.39,1.39,0,0,1,1298.83,541.2Z" transform="translate(-731.8 -190.54)"/><path class="abdc6a38-97c5-4e22-afdf-e43d570348c5" d="M1315.54,541.2a1.39,1.39,0,1,1-1.39-1.39A1.39,1.39,0,0,1,1315.54,541.2Z" transform="translate(-731.8 -190.54)"/><path class="abdc6a38-97c5-4e22-afdf-e43d570348c5" d="M1332.26,541.2a1.39,1.39,0,1,1-1.39-1.39A1.39,1.39,0,0,1,1332.26,541.2Z" transform="translate(-731.8 -190.54)"/><path class="abdc6a38-97c5-4e22-afdf-e43d570348c5" d="M1349,541.2a1.39,1.39,0,1,1-1.39-1.39A1.39,1.39,0,0,1,1349,541.2Z" transform="translate(-731.8 -190.54)"/><path class="abdc6a38-97c5-4e22-afdf-e43d570348c5" d="M1365.69,541.2a1.39,1.39,0,1,1-1.39-1.39A1.39,1.39,0,0,1,1365.69,541.2Z" transform="translate(-731.8 -190.54)"/><path class="abdc6a38-97c5-4e22-afdf-e43d570348c5" d="M1382.4,541.2a1.39,1.39,0,1,1-1.39-1.39A1.39,1.39,0,0,1,1382.4,541.2Z" transform="translate(-731.8 -190.54)"/><path class="abdc6a38-97c5-4e22-afdf-e43d570348c5" d="M1290.45,532.5a1.39,1.39,0,1,1-1.39-1.39A1.39,1.39,0,0,1,1290.45,532.5Z" transform="translate(-731.8 -190.54)"/><path class="abdc6a38-97c5-4e22-afdf-e43d570348c5" d="M1307.17,532.5a1.39,1.39,0,1,1-1.39-1.39A1.39,1.39,0,0,1,1307.17,532.5Z" transform="translate(-731.8 -190.54)"/><path class="abdc6a38-97c5-4e22-afdf-e43d570348c5" d="M1323.88,532.5a1.39,1.39,0,1,1-1.39-1.39A1.39,1.39,0,0,1,1323.88,532.5Z" transform="translate(-731.8 -190.54)"/><path class="abdc6a38-97c5-4e22-afdf-e43d570348c5" d="M1340.59,532.5a1.39,1.39,0,1,1-1.38-1.39A1.38,1.38,0,0,1,1340.59,532.5Z" transform="translate(-731.8 -190.54)"/><path class="abdc6a38-97c5-4e22-afdf-e43d570348c5" d="M1357.31,532.5a1.39,1.39,0,1,1-1.39-1.39A1.39,1.39,0,0,1,1357.31,532.5Z" transform="translate(-731.8 -190.54)"/><path class="abdc6a38-97c5-4e22-afdf-e43d570348c5" d="M1374,532.5a1.39,1.39,0,1,1-1.39-1.39A1.39,1.39,0,0,1,1374,532.5Z" transform="translate(-731.8 -190.54)"/><path class="abdc6a38-97c5-4e22-afdf-e43d570348c5" d="M1390.74,532.5a1.39,1.39,0,1,1-1.39-1.39A1.39,1.39,0,0,1,1390.74,532.5Z" transform="translate(-731.8 -190.54)"/><circle class="abdc6a38-97c5-4e22-afdf-e43d570348c5" cx="548.92" cy="334.18" r="1.39"/><path class="abdc6a38-97c5-4e22-afdf-e43d570348c5" d="M1298.83,524.72a1.39,1.39,0,1,1-1.39-1.39A1.39,1.39,0,0,1,1298.83,524.72Z" transform="translate(-731.8 -190.54)"/><circle class="abdc6a38-97c5-4e22-afdf-e43d570348c5" cx="582.35" cy="334.18" r="1.39"/><path class="abdc6a38-97c5-4e22-afdf-e43d570348c5" d="M1332.26,524.72a1.39,1.39,0,1,1-1.39-1.39A1.39,1.39,0,0,1,1332.26,524.72Z" transform="translate(-731.8 -190.54)"/><circle class="abdc6a38-97c5-4e22-afdf-e43d570348c5" cx="615.78" cy="334.18" r="1.39"/><path class="abdc6a38-97c5-4e22-afdf-e43d570348c5" d="M1365.69,524.72a1.39,1.39,0,1,1-1.39-1.39A1.39,1.39,0,0,1,1365.69,524.72Z" transform="translate(-731.8 -190.54)"/><path class="abdc6a38-97c5-4e22-afdf-e43d570348c5" d="M1382.4,524.72a1.39,1.39,0,1,1-1.39-1.39A1.39,1.39,0,0,1,1382.4,524.72Z" transform="translate(-731.8 -190.54)"/><circle class="abdc6a38-97c5-4e22-afdf-e43d570348c5" cx="557.26" cy="325.49" r="1.39"/><path class="abdc6a38-97c5-4e22-afdf-e43d570348c5" d="M1307.17,516a1.39,1.39,0,1,1-1.39-1.39A1.39,1.39,0,0,1,1307.17,516Z" transform="translate(-731.8 -190.54)"/><circle class="abdc6a38-97c5-4e22-afdf-e43d570348c5" cx="590.69" cy="325.49" r="1.39"/><path class="abdc6a38-97c5-4e22-afdf-e43d570348c5" d="M1340.59,516a1.39,1.39,0,1,1-1.38-1.39A1.38,1.38,0,0,1,1340.59,516Z" transform="translate(-731.8 -190.54)"/><path class="abdc6a38-97c5-4e22-afdf-e43d570348c5" d="M1357.31,516a1.39,1.39,0,1,1-1.39-1.39A1.39,1.39,0,0,1,1357.31,516Z" transform="translate(-731.8 -190.54)"/><circle class="abdc6a38-97c5-4e22-afdf-e43d570348c5" cx="640.84" cy="325.49" r="1.39"/><path class="abdc6a38-97c5-4e22-afdf-e43d570348c5" d="M1390.74,516a1.39,1.39,0,1,1-1.39-1.39A1.39,1.39,0,0,1,1390.74,516Z" transform="translate(-731.8 -190.54)"/><circle class="abdc6a38-97c5-4e22-afdf-e43d570348c5" cx="548.92" cy="317.71" r="1.39"/><path class="abdc6a38-97c5-4e22-afdf-e43d570348c5" d="M1298.83,508.25a1.39,1.39,0,1,1-1.39-1.39A1.4,1.4,0,0,1,1298.83,508.25Z" transform="translate(-731.8 -190.54)"/><circle class="abdc6a38-97c5-4e22-afdf-e43d570348c5" cx="582.35" cy="317.71" r="1.39"/><path class="abdc6a38-97c5-4e22-afdf-e43d570348c5" d="M1332.26,508.25a1.39,1.39,0,1,1-1.39-1.39A1.4,1.4,0,0,1,1332.26,508.25Z" transform="translate(-731.8 -190.54)"/><circle class="abdc6a38-97c5-4e22-afdf-e43d570348c5" cx="615.78" cy="317.71" r="1.39"/><path class="abdc6a38-97c5-4e22-afdf-e43d570348c5" d="M1365.69,508.25a1.39,1.39,0,1,1-1.39-1.39A1.4,1.4,0,0,1,1365.69,508.25Z" transform="translate(-731.8 -190.54)"/><path class="abdc6a38-97c5-4e22-afdf-e43d570348c5" d="M1382.4,508.25a1.39,1.39,0,1,1-1.39-1.39A1.39,1.39,0,0,1,1382.4,508.25Z" transform="translate(-731.8 -190.54)"/><circle class="abdc6a38-97c5-4e22-afdf-e43d570348c5" cx="557.26" cy="309.01" r="1.39"/><path class="abdc6a38-97c5-4e22-afdf-e43d570348c5" d="M1307.17,499.55a1.39,1.39,0,1,1-1.39-1.39A1.39,1.39,0,0,1,1307.17,499.55Z" transform="translate(-731.8 -190.54)"/><circle class="abdc6a38-97c5-4e22-afdf-e43d570348c5" cx="590.69" cy="309.01" r="1.39"/><path class="abdc6a38-97c5-4e22-afdf-e43d570348c5" d="M1340.59,499.55a1.39,1.39,0,1,1-1.38-1.39A1.38,1.38,0,0,1,1340.59,499.55Z" transform="translate(-731.8 -190.54)"/><path class="abdc6a38-97c5-4e22-afdf-e43d570348c5" d="M1357.31,499.55a1.39,1.39,0,1,1-1.39-1.39A1.39,1.39,0,0,1,1357.31,499.55Z" transform="translate(-731.8 -190.54)"/><circle class="abdc6a38-97c5-4e22-afdf-e43d570348c5" cx="640.84" cy="309.01" r="1.39"/><path class="abdc6a38-97c5-4e22-afdf-e43d570348c5" d="M1390.74,499.55a1.39,1.39,0,1,1-1.39-1.39A1.39,1.39,0,0,1,1390.74,499.55Z" transform="translate(-731.8 -190.54)"/><path class="abdc6a38-97c5-4e22-afdf-e43d570348c5" d="M1282.11,491.77a1.39,1.39,0,1,1-1.39-1.39A1.39,1.39,0,0,1,1282.11,491.77Z" transform="translate(-731.8 -190.54)"/><path class="abdc6a38-97c5-4e22-afdf-e43d570348c5" d="M1298.83,491.77a1.39,1.39,0,1,1-1.39-1.39A1.39,1.39,0,0,1,1298.83,491.77Z" transform="translate(-731.8 -190.54)"/><path class="abdc6a38-97c5-4e22-afdf-e43d570348c5" d="M1315.54,491.77a1.39,1.39,0,1,1-1.39-1.39A1.39,1.39,0,0,1,1315.54,491.77Z" transform="translate(-731.8 -190.54)"/><path class="abdc6a38-97c5-4e22-afdf-e43d570348c5" d="M1332.26,491.77a1.39,1.39,0,1,1-1.39-1.39A1.39,1.39,0,0,1,1332.26,491.77Z" transform="translate(-731.8 -190.54)"/><path class="abdc6a38-97c5-4e22-afdf-e43d570348c5" d="M1349,491.77a1.39,1.39,0,1,1-1.39-1.39A1.39,1.39,0,0,1,1349,491.77Z" transform="translate(-731.8 -190.54)"/><path class="abdc6a38-97c5-4e22-afdf-e43d570348c5" d="M1365.69,491.77a1.39,1.39,0,1,1-1.39-1.39A1.39,1.39,0,0,1,1365.69,491.77Z" transform="translate(-731.8 -190.54)"/><path class="abdc6a38-97c5-4e22-afdf-e43d570348c5" d="M1382.4,491.77a1.39,1.39,0,1,1-1.39-1.39A1.39,1.39,0,0,1,1382.4,491.77Z" transform="translate(-731.8 -190.54)"/><path class="abdc6a38-97c5-4e22-afdf-e43d570348c5" d="M1290.45,483.07a1.39,1.39,0,1,1-1.39-1.38A1.39,1.39,0,0,1,1290.45,483.07Z" transform="translate(-731.8 -190.54)"/><path class="abdc6a38-97c5-4e22-afdf-e43d570348c5" d="M1307.17,483.07a1.39,1.39,0,1,1-1.39-1.38A1.39,1.39,0,0,1,1307.17,483.07Z" transform="translate(-731.8 -190.54)"/><path class="abdc6a38-97c5-4e22-afdf-e43d570348c5" d="M1323.88,483.07a1.39,1.39,0,1,1-1.39-1.38A1.39,1.39,0,0,1,1323.88,483.07Z" transform="translate(-731.8 -190.54)"/><path class="abdc6a38-97c5-4e22-afdf-e43d570348c5" d="M1340.59,483.07a1.39,1.39,0,1,1-1.38-1.38A1.38,1.38,0,0,1,1340.59,483.07Z" transform="translate(-731.8 -190.54)"/><path class="abdc6a38-97c5-4e22-afdf-e43d570348c5" d="M1357.31,483.07a1.39,1.39,0,1,1-1.39-1.38A1.39,1.39,0,0,1,1357.31,483.07Z" transform="translate(-731.8 -190.54)"/><path class="abdc6a38-97c5-4e22-afdf-e43d570348c5" d="M1374,483.07a1.39,1.39,0,1,1-1.39-1.38A1.39,1.39,0,0,1,1374,483.07Z" transform="translate(-731.8 -190.54)"/><path class="abdc6a38-97c5-4e22-afdf-e43d570348c5" d="M1390.74,483.07a1.39,1.39,0,1,1-1.39-1.38A1.39,1.39,0,0,1,1390.74,483.07Z" transform="translate(-731.8 -190.54)"/><circle class="abdc6a38-97c5-4e22-afdf-e43d570348c5" cx="548.92" cy="284.75" r="1.39"/><path class="abdc6a38-97c5-4e22-afdf-e43d570348c5" d="M1298.83,475.29a1.39,1.39,0,1,1-1.39-1.39A1.39,1.39,0,0,1,1298.83,475.29Z" transform="translate(-731.8 -190.54)"/><circle class="abdc6a38-97c5-4e22-afdf-e43d570348c5" cx="582.35" cy="284.75" r="1.39"/><path class="abdc6a38-97c5-4e22-afdf-e43d570348c5" d="M1332.26,475.29a1.39,1.39,0,1,1-1.39-1.39A1.39,1.39,0,0,1,1332.26,475.29Z" transform="translate(-731.8 -190.54)"/><circle class="abdc6a38-97c5-4e22-afdf-e43d570348c5" cx="615.78" cy="284.75" r="1.39"/><path class="abdc6a38-97c5-4e22-afdf-e43d570348c5" d="M1365.69,475.29a1.39,1.39,0,1,1-1.39-1.39A1.39,1.39,0,0,1,1365.69,475.29Z" transform="translate(-731.8 -190.54)"/><path class="abdc6a38-97c5-4e22-afdf-e43d570348c5" d="M1382.4,475.29a1.39,1.39,0,1,1-1.39-1.39A1.39,1.39,0,0,1,1382.4,475.29Z" transform="translate(-731.8 -190.54)"/><path class="abdc6a38-97c5-4e22-afdf-e43d570348c5" d="M1290.45,466.6a1.39,1.39,0,1,1-1.39-1.39A1.39,1.39,0,0,1,1290.45,466.6Z" transform="translate(-731.8 -190.54)"/><path class="abdc6a38-97c5-4e22-afdf-e43d570348c5" d="M1307.17,466.6a1.39,1.39,0,1,1-1.39-1.39A1.39,1.39,0,0,1,1307.17,466.6Z" transform="translate(-731.8 -190.54)"/><path class="abdc6a38-97c5-4e22-afdf-e43d570348c5" d="M1323.88,466.6a1.39,1.39,0,1,1-1.39-1.39A1.39,1.39,0,0,1,1323.88,466.6Z" transform="translate(-731.8 -190.54)"/><path class="abdc6a38-97c5-4e22-afdf-e43d570348c5" d="M1340.59,466.6a1.39,1.39,0,1,1-1.38-1.39A1.38,1.38,0,0,1,1340.59,466.6Z" transform="translate(-731.8 -190.54)"/><path class="abdc6a38-97c5-4e22-afdf-e43d570348c5" d="M1357.31,466.6a1.39,1.39,0,1,1-1.39-1.39A1.39,1.39,0,0,1,1357.31,466.6Z" transform="translate(-731.8 -190.54)"/><path class="abdc6a38-97c5-4e22-afdf-e43d570348c5" d="M1374,466.6a1.39,1.39,0,1,1-1.39-1.39A1.39,1.39,0,0,1,1374,466.6Z" transform="translate(-731.8 -190.54)"/><path class="abdc6a38-97c5-4e22-afdf-e43d570348c5" d="M1390.74,466.6a1.39,1.39,0,1,1-1.39-1.39A1.39,1.39,0,0,1,1390.74,466.6Z" transform="translate(-731.8 -190.54)"/><circle class="abdc6a38-97c5-4e22-afdf-e43d570348c5" cx="548.92" cy="268.28" r="1.39"/><path class="abdc6a38-97c5-4e22-afdf-e43d570348c5" d="M1298.83,458.82a1.39,1.39,0,1,1-1.39-1.39A1.4,1.4,0,0,1,1298.83,458.82Z" transform="translate(-731.8 -190.54)"/><circle class="abdc6a38-97c5-4e22-afdf-e43d570348c5" cx="582.35" cy="268.28" r="1.39"/><path class="abdc6a38-97c5-4e22-afdf-e43d570348c5" d="M1332.26,458.82a1.39,1.39,0,1,1-1.39-1.39A1.4,1.4,0,0,1,1332.26,458.82Z" transform="translate(-731.8 -190.54)"/><circle class="abdc6a38-97c5-4e22-afdf-e43d570348c5" cx="615.78" cy="268.28" r="1.39"/><path class="abdc6a38-97c5-4e22-afdf-e43d570348c5" d="M1365.69,458.82a1.39,1.39,0,1,1-1.39-1.39A1.4,1.4,0,0,1,1365.69,458.82Z" transform="translate(-731.8 -190.54)"/><path class="abdc6a38-97c5-4e22-afdf-e43d570348c5" d="M1382.4,458.82a1.39,1.39,0,1,1-1.39-1.39A1.39,1.39,0,0,1,1382.4,458.82Z" transform="translate(-731.8 -190.54)"/><circle class="abdc6a38-97c5-4e22-afdf-e43d570348c5" cx="557.26" cy="259.58" r="1.39"/><path class="abdc6a38-97c5-4e22-afdf-e43d570348c5" d="M1307.17,450.12a1.39,1.39,0,1,1-1.39-1.39A1.39,1.39,0,0,1,1307.17,450.12Z" transform="translate(-731.8 -190.54)"/><circle class="abdc6a38-97c5-4e22-afdf-e43d570348c5" cx="590.69" cy="259.58" r="1.39"/><path class="abdc6a38-97c5-4e22-afdf-e43d570348c5" d="M1340.59,450.12a1.39,1.39,0,1,1-1.38-1.39A1.38,1.38,0,0,1,1340.59,450.12Z" transform="translate(-731.8 -190.54)"/><path class="abdc6a38-97c5-4e22-afdf-e43d570348c5" d="M1357.31,450.12a1.39,1.39,0,1,1-1.39-1.39A1.39,1.39,0,0,1,1357.31,450.12Z" transform="translate(-731.8 -190.54)"/><circle class="abdc6a38-97c5-4e22-afdf-e43d570348c5" cx="640.84" cy="259.58" r="1.39"/><path class="abdc6a38-97c5-4e22-afdf-e43d570348c5" d="M1390.74,450.12a1.39,1.39,0,1,1-1.39-1.39A1.39,1.39,0,0,1,1390.74,450.12Z" transform="translate(-731.8 -190.54)"/></g><g class="ba8b6566-5d48-4faf-8f34-6914aaefa171"><path class="abdc6a38-97c5-4e22-afdf-e43d570348c5" d="M881.29,299.48a1.39,1.39,0,1,1-1.39-1.39A1.39,1.39,0,0,1,881.29,299.48Z" transform="translate(-731.8 -190.54)"/><path class="abdc6a38-97c5-4e22-afdf-e43d570348c5" d="M898,299.48a1.39,1.39,0,1,1-1.39-1.39A1.39,1.39,0,0,1,898,299.48Z" transform="translate(-731.8 -190.54)"/><path class="abdc6a38-97c5-4e22-afdf-e43d570348c5" d="M914.72,299.48a1.39,1.39,0,1,1-1.39-1.39A1.39,1.39,0,0,1,914.72,299.48Z" transform="translate(-731.8 -190.54)"/><path class="abdc6a38-97c5-4e22-afdf-e43d570348c5" d="M931.44,299.48a1.39,1.39,0,1,1-1.39-1.39A1.39,1.39,0,0,1,931.44,299.48Z" transform="translate(-731.8 -190.54)"/><path class="abdc6a38-97c5-4e22-afdf-e43d570348c5" d="M948.15,299.48a1.39,1.39,0,1,1-1.39-1.39A1.39,1.39,0,0,1,948.15,299.48Z" transform="translate(-731.8 -190.54)"/><path class="abdc6a38-97c5-4e22-afdf-e43d570348c5" d="M964.86,299.48a1.39,1.39,0,1,1-1.38-1.39A1.38,1.38,0,0,1,964.86,299.48Z" transform="translate(-731.8 -190.54)"/><path class="abdc6a38-97c5-4e22-afdf-e43d570348c5" d="M981.58,299.48a1.39,1.39,0,1,1-1.39-1.39A1.39,1.39,0,0,1,981.58,299.48Z" transform="translate(-731.8 -190.54)"/><path class="abdc6a38-97c5-4e22-afdf-e43d570348c5" d="M889.63,290.79a1.39,1.39,0,1,1-1.39-1.39A1.39,1.39,0,0,1,889.63,290.79Z" transform="translate(-731.8 -190.54)"/><path class="abdc6a38-97c5-4e22-afdf-e43d570348c5" d="M906.34,290.79A1.39,1.39,0,1,1,905,289.4,1.38,1.38,0,0,1,906.34,290.79Z" transform="translate(-731.8 -190.54)"/><path class="abdc6a38-97c5-4e22-afdf-e43d570348c5" d="M923.06,290.79a1.39,1.39,0,1,1-1.39-1.39A1.39,1.39,0,0,1,923.06,290.79Z" transform="translate(-731.8 -190.54)"/><path class="abdc6a38-97c5-4e22-afdf-e43d570348c5" d="M939.77,290.79a1.39,1.39,0,1,1-1.39-1.39A1.39,1.39,0,0,1,939.77,290.79Z" transform="translate(-731.8 -190.54)"/><path class="abdc6a38-97c5-4e22-afdf-e43d570348c5" d="M956.49,290.79a1.39,1.39,0,1,1-1.39-1.39A1.39,1.39,0,0,1,956.49,290.79Z" transform="translate(-731.8 -190.54)"/><path class="abdc6a38-97c5-4e22-afdf-e43d570348c5" d="M973.2,290.79a1.39,1.39,0,1,1-1.39-1.39A1.39,1.39,0,0,1,973.2,290.79Z" transform="translate(-731.8 -190.54)"/><path class="abdc6a38-97c5-4e22-afdf-e43d570348c5" d="M989.92,290.79a1.39,1.39,0,1,1-1.39-1.39A1.39,1.39,0,0,1,989.92,290.79Z" transform="translate(-731.8 -190.54)"/><circle class="abdc6a38-97c5-4e22-afdf-e43d570348c5" cx="148.1" cy="92.47" r="1.39"/><path class="abdc6a38-97c5-4e22-afdf-e43d570348c5" d="M898,283a1.39,1.39,0,1,1-1.39-1.39A1.4,1.4,0,0,1,898,283Z" transform="translate(-731.8 -190.54)"/><circle class="abdc6a38-97c5-4e22-afdf-e43d570348c5" cx="181.53" cy="92.47" r="1.39"/><path class="abdc6a38-97c5-4e22-afdf-e43d570348c5" d="M931.44,283a1.39,1.39,0,1,1-1.39-1.39A1.4,1.4,0,0,1,931.44,283Z" transform="translate(-731.8 -190.54)"/><circle class="abdc6a38-97c5-4e22-afdf-e43d570348c5" cx="214.96" cy="92.47" r="1.39"/><path class="abdc6a38-97c5-4e22-afdf-e43d570348c5" d="M964.86,283a1.39,1.39,0,1,1-1.38-1.39A1.39,1.39,0,0,1,964.86,283Z" transform="translate(-731.8 -190.54)"/><circle class="abdc6a38-97c5-4e22-afdf-e43d570348c5" cx="248.39" cy="92.47" r="1.39"/><path class="abdc6a38-97c5-4e22-afdf-e43d570348c5" d="M889.63,274.31a1.39,1.39,0,1,1-1.39-1.39A1.39,1.39,0,0,1,889.63,274.31Z" transform="translate(-731.8 -190.54)"/><path class="abdc6a38-97c5-4e22-afdf-e43d570348c5" d="M906.34,274.31a1.39,1.39,0,1,1-1.38-1.39A1.38,1.38,0,0,1,906.34,274.31Z" transform="translate(-731.8 -190.54)"/><path class="abdc6a38-97c5-4e22-afdf-e43d570348c5" d="M923.06,274.31a1.39,1.39,0,1,1-1.39-1.39A1.39,1.39,0,0,1,923.06,274.31Z" transform="translate(-731.8 -190.54)"/><path class="abdc6a38-97c5-4e22-afdf-e43d570348c5" d="M939.77,274.31a1.39,1.39,0,1,1-1.39-1.39A1.39,1.39,0,0,1,939.77,274.31Z" transform="translate(-731.8 -190.54)"/><path class="abdc6a38-97c5-4e22-afdf-e43d570348c5" d="M956.49,274.31a1.39,1.39,0,1,1-1.39-1.39A1.39,1.39,0,0,1,956.49,274.31Z" transform="translate(-731.8 -190.54)"/><path class="abdc6a38-97c5-4e22-afdf-e43d570348c5" d="M973.2,274.31a1.39,1.39,0,1,1-1.39-1.39A1.39,1.39,0,0,1,973.2,274.31Z" transform="translate(-731.8 -190.54)"/><path class="abdc6a38-97c5-4e22-afdf-e43d570348c5" d="M989.92,274.31a1.39,1.39,0,1,1-1.39-1.39A1.39,1.39,0,0,1,989.92,274.31Z" transform="translate(-731.8 -190.54)"/><circle class="abdc6a38-97c5-4e22-afdf-e43d570348c5" cx="148.1" cy="75.99" r="1.39"/><path class="abdc6a38-97c5-4e22-afdf-e43d570348c5" d="M898,266.53a1.39,1.39,0,1,1-1.39-1.39A1.39,1.39,0,0,1,898,266.53Z" transform="translate(-731.8 -190.54)"/><circle class="abdc6a38-97c5-4e22-afdf-e43d570348c5" cx="181.53" cy="75.99" r="1.39"/><path class="abdc6a38-97c5-4e22-afdf-e43d570348c5" d="M931.44,266.53a1.39,1.39,0,1,1-1.39-1.39A1.39,1.39,0,0,1,931.44,266.53Z" transform="translate(-731.8 -190.54)"/><circle class="abdc6a38-97c5-4e22-afdf-e43d570348c5" cx="214.96" cy="75.99" r="1.39"/><path class="abdc6a38-97c5-4e22-afdf-e43d570348c5" d="M964.86,266.53a1.39,1.39,0,1,1-1.38-1.39A1.38,1.38,0,0,1,964.86,266.53Z" transform="translate(-731.8 -190.54)"/><circle class="abdc6a38-97c5-4e22-afdf-e43d570348c5" cx="248.39" cy="75.99" r="1.39"/><circle class="abdc6a38-97c5-4e22-afdf-e43d570348c5" cx="156.44" cy="67.3" r="1.39"/><path class="abdc6a38-97c5-4e22-afdf-e43d570348c5" d="M906.34,257.83a1.39,1.39,0,1,1-1.38-1.38A1.38,1.38,0,0,1,906.34,257.83Z" transform="translate(-731.8 -190.54)"/><circle class="abdc6a38-97c5-4e22-afdf-e43d570348c5" cx="189.87" cy="67.3" r="1.39"/><path class="abdc6a38-97c5-4e22-afdf-e43d570348c5" d="M939.77,257.83a1.39,1.39,0,1,1-1.39-1.38A1.39,1.39,0,0,1,939.77,257.83Z" transform="translate(-731.8 -190.54)"/><circle class="abdc6a38-97c5-4e22-afdf-e43d570348c5" cx="223.3" cy="67.3" r="1.39"/><path class="abdc6a38-97c5-4e22-afdf-e43d570348c5" d="M973.2,257.83a1.39,1.39,0,1,1-1.39-1.38A1.39,1.39,0,0,1,973.2,257.83Z" transform="translate(-731.8 -190.54)"/><circle class="abdc6a38-97c5-4e22-afdf-e43d570348c5" cx="256.73" cy="67.3" r="1.39"/><path class="abdc6a38-97c5-4e22-afdf-e43d570348c5" d="M881.29,250.05a1.39,1.39,0,1,1-1.39-1.39A1.39,1.39,0,0,1,881.29,250.05Z" transform="translate(-731.8 -190.54)"/><path class="abdc6a38-97c5-4e22-afdf-e43d570348c5" d="M898,250.05a1.39,1.39,0,1,1-1.39-1.39A1.39,1.39,0,0,1,898,250.05Z" transform="translate(-731.8 -190.54)"/><path class="abdc6a38-97c5-4e22-afdf-e43d570348c5" d="M914.72,250.05a1.39,1.39,0,1,1-1.39-1.39A1.39,1.39,0,0,1,914.72,250.05Z" transform="translate(-731.8 -190.54)"/><path class="abdc6a38-97c5-4e22-afdf-e43d570348c5" d="M931.44,250.05a1.39,1.39,0,1,1-1.39-1.39A1.39,1.39,0,0,1,931.44,250.05Z" transform="translate(-731.8 -190.54)"/><path class="abdc6a38-97c5-4e22-afdf-e43d570348c5" d="M948.15,250.05a1.39,1.39,0,1,1-1.39-1.39A1.39,1.39,0,0,1,948.15,250.05Z" transform="translate(-731.8 -190.54)"/><path class="abdc6a38-97c5-4e22-afdf-e43d570348c5" d="M964.86,250.05a1.39,1.39,0,1,1-1.38-1.39A1.38,1.38,0,0,1,964.86,250.05Z" transform="translate(-731.8 -190.54)"/><path class="abdc6a38-97c5-4e22-afdf-e43d570348c5" d="M981.58,250.05a1.39,1.39,0,1,1-1.39-1.39A1.39,1.39,0,0,1,981.58,250.05Z" transform="translate(-731.8 -190.54)"/><circle class="abdc6a38-97c5-4e22-afdf-e43d570348c5" cx="156.44" cy="50.82" r="1.39"/><path class="abdc6a38-97c5-4e22-afdf-e43d570348c5" d="M906.34,241.36A1.39,1.39,0,1,1,905,240,1.38,1.38,0,0,1,906.34,241.36Z" transform="translate(-731.8 -190.54)"/><circle class="abdc6a38-97c5-4e22-afdf-e43d570348c5" cx="189.87" cy="50.82" r="1.39"/><path class="abdc6a38-97c5-4e22-afdf-e43d570348c5" d="M939.77,241.36a1.39,1.39,0,1,1-1.39-1.39A1.39,1.39,0,0,1,939.77,241.36Z" transform="translate(-731.8 -190.54)"/><circle class="abdc6a38-97c5-4e22-afdf-e43d570348c5" cx="223.3" cy="50.82" r="1.39"/><path class="abdc6a38-97c5-4e22-afdf-e43d570348c5" d="M973.2,241.36a1.39,1.39,0,1,1-1.39-1.39A1.39,1.39,0,0,1,973.2,241.36Z" transform="translate(-731.8 -190.54)"/><circle class="abdc6a38-97c5-4e22-afdf-e43d570348c5" cx="256.73" cy="50.82" r="1.39"/><path class="abdc6a38-97c5-4e22-afdf-e43d570348c5" d="M881.29,233.58a1.39,1.39,0,1,1-1.39-1.39A1.39,1.39,0,0,1,881.29,233.58Z" transform="translate(-731.8 -190.54)"/><path class="abdc6a38-97c5-4e22-afdf-e43d570348c5" d="M898,233.58a1.39,1.39,0,1,1-1.39-1.39A1.4,1.4,0,0,1,898,233.58Z" transform="translate(-731.8 -190.54)"/><path class="abdc6a38-97c5-4e22-afdf-e43d570348c5" d="M914.72,233.58a1.39,1.39,0,1,1-1.39-1.39A1.39,1.39,0,0,1,914.72,233.58Z" transform="translate(-731.8 -190.54)"/><path class="abdc6a38-97c5-4e22-afdf-e43d570348c5" d="M931.44,233.58a1.39,1.39,0,1,1-1.39-1.39A1.4,1.4,0,0,1,931.44,233.58Z" transform="translate(-731.8 -190.54)"/><path class="abdc6a38-97c5-4e22-afdf-e43d570348c5" d="M948.15,233.58a1.39,1.39,0,1,1-1.39-1.39A1.39,1.39,0,0,1,948.15,233.58Z" transform="translate(-731.8 -190.54)"/><path class="abdc6a38-97c5-4e22-afdf-e43d570348c5" d="M964.86,233.58a1.39,1.39,0,1,1-1.38-1.39A1.39,1.39,0,0,1,964.86,233.58Z" transform="translate(-731.8 -190.54)"/><path class="abdc6a38-97c5-4e22-afdf-e43d570348c5" d="M981.58,233.58a1.39,1.39,0,1,1-1.39-1.39A1.39,1.39,0,0,1,981.58,233.58Z" transform="translate(-731.8 -190.54)"/><path class="abdc6a38-97c5-4e22-afdf-e43d570348c5" d="M889.63,224.88a1.39,1.39,0,1,1-1.39-1.39A1.39,1.39,0,0,1,889.63,224.88Z" transform="translate(-731.8 -190.54)"/><path class="abdc6a38-97c5-4e22-afdf-e43d570348c5" d="M906.34,224.88a1.39,1.39,0,1,1-1.38-1.39A1.38,1.38,0,0,1,906.34,224.88Z" transform="translate(-731.8 -190.54)"/><path class="abdc6a38-97c5-4e22-afdf-e43d570348c5" d="M923.06,224.88a1.39,1.39,0,1,1-1.39-1.39A1.39,1.39,0,0,1,923.06,224.88Z" transform="translate(-731.8 -190.54)"/><path class="abdc6a38-97c5-4e22-afdf-e43d570348c5" d="M939.77,224.88a1.39,1.39,0,1,1-1.39-1.39A1.39,1.39,0,0,1,939.77,224.88Z" transform="translate(-731.8 -190.54)"/><path class="abdc6a38-97c5-4e22-afdf-e43d570348c5" d="M956.49,224.88a1.39,1.39,0,1,1-1.39-1.39A1.39,1.39,0,0,1,956.49,224.88Z" transform="translate(-731.8 -190.54)"/><path class="abdc6a38-97c5-4e22-afdf-e43d570348c5" d="M973.2,224.88a1.39,1.39,0,1,1-1.39-1.39A1.39,1.39,0,0,1,973.2,224.88Z" transform="translate(-731.8 -190.54)"/><path class="abdc6a38-97c5-4e22-afdf-e43d570348c5" d="M989.92,224.88a1.39,1.39,0,1,1-1.39-1.39A1.39,1.39,0,0,1,989.92,224.88Z" transform="translate(-731.8 -190.54)"/><circle class="abdc6a38-97c5-4e22-afdf-e43d570348c5" cx="148.1" cy="26.56" r="1.39"/><path class="abdc6a38-97c5-4e22-afdf-e43d570348c5" d="M898,217.1a1.39,1.39,0,1,1-1.39-1.39A1.39,1.39,0,0,1,898,217.1Z" transform="translate(-731.8 -190.54)"/><circle class="abdc6a38-97c5-4e22-afdf-e43d570348c5" cx="181.53" cy="26.56" r="1.39"/><path class="abdc6a38-97c5-4e22-afdf-e43d570348c5" d="M931.44,217.1a1.39,1.39,0,1,1-1.39-1.39A1.39,1.39,0,0,1,931.44,217.1Z" transform="translate(-731.8 -190.54)"/><circle class="abdc6a38-97c5-4e22-afdf-e43d570348c5" cx="214.96" cy="26.56" r="1.39"/><path class="abdc6a38-97c5-4e22-afdf-e43d570348c5" d="M964.86,217.1a1.39,1.39,0,1,1-1.38-1.39A1.38,1.38,0,0,1,964.86,217.1Z" transform="translate(-731.8 -190.54)"/><circle class="abdc6a38-97c5-4e22-afdf-e43d570348c5" cx="248.39" cy="26.56" r="1.39"/><circle class="abdc6a38-97c5-4e22-afdf-e43d570348c5" cx="156.44" cy="17.87" r="1.39"/><path class="abdc6a38-97c5-4e22-afdf-e43d570348c5" d="M906.34,208.41A1.39,1.39,0,1,1,905,207,1.39,1.39,0,0,1,906.34,208.41Z" transform="translate(-731.8 -190.54)"/><circle class="abdc6a38-97c5-4e22-afdf-e43d570348c5" cx="189.87" cy="17.87" r="1.39"/><path class="abdc6a38-97c5-4e22-afdf-e43d570348c5" d="M939.77,208.41a1.39,1.39,0,1,1-1.39-1.39A1.39,1.39,0,0,1,939.77,208.41Z" transform="translate(-731.8 -190.54)"/><circle class="abdc6a38-97c5-4e22-afdf-e43d570348c5" cx="223.3" cy="17.87" r="1.39"/><path class="abdc6a38-97c5-4e22-afdf-e43d570348c5" d="M973.2,208.41a1.39,1.39,0,1,1-1.39-1.39A1.39,1.39,0,0,1,973.2,208.41Z" transform="translate(-731.8 -190.54)"/><circle class="abdc6a38-97c5-4e22-afdf-e43d570348c5" cx="256.73" cy="17.87" r="1.39"/><circle class="abdc6a38-97c5-4e22-afdf-e43d570348c5" cx="148.1" cy="10.08" r="1.39"/><path class="abdc6a38-97c5-4e22-afdf-e43d570348c5" d="M898,200.62a1.39,1.39,0,1,1-1.39-1.39A1.39,1.39,0,0,1,898,200.62Z" transform="translate(-731.8 -190.54)"/><circle class="abdc6a38-97c5-4e22-afdf-e43d570348c5" cx="181.53" cy="10.08" r="1.39"/><path class="abdc6a38-97c5-4e22-afdf-e43d570348c5" d="M931.44,200.62a1.39,1.39,0,1,1-1.39-1.39A1.39,1.39,0,0,1,931.44,200.62Z" transform="translate(-731.8 -190.54)"/><circle class="abdc6a38-97c5-4e22-afdf-e43d570348c5" cx="214.96" cy="10.08" r="1.39"/><path class="abdc6a38-97c5-4e22-afdf-e43d570348c5" d="M964.86,200.62a1.39,1.39,0,1,1-1.38-1.39A1.38,1.38,0,0,1,964.86,200.62Z" transform="translate(-731.8 -190.54)"/><circle class="abdc6a38-97c5-4e22-afdf-e43d570348c5" cx="248.39" cy="10.08" r="1.39"/><circle class="abdc6a38-97c5-4e22-afdf-e43d570348c5" cx="156.44" cy="1.39" r="1.39"/><path class="abdc6a38-97c5-4e22-afdf-e43d570348c5" d="M906.34,191.93a1.39,1.39,0,1,1-1.38-1.39A1.38,1.38,0,0,1,906.34,191.93Z" transform="translate(-731.8 -190.54)"/><circle class="abdc6a38-97c5-4e22-afdf-e43d570348c5" cx="189.87" cy="1.39" r="1.39"/><path class="abdc6a38-97c5-4e22-afdf-e43d570348c5" d="M939.77,191.93a1.39,1.39,0,1,1-1.39-1.39A1.39,1.39,0,0,1,939.77,191.93Z" transform="translate(-731.8 -190.54)"/><circle class="abdc6a38-97c5-4e22-afdf-e43d570348c5" cx="223.3" cy="1.39" r="1.39"/><path class="abdc6a38-97c5-4e22-afdf-e43d570348c5" d="M973.2,191.93a1.39,1.39,0,1,1-1.39-1.39A1.39,1.39,0,0,1,973.2,191.93Z" transform="translate(-731.8 -190.54)"/><circle class="abdc6a38-97c5-4e22-afdf-e43d570348c5" cx="256.73" cy="1.39" r="1.39"/></g><g class="b18c2fed-e008-4213-adca-e8631a99a21a"><path class="abdc6a38-97c5-4e22-afdf-e43d570348c5" d="M999.73,783.16a1.39,1.39,0,1,1-1.39-1.39A1.39,1.39,0,0,1,999.73,783.16Z" transform="translate(-731.8 -190.54)"/><circle class="abdc6a38-97c5-4e22-afdf-e43d570348c5" cx="283.26" cy="592.62" r="1.39"/><circle class="abdc6a38-97c5-4e22-afdf-e43d570348c5" cx="299.97" cy="592.62" r="1.39"/><path class="abdc6a38-97c5-4e22-afdf-e43d570348c5" d="M1049.88,783.16a1.39,1.39,0,1,1-1.39-1.39A1.39,1.39,0,0,1,1049.88,783.16Z" transform="translate(-731.8 -190.54)"/><circle class="abdc6a38-97c5-4e22-afdf-e43d570348c5" cx="333.4" cy="592.62" r="1.39"/><path class="abdc6a38-97c5-4e22-afdf-e43d570348c5" d="M1083.31,783.16a1.39,1.39,0,1,1-1.39-1.39A1.39,1.39,0,0,1,1083.31,783.16Z" transform="translate(-731.8 -190.54)"/><circle class="abdc6a38-97c5-4e22-afdf-e43d570348c5" cx="366.83" cy="592.62" r="1.39"/><path class="abdc6a38-97c5-4e22-afdf-e43d570348c5" d="M1008.07,774.47a1.39,1.39,0,1,1-1.39-1.39A1.39,1.39,0,0,1,1008.07,774.47Z" transform="translate(-731.8 -190.54)"/><circle class="abdc6a38-97c5-4e22-afdf-e43d570348c5" cx="291.6" cy="583.93" r="1.39"/><circle class="abdc6a38-97c5-4e22-afdf-e43d570348c5" cx="308.31" cy="583.93" r="1.39"/><path class="abdc6a38-97c5-4e22-afdf-e43d570348c5" d="M1058.22,774.47a1.39,1.39,0,1,1-1.39-1.39A1.39,1.39,0,0,1,1058.22,774.47Z" transform="translate(-731.8 -190.54)"/><circle class="abdc6a38-97c5-4e22-afdf-e43d570348c5" cx="341.74" cy="583.93" r="1.39"/><path class="abdc6a38-97c5-4e22-afdf-e43d570348c5" d="M1091.64,774.47a1.39,1.39,0,1,1-1.38-1.39A1.38,1.38,0,0,1,1091.64,774.47Z" transform="translate(-731.8 -190.54)"/><circle class="abdc6a38-97c5-4e22-afdf-e43d570348c5" cx="375.17" cy="583.93" r="1.39"/><path class="abdc6a38-97c5-4e22-afdf-e43d570348c5" d="M999.73,766.69a1.39,1.39,0,1,1-1.39-1.39A1.39,1.39,0,0,1,999.73,766.69Z" transform="translate(-731.8 -190.54)"/><path class="abdc6a38-97c5-4e22-afdf-e43d570348c5" d="M1016.45,766.69a1.39,1.39,0,1,1-1.39-1.39A1.39,1.39,0,0,1,1016.45,766.69Z" transform="translate(-731.8 -190.54)"/><path class="abdc6a38-97c5-4e22-afdf-e43d570348c5" d="M1033.16,766.69a1.39,1.39,0,1,1-1.39-1.39A1.39,1.39,0,0,1,1033.16,766.69Z" transform="translate(-731.8 -190.54)"/><path class="abdc6a38-97c5-4e22-afdf-e43d570348c5" d="M1049.88,766.69a1.39,1.39,0,1,1-1.39-1.39A1.4,1.4,0,0,1,1049.88,766.69Z" transform="translate(-731.8 -190.54)"/><path class="abdc6a38-97c5-4e22-afdf-e43d570348c5" d="M1066.59,766.69a1.39,1.39,0,1,1-1.39-1.39A1.39,1.39,0,0,1,1066.59,766.69Z" transform="translate(-731.8 -190.54)"/><path class="abdc6a38-97c5-4e22-afdf-e43d570348c5" d="M1083.31,766.69a1.39,1.39,0,1,1-1.39-1.39A1.4,1.4,0,0,1,1083.31,766.69Z" transform="translate(-731.8 -190.54)"/><path class="abdc6a38-97c5-4e22-afdf-e43d570348c5" d="M1100,766.69a1.39,1.39,0,1,1-1.39-1.39A1.39,1.39,0,0,1,1100,766.69Z" transform="translate(-731.8 -190.54)"/><path class="abdc6a38-97c5-4e22-afdf-e43d570348c5" d="M1008.07,758a1.39,1.39,0,1,1-1.39-1.39A1.39,1.39,0,0,1,1008.07,758Z" transform="translate(-731.8 -190.54)"/><path class="abdc6a38-97c5-4e22-afdf-e43d570348c5" d="M1024.79,758a1.39,1.39,0,1,1-1.39-1.39A1.39,1.39,0,0,1,1024.79,758Z" transform="translate(-731.8 -190.54)"/><path class="abdc6a38-97c5-4e22-afdf-e43d570348c5" d="M1041.5,758a1.39,1.39,0,1,1-1.39-1.39A1.39,1.39,0,0,1,1041.5,758Z" transform="translate(-731.8 -190.54)"/><path class="abdc6a38-97c5-4e22-afdf-e43d570348c5" d="M1058.22,758a1.39,1.39,0,1,1-1.39-1.39A1.39,1.39,0,0,1,1058.22,758Z" transform="translate(-731.8 -190.54)"/><path class="abdc6a38-97c5-4e22-afdf-e43d570348c5" d="M1074.93,758a1.39,1.39,0,1,1-1.39-1.39A1.39,1.39,0,0,1,1074.93,758Z" transform="translate(-731.8 -190.54)"/><path class="abdc6a38-97c5-4e22-afdf-e43d570348c5" d="M1091.64,758a1.39,1.39,0,1,1-1.38-1.39A1.38,1.38,0,0,1,1091.64,758Z" transform="translate(-731.8 -190.54)"/><path class="abdc6a38-97c5-4e22-afdf-e43d570348c5" d="M1108.36,758a1.39,1.39,0,1,1-1.39-1.39A1.39,1.39,0,0,1,1108.36,758Z" transform="translate(-731.8 -190.54)"/><path class="abdc6a38-97c5-4e22-afdf-e43d570348c5" d="M999.73,750.21a1.39,1.39,0,1,1-1.39-1.39A1.39,1.39,0,0,1,999.73,750.21Z" transform="translate(-731.8 -190.54)"/><circle class="abdc6a38-97c5-4e22-afdf-e43d570348c5" cx="283.26" cy="559.67" r="1.39"/><circle class="abdc6a38-97c5-4e22-afdf-e43d570348c5" cx="299.97" cy="559.67" r="1.39"/><path class="abdc6a38-97c5-4e22-afdf-e43d570348c5" d="M1049.88,750.21a1.39,1.39,0,1,1-1.39-1.39A1.39,1.39,0,0,1,1049.88,750.21Z" transform="translate(-731.8 -190.54)"/><circle class="abdc6a38-97c5-4e22-afdf-e43d570348c5" cx="333.4" cy="559.67" r="1.39"/><path class="abdc6a38-97c5-4e22-afdf-e43d570348c5" d="M1083.31,750.21a1.39,1.39,0,1,1-1.39-1.39A1.39,1.39,0,0,1,1083.31,750.21Z" transform="translate(-731.8 -190.54)"/><circle class="abdc6a38-97c5-4e22-afdf-e43d570348c5" cx="366.83" cy="559.67" r="1.39"/><path class="abdc6a38-97c5-4e22-afdf-e43d570348c5" d="M1008.07,741.52a1.39,1.39,0,1,1-1.39-1.39A1.39,1.39,0,0,1,1008.07,741.52Z" transform="translate(-731.8 -190.54)"/><path class="abdc6a38-97c5-4e22-afdf-e43d570348c5" d="M1024.79,741.52a1.39,1.39,0,1,1-1.39-1.39A1.4,1.4,0,0,1,1024.79,741.52Z" transform="translate(-731.8 -190.54)"/><path class="abdc6a38-97c5-4e22-afdf-e43d570348c5" d="M1041.5,741.52a1.39,1.39,0,1,1-1.39-1.39A1.39,1.39,0,0,1,1041.5,741.52Z" transform="translate(-731.8 -190.54)"/><path class="abdc6a38-97c5-4e22-afdf-e43d570348c5" d="M1058.22,741.52a1.39,1.39,0,1,1-1.39-1.39A1.4,1.4,0,0,1,1058.22,741.52Z" transform="translate(-731.8 -190.54)"/><path class="abdc6a38-97c5-4e22-afdf-e43d570348c5" d="M1074.93,741.52a1.39,1.39,0,1,1-1.39-1.39A1.39,1.39,0,0,1,1074.93,741.52Z" transform="translate(-731.8 -190.54)"/><path class="abdc6a38-97c5-4e22-afdf-e43d570348c5" d="M1091.64,741.52a1.39,1.39,0,1,1-1.38-1.39A1.39,1.39,0,0,1,1091.64,741.52Z" transform="translate(-731.8 -190.54)"/><path class="abdc6a38-97c5-4e22-afdf-e43d570348c5" d="M1108.36,741.52a1.39,1.39,0,1,1-1.39-1.39A1.39,1.39,0,0,1,1108.36,741.52Z" transform="translate(-731.8 -190.54)"/><path class="abdc6a38-97c5-4e22-afdf-e43d570348c5" d="M999.73,733.73a1.39,1.39,0,1,1-1.39-1.39A1.39,1.39,0,0,1,999.73,733.73Z" transform="translate(-731.8 -190.54)"/><circle class="abdc6a38-97c5-4e22-afdf-e43d570348c5" cx="283.26" cy="543.19" r="1.39"/><circle class="abdc6a38-97c5-4e22-afdf-e43d570348c5" cx="299.97" cy="543.19" r="1.39"/><path class="abdc6a38-97c5-4e22-afdf-e43d570348c5" d="M1049.88,733.73a1.39,1.39,0,1,1-1.39-1.39A1.39,1.39,0,0,1,1049.88,733.73Z" transform="translate(-731.8 -190.54)"/><circle class="abdc6a38-97c5-4e22-afdf-e43d570348c5" cx="333.4" cy="543.19" r="1.39"/><path class="abdc6a38-97c5-4e22-afdf-e43d570348c5" d="M1083.31,733.73a1.39,1.39,0,1,1-1.39-1.39A1.39,1.39,0,0,1,1083.31,733.73Z" transform="translate(-731.8 -190.54)"/><circle class="abdc6a38-97c5-4e22-afdf-e43d570348c5" cx="366.83" cy="543.19" r="1.39"/><path class="abdc6a38-97c5-4e22-afdf-e43d570348c5" d="M1008.07,725a1.39,1.39,0,1,1-1.39-1.39A1.39,1.39,0,0,1,1008.07,725Z" transform="translate(-731.8 -190.54)"/><circle class="abdc6a38-97c5-4e22-afdf-e43d570348c5" cx="291.6" cy="534.5" r="1.39"/><circle class="abdc6a38-97c5-4e22-afdf-e43d570348c5" cx="308.31" cy="534.5" r="1.39"/><path class="abdc6a38-97c5-4e22-afdf-e43d570348c5" d="M1058.22,725a1.39,1.39,0,1,1-1.39-1.39A1.39,1.39,0,0,1,1058.22,725Z" transform="translate(-731.8 -190.54)"/><circle class="abdc6a38-97c5-4e22-afdf-e43d570348c5" cx="341.74" cy="534.5" r="1.39"/><path class="abdc6a38-97c5-4e22-afdf-e43d570348c5" d="M1091.64,725a1.39,1.39,0,1,1-1.38-1.39A1.38,1.38,0,0,1,1091.64,725Z" transform="translate(-731.8 -190.54)"/><circle class="abdc6a38-97c5-4e22-afdf-e43d570348c5" cx="375.17" cy="534.5" r="1.39"/><path class="abdc6a38-97c5-4e22-afdf-e43d570348c5" d="M999.73,717.26a1.39,1.39,0,1,1-1.39-1.39A1.39,1.39,0,0,1,999.73,717.26Z" transform="translate(-731.8 -190.54)"/><path class="abdc6a38-97c5-4e22-afdf-e43d570348c5" d="M1016.45,717.26a1.39,1.39,0,1,1-1.39-1.39A1.39,1.39,0,0,1,1016.45,717.26Z" transform="translate(-731.8 -190.54)"/><path class="abdc6a38-97c5-4e22-afdf-e43d570348c5" d="M1033.16,717.26a1.39,1.39,0,1,1-1.39-1.39A1.39,1.39,0,0,1,1033.16,717.26Z" transform="translate(-731.8 -190.54)"/><path class="abdc6a38-97c5-4e22-afdf-e43d570348c5" d="M1049.88,717.26a1.39,1.39,0,1,1-1.39-1.39A1.39,1.39,0,0,1,1049.88,717.26Z" transform="translate(-731.8 -190.54)"/><path class="abdc6a38-97c5-4e22-afdf-e43d570348c5" d="M1066.59,717.26a1.39,1.39,0,1,1-1.39-1.39A1.39,1.39,0,0,1,1066.59,717.26Z" transform="translate(-731.8 -190.54)"/><path class="abdc6a38-97c5-4e22-afdf-e43d570348c5" d="M1083.31,717.26a1.39,1.39,0,1,1-1.39-1.39A1.39,1.39,0,0,1,1083.31,717.26Z" transform="translate(-731.8 -190.54)"/><path class="abdc6a38-97c5-4e22-afdf-e43d570348c5" d="M1100,717.26a1.39,1.39,0,1,1-1.39-1.39A1.39,1.39,0,0,1,1100,717.26Z" transform="translate(-731.8 -190.54)"/><path class="abdc6a38-97c5-4e22-afdf-e43d570348c5" d="M1008.07,708.56a1.39,1.39,0,1,1-1.39-1.39A1.39,1.39,0,0,1,1008.07,708.56Z" transform="translate(-731.8 -190.54)"/><circle class="abdc6a38-97c5-4e22-afdf-e43d570348c5" cx="291.6" cy="518.02" r="1.39"/><circle class="abdc6a38-97c5-4e22-afdf-e43d570348c5" cx="308.31" cy="518.02" r="1.39"/><path class="abdc6a38-97c5-4e22-afdf-e43d570348c5" d="M1058.22,708.56a1.39,1.39,0,1,1-1.39-1.39A1.39,1.39,0,0,1,1058.22,708.56Z" transform="translate(-731.8 -190.54)"/><circle class="abdc6a38-97c5-4e22-afdf-e43d570348c5" cx="341.74" cy="518.02" r="1.39"/><path class="abdc6a38-97c5-4e22-afdf-e43d570348c5" d="M1091.64,708.56a1.39,1.39,0,1,1-1.38-1.39A1.38,1.38,0,0,1,1091.64,708.56Z" transform="translate(-731.8 -190.54)"/><circle class="abdc6a38-97c5-4e22-afdf-e43d570348c5" cx="375.17" cy="518.02" r="1.39"/><path class="abdc6a38-97c5-4e22-afdf-e43d570348c5" d="M999.73,700.78a1.39,1.39,0,1,1-1.39-1.39A1.39,1.39,0,0,1,999.73,700.78Z" transform="translate(-731.8 -190.54)"/><path class="abdc6a38-97c5-4e22-afdf-e43d570348c5" d="M1016.45,700.78a1.39,1.39,0,1,1-1.39-1.39A1.39,1.39,0,0,1,1016.45,700.78Z" transform="translate(-731.8 -190.54)"/><path class="abdc6a38-97c5-4e22-afdf-e43d570348c5" d="M1033.16,700.78a1.39,1.39,0,1,1-1.39-1.39A1.39,1.39,0,0,1,1033.16,700.78Z" transform="translate(-731.8 -190.54)"/><path class="abdc6a38-97c5-4e22-afdf-e43d570348c5" d="M1049.88,700.78a1.39,1.39,0,1,1-1.39-1.39A1.39,1.39,0,0,1,1049.88,700.78Z" transform="translate(-731.8 -190.54)"/><path class="abdc6a38-97c5-4e22-afdf-e43d570348c5" d="M1066.59,700.78a1.39,1.39,0,1,1-1.39-1.39A1.39,1.39,0,0,1,1066.59,700.78Z" transform="translate(-731.8 -190.54)"/><path class="abdc6a38-97c5-4e22-afdf-e43d570348c5" d="M1083.31,700.78a1.39,1.39,0,1,1-1.39-1.39A1.39,1.39,0,0,1,1083.31,700.78Z" transform="translate(-731.8 -190.54)"/><path class="abdc6a38-97c5-4e22-afdf-e43d570348c5" d="M1100,700.78a1.39,1.39,0,1,1-1.39-1.39A1.39,1.39,0,0,1,1100,700.78Z" transform="translate(-731.8 -190.54)"/><path class="abdc6a38-97c5-4e22-afdf-e43d570348c5" d="M1008.07,692.09a1.39,1.39,0,1,1-1.39-1.39A1.39,1.39,0,0,1,1008.07,692.09Z" transform="translate(-731.8 -190.54)"/><path class="abdc6a38-97c5-4e22-afdf-e43d570348c5" d="M1024.79,692.09a1.39,1.39,0,1,1-1.39-1.39A1.4,1.4,0,0,1,1024.79,692.09Z" transform="translate(-731.8 -190.54)"/><path class="abdc6a38-97c5-4e22-afdf-e43d570348c5" d="M1041.5,692.09a1.39,1.39,0,1,1-1.39-1.39A1.39,1.39,0,0,1,1041.5,692.09Z" transform="translate(-731.8 -190.54)"/><path class="abdc6a38-97c5-4e22-afdf-e43d570348c5" d="M1058.22,692.09a1.39,1.39,0,1,1-1.39-1.39A1.4,1.4,0,0,1,1058.22,692.09Z" transform="translate(-731.8 -190.54)"/><path class="abdc6a38-97c5-4e22-afdf-e43d570348c5" d="M1074.93,692.09a1.39,1.39,0,1,1-1.39-1.39A1.39,1.39,0,0,1,1074.93,692.09Z" transform="translate(-731.8 -190.54)"/><path class="abdc6a38-97c5-4e22-afdf-e43d570348c5" d="M1091.64,692.09a1.39,1.39,0,1,1-1.38-1.39A1.39,1.39,0,0,1,1091.64,692.09Z" transform="translate(-731.8 -190.54)"/><path class="abdc6a38-97c5-4e22-afdf-e43d570348c5" d="M1108.36,692.09a1.39,1.39,0,1,1-1.39-1.39A1.39,1.39,0,0,1,1108.36,692.09Z" transform="translate(-731.8 -190.54)"/><path class="abdc6a38-97c5-4e22-afdf-e43d570348c5" d="M999.73,684.3a1.39,1.39,0,1,1-1.39-1.38A1.39,1.39,0,0,1,999.73,684.3Z" transform="translate(-731.8 -190.54)"/><circle class="abdc6a38-97c5-4e22-afdf-e43d570348c5" cx="283.26" cy="493.77" r="1.39"/><circle class="abdc6a38-97c5-4e22-afdf-e43d570348c5" cx="299.97" cy="493.77" r="1.39"/><path class="abdc6a38-97c5-4e22-afdf-e43d570348c5" d="M1049.88,684.3a1.39,1.39,0,1,1-1.39-1.38A1.39,1.39,0,0,1,1049.88,684.3Z" transform="translate(-731.8 -190.54)"/><circle class="abdc6a38-97c5-4e22-afdf-e43d570348c5" cx="333.4" cy="493.77" r="1.39"/><path class="abdc6a38-97c5-4e22-afdf-e43d570348c5" d="M1083.31,684.3a1.39,1.39,0,1,1-1.39-1.38A1.39,1.39,0,0,1,1083.31,684.3Z" transform="translate(-731.8 -190.54)"/><circle class="abdc6a38-97c5-4e22-afdf-e43d570348c5" cx="366.83" cy="493.77" r="1.39"/><path class="abdc6a38-97c5-4e22-afdf-e43d570348c5" d="M1008.07,675.61a1.39,1.39,0,1,1-1.39-1.39A1.39,1.39,0,0,1,1008.07,675.61Z" transform="translate(-731.8 -190.54)"/><circle class="abdc6a38-97c5-4e22-afdf-e43d570348c5" cx="291.6" cy="485.07" r="1.39"/><circle class="abdc6a38-97c5-4e22-afdf-e43d570348c5" cx="308.31" cy="485.07" r="1.39"/><path class="abdc6a38-97c5-4e22-afdf-e43d570348c5" d="M1058.22,675.61a1.39,1.39,0,1,1-1.39-1.39A1.39,1.39,0,0,1,1058.22,675.61Z" transform="translate(-731.8 -190.54)"/><circle class="abdc6a38-97c5-4e22-afdf-e43d570348c5" cx="341.74" cy="485.07" r="1.39"/><path class="abdc6a38-97c5-4e22-afdf-e43d570348c5" d="M1091.64,675.61a1.39,1.39,0,1,1-1.38-1.39A1.38,1.38,0,0,1,1091.64,675.61Z" transform="translate(-731.8 -190.54)"/><circle class="abdc6a38-97c5-4e22-afdf-e43d570348c5" cx="375.17" cy="485.07" r="1.39"/></g></g></g></svg>