<svg xmlns="http://www.w3.org/2000/svg" version="1.1" xmlns:xlink="http://www.w3.org/1999/xlink" xmlns:svgjs="http://svgjs.dev/svgjs" viewBox="0 0 1920 1080" style="overflow: hidden; height: 85vh;" class="overflow-hidden rounded-md drop-shadow-lg transition duration-300"><rect width="1920" height="1080" fill="#9d8cff"/><g clip-path="url(&quot;#SvgjsClipPath1087&quot;)"><g transform="matrix(1.14982484942985,-0.020070267402877113,0.020070267402877113,1.14982484942985,-151.4799000729795,-62.06527522318777)"><path d="M0,-1080C-6.93703031923981,-985.8956372501051,-49.45779456541562,-701.7916107571596,-41.62218191543886,-515.3738235006308C-33.7865692654621,-328.95603624410205,33.36792120584279,-129.84128650962796,47.01367589986057,38.506723539172754C60.659430593878355,206.85473358797347,46.6671484686341,330.1568204568954,40.252346248667834,494.71423679217355C33.837544028701565,659.2716531274517,16.996234182300732,841.2870992275684,8.524862580062972,1025.8512215508417C0.053490977825214614,1210.415343874115,-9.155072934748214,1413.0741743236206,-10.57588336475871,1602.0989707318136C-11.996693794769206,1791.1237671400065,-1.7626472274597849,2067.016495121969,0,2160L 1920 2160 L 1920 -1080 Z" fill="url(&quot;#SvgjsLinearGradient1083&quot;)"/><path d="M480,-1080C490.5811704009966,-961.8470582367079,537.8051687638294,-597.394406341895,543.4870224059797,-371.0823494202475C549.16887604813,-144.7702924986,524.6081373177009,74.16511454642765,514.0911218529012,277.87234152988503C503.57410638810154,481.57956851334245,478.6350911386644,636.3863325396567,480.38492961718157,851.1610124804968C482.13476809569875,1065.9356924213369,524.6543076602012,1348.380589921675,524.5901527240043,1566.5204211749256C524.5259977878073,1784.6602524281761,487.4316921206674,2061.0867368624877,480,2160L 1920 2160 L 1920 -1080 Z" fill="url(&quot;#SvgjsLinearGradient1084&quot;)"/><path d="M960,-1080C965.0239983568,-1004.6285533420271,989.6134488731569,-774.4885701561109,990.1439901407999,-627.7713200521628C990.6745314084429,-481.05406994821465,966.708972246869,-359.12994939981604,963.1832476058578,-199.69649937631144C959.6575229648465,-40.26304935280686,962.461254299858,167.08227251915804,968.9896422947321,328.8293800888647C975.5180302896063,490.57648765857135,995.4760143638961,609.5027783318725,1002.3535755751027,770.7861460419285C1009.2311367863093,932.0695137519846,1017.620624225631,1151.2629593801514,1010.2550095619721,1296.529586349201C1002.8893948983132,1441.7962133182507,966.5357225201448,1498.4741722477602,958.1598875931494,1642.3859078562266C949.784052666154,1786.297643464693,959.6933145988583,2073.7309846427042,960,2160L 1920 2160 L 1920 -1080 Z" fill="url(&quot;#SvgjsLinearGradient1085&quot;)"/><path d="M1440,-1080C1430.135744945388,-949.4706133433305,1386.0866864368923,-561.0606190154931,1380.8144696723282,-296.82368005998296C1375.5422529077641,-32.586741104472765,1398.8490629931496,221.8517678857412,1408.3666994126154,505.4216337330614C1417.8843358320812,788.9914995803816,1432.6480714245586,1128.8324539794485,1437.9202881891226,1404.5955150239383C1443.1925049536867,1680.3585760684282,1439.6533813648539,2034.0992525039896,1440,2160L 1920 2160 L 1920 -1080 Z" fill="url(&quot;#SvgjsLinearGradient1086&quot;)"/></g></g><defs><linearGradient x1="0.1" y1="0" x2="0" y2="1" id="SvgjsLinearGradient1083"><stop stop-color="#9d8cff" offset="0"/><stop stop-color="#8c8eff" offset="0"/></linearGradient><linearGradient x1="0.1" y1="0" x2="0" y2="1" id="SvgjsLinearGradient1084"><stop stop-color="#c6bcff" offset="0"/><stop stop-color="#bcbdff" offset="0.25"/></linearGradient><linearGradient x1="0.1" y1="0" x2="0" y2="1" id="SvgjsLinearGradient1085"><stop stop-color="#efedff" offset="0"/><stop stop-color="#edeeff" offset="0.5"/></linearGradient><linearGradient x1="0.1" y1="0" x2="0" y2="1" id="SvgjsLinearGradient1086"><stop stop-color="#ffffff" offset="0"/><stop stop-color="#ffffff" offset="0.75"/></linearGradient><clipPath id="SvgjsClipPath1087"><rect width="1920" height="1080"/></clipPath></defs></svg>