<svg xmlns="http://www.w3.org/2000/svg" xmlns:xlink="http://www.w3.org/1999/xlink" viewBox="0 0 1121.59 1613.45"><defs><style>.aeac73c5-8d83-46e4-865a-70a922fffb36{fill:none;}.a692deff-b0e2-404d-82bf-5038e78df5a5{fill:#d2c9ff;}.ba8362fc-22eb-4549-af30-06cd88778b7d{fill:#673ef9;}.ee770704-d8da-4a0d-bb99-bc363a9f0438{fill:#a8a2fc;}.ac833e32-339f-4ed9-b246-7dd9314e95cb{clip-path:url(#f1a047b0-3eb9-492d-88fa-8834a0d790e5);}.e85e6af0-5dd7-4bc6-a5e2-826a3b6e88d9{fill:#28215a;}.a002ce68-1ccf-4fd1-aa35-e8987d64fa0f{clip-path:url(#b3bcff07-06d9-4642-8255-fdd69526c78f);}.bd024ef4-0d55-4ac7-bffb-293e490da642{clip-path:url(#a24b5607-13a3-4e56-aa44-53003bfb18fa);}.a1a6a9bc-dab5-4842-8d0b-da1aa8b53e68{clip-path:url(#f04e8e8a-dc34-4407-8fb5-6ffba12ac3d8);}.afc0e2c3-df1a-4ce9-81d9-70aca460bcaa{clip-path:url(#a83b48f8-5577-46d4-af5b-b1b51a59c1a2);}.a9090c3c-9bc5-45c9-b875-35763284cca1{clip-path:url(#e58543e9-1114-4175-a1e1-ef260cbeff2a);}.afd1ddd2-bf73-45e5-a02d-6599e3fa67d8{fill:#82e394;}.a271b9d2-b6cd-428d-ae5b-eb5875ee6e81{fill:#8585f9;}.b745cd3c-90c2-409c-bf53-7ff9f183d396{fill:#fff;}.b762e4ec-9024-47f7-adfa-0ebb8b063856{fill:#e6e1ff;}.b90a5139-3daf-4de3-b4f1-9074b68a32a2{fill:#cec7ff;}.f43fc36e-3ee2-4d8a-9b32-e3d8c860d4d4{clip-path:url(#b88f9082-b344-4650-9f5f-654d9138e6bb);}</style><clipPath id="f1a047b0-3eb9-492d-88fa-8834a0d790e5" transform="translate(-921.36 284.37)"><path class="aeac73c5-8d83-46e4-865a-70a922fffb36" d="M1059.87,980.41q-2.92,0-5.85-.25a66.07,66.07,0,0,1-44.82-23.41l-58.28-69.63a66.07,66.07,0,1,1,101.33-84.8L1110.52,872a66.06,66.06,0,0,1-50.65,108.46Z"/></clipPath><clipPath id="b3bcff07-06d9-4642-8255-fdd69526c78f" transform="translate(-921.36 284.37)"><rect class="aeac73c5-8d83-46e4-865a-70a922fffb36" x="1812.68" y="389.56" width="107.32" height="211.44"/></clipPath><clipPath id="a24b5607-13a3-4e56-aa44-53003bfb18fa" transform="translate(-921.36 284.37)"><path class="aeac73c5-8d83-46e4-865a-70a922fffb36" d="M1962.72,605.1q-2.91,0-5.84-.25a66.05,66.05,0,0,1-44.82-23.41l-58.28-69.63A66.06,66.06,0,1,1,1955.1,427l58.28,69.63a66.06,66.06,0,0,1-50.66,108.46Z"/></clipPath><clipPath id="f04e8e8a-dc34-4407-8fb5-6ffba12ac3d8" transform="translate(-921.36 284.37)"><rect class="aeac73c5-8d83-46e4-865a-70a922fffb36" x="1300.31" width="257.29" height="186.02"/></clipPath><clipPath id="a83b48f8-5577-46d4-af5b-b1b51a59c1a2" transform="translate(-921.36 284.37)"><path class="aeac73c5-8d83-46e4-865a-70a922fffb36" d="M1460.24,175.85q-2.92,0-5.85-.26a66.07,66.07,0,0,1-44.82-23.41l-58.28-69.63a66.07,66.07,0,0,1,101.33-84.8l58.28,69.63a66.08,66.08,0,0,1-50.66,108.47Z"/></clipPath><clipPath id="e58543e9-1114-4175-a1e1-ef260cbeff2a" transform="translate(-921.36 284.37)"><rect class="aeac73c5-8d83-46e4-865a-70a922fffb36" x="1773.87" y="691.51" width="146.13" height="270.66"/></clipPath><clipPath id="b88f9082-b344-4650-9f5f-654d9138e6bb" transform="translate(-921.36 284.37)"><rect class="aeac73c5-8d83-46e4-865a-70a922fffb36" x="1103.45" width="634.5" height="1080"/></clipPath></defs><g id="e3b0b71f-7aea-45c8-bc29-4dae6ab93dd0" data-name="OBJECTS"><path class="a692deff-b0e2-404d-82bf-5038e78df5a5" d="M1043.06,471.74a113.87,113.87,0,1,1,113.86-113.86A114,114,0,0,1,1043.06,471.74Zm0-157.73a43.87,43.87,0,1,0,43.86,43.87A43.92,43.92,0,0,0,1043.06,314Z" transform="translate(-921.36 284.37)"/><path class="ba8362fc-22eb-4549-af30-06cd88778b7d" d="M1920,724.32,1579,314.54A318.49,318.49,0,0,0,1089.38,722l297.92,358H1920Z" transform="translate(-921.36 284.37)"/><path class="ee770704-d8da-4a0d-bb99-bc363a9f0438" d="M1605.78,1080l-80.27-96.45A318.47,318.47,0,0,0,980.83,1080Z" transform="translate(-921.36 284.37)"/><g class="ac833e32-339f-4ed9-b246-7dd9314e95cb"><path class="e85e6af0-5dd7-4bc6-a5e2-826a3b6e88d9" d="M926.81,985.12a2.73,2.73,0,1,1-2.73-2.73A2.73,2.73,0,0,1,926.81,985.12Z" transform="translate(-921.36 284.37)"/><path class="e85e6af0-5dd7-4bc6-a5e2-826a3b6e88d9" d="M959.63,985.12a2.73,2.73,0,1,1-2.73-2.73A2.73,2.73,0,0,1,959.63,985.12Z" transform="translate(-921.36 284.37)"/><path class="e85e6af0-5dd7-4bc6-a5e2-826a3b6e88d9" d="M992.45,985.12a2.73,2.73,0,1,1-2.73-2.73A2.73,2.73,0,0,1,992.45,985.12Z" transform="translate(-921.36 284.37)"/><path class="e85e6af0-5dd7-4bc6-a5e2-826a3b6e88d9" d="M1025.27,985.12a2.73,2.73,0,1,1-2.73-2.73A2.73,2.73,0,0,1,1025.27,985.12Z" transform="translate(-921.36 284.37)"/><path class="e85e6af0-5dd7-4bc6-a5e2-826a3b6e88d9" d="M1058.08,985.12a2.73,2.73,0,1,1-2.72-2.73A2.72,2.72,0,0,1,1058.08,985.12Z" transform="translate(-921.36 284.37)"/><path class="e85e6af0-5dd7-4bc6-a5e2-826a3b6e88d9" d="M1090.9,985.12a2.73,2.73,0,1,1-2.73-2.73A2.73,2.73,0,0,1,1090.9,985.12Z" transform="translate(-921.36 284.37)"/><path class="e85e6af0-5dd7-4bc6-a5e2-826a3b6e88d9" d="M1123.72,985.12a2.73,2.73,0,1,1-2.73-2.73A2.73,2.73,0,0,1,1123.72,985.12Z" transform="translate(-921.36 284.37)"/><path class="e85e6af0-5dd7-4bc6-a5e2-826a3b6e88d9" d="M943.18,968.05a2.73,2.73,0,1,1-2.72-2.73A2.72,2.72,0,0,1,943.18,968.05Z" transform="translate(-921.36 284.37)"/><path class="e85e6af0-5dd7-4bc6-a5e2-826a3b6e88d9" d="M976,968.05a2.73,2.73,0,1,1-2.73-2.73A2.73,2.73,0,0,1,976,968.05Z" transform="translate(-921.36 284.37)"/><path class="e85e6af0-5dd7-4bc6-a5e2-826a3b6e88d9" d="M1008.82,968.05a2.73,2.73,0,1,1-2.73-2.73A2.73,2.73,0,0,1,1008.82,968.05Z" transform="translate(-921.36 284.37)"/><path class="e85e6af0-5dd7-4bc6-a5e2-826a3b6e88d9" d="M1041.64,968.05a2.73,2.73,0,1,1-2.73-2.73A2.73,2.73,0,0,1,1041.64,968.05Z" transform="translate(-921.36 284.37)"/><path class="e85e6af0-5dd7-4bc6-a5e2-826a3b6e88d9" d="M1074.46,968.05a2.73,2.73,0,1,1-2.73-2.73A2.73,2.73,0,0,1,1074.46,968.05Z" transform="translate(-921.36 284.37)"/><path class="e85e6af0-5dd7-4bc6-a5e2-826a3b6e88d9" d="M1107.27,968.05a2.73,2.73,0,1,1-2.72-2.73A2.72,2.72,0,0,1,1107.27,968.05Z" transform="translate(-921.36 284.37)"/><path class="e85e6af0-5dd7-4bc6-a5e2-826a3b6e88d9" d="M1140.09,968.05a2.73,2.73,0,1,1-2.73-2.73A2.73,2.73,0,0,1,1140.09,968.05Z" transform="translate(-921.36 284.37)"/><path class="e85e6af0-5dd7-4bc6-a5e2-826a3b6e88d9" d="M926.81,952.77a2.73,2.73,0,1,1-2.73-2.73A2.73,2.73,0,0,1,926.81,952.77Z" transform="translate(-921.36 284.37)"/><path class="e85e6af0-5dd7-4bc6-a5e2-826a3b6e88d9" d="M959.63,952.77A2.73,2.73,0,1,1,956.9,950,2.73,2.73,0,0,1,959.63,952.77Z" transform="translate(-921.36 284.37)"/><path class="e85e6af0-5dd7-4bc6-a5e2-826a3b6e88d9" d="M992.45,952.77a2.73,2.73,0,1,1-2.73-2.73A2.73,2.73,0,0,1,992.45,952.77Z" transform="translate(-921.36 284.37)"/><path class="e85e6af0-5dd7-4bc6-a5e2-826a3b6e88d9" d="M1025.27,952.77a2.73,2.73,0,1,1-2.73-2.73A2.73,2.73,0,0,1,1025.27,952.77Z" transform="translate(-921.36 284.37)"/><path class="e85e6af0-5dd7-4bc6-a5e2-826a3b6e88d9" d="M1058.08,952.77a2.73,2.73,0,1,1-2.72-2.73A2.72,2.72,0,0,1,1058.08,952.77Z" transform="translate(-921.36 284.37)"/><path class="e85e6af0-5dd7-4bc6-a5e2-826a3b6e88d9" d="M1090.9,952.77a2.73,2.73,0,1,1-2.73-2.73A2.73,2.73,0,0,1,1090.9,952.77Z" transform="translate(-921.36 284.37)"/><path class="e85e6af0-5dd7-4bc6-a5e2-826a3b6e88d9" d="M1123.72,952.77A2.73,2.73,0,1,1,1121,950,2.73,2.73,0,0,1,1123.72,952.77Z" transform="translate(-921.36 284.37)"/><path class="e85e6af0-5dd7-4bc6-a5e2-826a3b6e88d9" d="M943.18,935.7a2.73,2.73,0,1,1-2.72-2.73A2.72,2.72,0,0,1,943.18,935.7Z" transform="translate(-921.36 284.37)"/><path class="e85e6af0-5dd7-4bc6-a5e2-826a3b6e88d9" d="M976,935.7a2.73,2.73,0,1,1-2.73-2.73A2.73,2.73,0,0,1,976,935.7Z" transform="translate(-921.36 284.37)"/><path class="e85e6af0-5dd7-4bc6-a5e2-826a3b6e88d9" d="M1008.82,935.7a2.73,2.73,0,1,1-2.73-2.73A2.73,2.73,0,0,1,1008.82,935.7Z" transform="translate(-921.36 284.37)"/><path class="e85e6af0-5dd7-4bc6-a5e2-826a3b6e88d9" d="M1041.64,935.7a2.73,2.73,0,1,1-2.73-2.73A2.73,2.73,0,0,1,1041.64,935.7Z" transform="translate(-921.36 284.37)"/><path class="e85e6af0-5dd7-4bc6-a5e2-826a3b6e88d9" d="M1074.46,935.7a2.73,2.73,0,1,1-2.73-2.73A2.73,2.73,0,0,1,1074.46,935.7Z" transform="translate(-921.36 284.37)"/><path class="e85e6af0-5dd7-4bc6-a5e2-826a3b6e88d9" d="M1107.27,935.7a2.73,2.73,0,1,1-2.72-2.73A2.72,2.72,0,0,1,1107.27,935.7Z" transform="translate(-921.36 284.37)"/><path class="e85e6af0-5dd7-4bc6-a5e2-826a3b6e88d9" d="M1140.09,935.7a2.73,2.73,0,1,1-2.73-2.73A2.73,2.73,0,0,1,1140.09,935.7Z" transform="translate(-921.36 284.37)"/><path class="e85e6af0-5dd7-4bc6-a5e2-826a3b6e88d9" d="M926.81,920.42a2.73,2.73,0,1,1-2.73-2.73A2.73,2.73,0,0,1,926.81,920.42Z" transform="translate(-921.36 284.37)"/><path class="e85e6af0-5dd7-4bc6-a5e2-826a3b6e88d9" d="M959.63,920.42a2.73,2.73,0,1,1-2.73-2.73A2.73,2.73,0,0,1,959.63,920.42Z" transform="translate(-921.36 284.37)"/><path class="e85e6af0-5dd7-4bc6-a5e2-826a3b6e88d9" d="M992.45,920.42a2.73,2.73,0,1,1-2.73-2.73A2.73,2.73,0,0,1,992.45,920.42Z" transform="translate(-921.36 284.37)"/><path class="e85e6af0-5dd7-4bc6-a5e2-826a3b6e88d9" d="M1025.27,920.42a2.73,2.73,0,1,1-2.73-2.73A2.73,2.73,0,0,1,1025.27,920.42Z" transform="translate(-921.36 284.37)"/><path class="e85e6af0-5dd7-4bc6-a5e2-826a3b6e88d9" d="M1058.08,920.42a2.73,2.73,0,1,1-2.72-2.73A2.72,2.72,0,0,1,1058.08,920.42Z" transform="translate(-921.36 284.37)"/><path class="e85e6af0-5dd7-4bc6-a5e2-826a3b6e88d9" d="M1090.9,920.42a2.73,2.73,0,1,1-2.73-2.73A2.73,2.73,0,0,1,1090.9,920.42Z" transform="translate(-921.36 284.37)"/><path class="e85e6af0-5dd7-4bc6-a5e2-826a3b6e88d9" d="M1123.72,920.42a2.73,2.73,0,1,1-2.73-2.73A2.73,2.73,0,0,1,1123.72,920.42Z" transform="translate(-921.36 284.37)"/><path class="e85e6af0-5dd7-4bc6-a5e2-826a3b6e88d9" d="M943.18,903.35a2.73,2.73,0,1,1-2.72-2.73A2.72,2.72,0,0,1,943.18,903.35Z" transform="translate(-921.36 284.37)"/><path class="e85e6af0-5dd7-4bc6-a5e2-826a3b6e88d9" d="M976,903.35a2.73,2.73,0,1,1-2.73-2.73A2.73,2.73,0,0,1,976,903.35Z" transform="translate(-921.36 284.37)"/><path class="e85e6af0-5dd7-4bc6-a5e2-826a3b6e88d9" d="M1008.82,903.35a2.73,2.73,0,1,1-2.73-2.73A2.73,2.73,0,0,1,1008.82,903.35Z" transform="translate(-921.36 284.37)"/><path class="e85e6af0-5dd7-4bc6-a5e2-826a3b6e88d9" d="M1041.64,903.35a2.73,2.73,0,1,1-2.73-2.73A2.73,2.73,0,0,1,1041.64,903.35Z" transform="translate(-921.36 284.37)"/><path class="e85e6af0-5dd7-4bc6-a5e2-826a3b6e88d9" d="M1074.46,903.35a2.73,2.73,0,1,1-2.73-2.73A2.73,2.73,0,0,1,1074.46,903.35Z" transform="translate(-921.36 284.37)"/><path class="e85e6af0-5dd7-4bc6-a5e2-826a3b6e88d9" d="M1107.27,903.35a2.73,2.73,0,1,1-2.72-2.73A2.72,2.72,0,0,1,1107.27,903.35Z" transform="translate(-921.36 284.37)"/><path class="e85e6af0-5dd7-4bc6-a5e2-826a3b6e88d9" d="M1140.09,903.35a2.73,2.73,0,1,1-2.73-2.73A2.73,2.73,0,0,1,1140.09,903.35Z" transform="translate(-921.36 284.37)"/><path class="e85e6af0-5dd7-4bc6-a5e2-826a3b6e88d9" d="M926.81,888.07a2.73,2.73,0,1,1-2.73-2.73A2.73,2.73,0,0,1,926.81,888.07Z" transform="translate(-921.36 284.37)"/><path class="e85e6af0-5dd7-4bc6-a5e2-826a3b6e88d9" d="M959.63,888.07a2.73,2.73,0,1,1-2.73-2.73A2.73,2.73,0,0,1,959.63,888.07Z" transform="translate(-921.36 284.37)"/><path class="e85e6af0-5dd7-4bc6-a5e2-826a3b6e88d9" d="M992.45,888.07a2.73,2.73,0,1,1-2.73-2.73A2.73,2.73,0,0,1,992.45,888.07Z" transform="translate(-921.36 284.37)"/><path class="e85e6af0-5dd7-4bc6-a5e2-826a3b6e88d9" d="M1025.27,888.07a2.73,2.73,0,1,1-2.73-2.73A2.73,2.73,0,0,1,1025.27,888.07Z" transform="translate(-921.36 284.37)"/><path class="e85e6af0-5dd7-4bc6-a5e2-826a3b6e88d9" d="M1058.08,888.07a2.73,2.73,0,1,1-2.72-2.73A2.72,2.72,0,0,1,1058.08,888.07Z" transform="translate(-921.36 284.37)"/><path class="e85e6af0-5dd7-4bc6-a5e2-826a3b6e88d9" d="M1090.9,888.07a2.73,2.73,0,1,1-2.73-2.73A2.73,2.73,0,0,1,1090.9,888.07Z" transform="translate(-921.36 284.37)"/><path class="e85e6af0-5dd7-4bc6-a5e2-826a3b6e88d9" d="M1123.72,888.07a2.73,2.73,0,1,1-2.73-2.73A2.73,2.73,0,0,1,1123.72,888.07Z" transform="translate(-921.36 284.37)"/><path class="e85e6af0-5dd7-4bc6-a5e2-826a3b6e88d9" d="M943.18,871a2.73,2.73,0,1,1-2.72-2.73A2.73,2.73,0,0,1,943.18,871Z" transform="translate(-921.36 284.37)"/><path class="e85e6af0-5dd7-4bc6-a5e2-826a3b6e88d9" d="M976,871a2.73,2.73,0,1,1-2.73-2.73A2.73,2.73,0,0,1,976,871Z" transform="translate(-921.36 284.37)"/><path class="e85e6af0-5dd7-4bc6-a5e2-826a3b6e88d9" d="M1008.82,871a2.73,2.73,0,1,1-2.73-2.73A2.73,2.73,0,0,1,1008.82,871Z" transform="translate(-921.36 284.37)"/><path class="e85e6af0-5dd7-4bc6-a5e2-826a3b6e88d9" d="M1041.64,871a2.73,2.73,0,1,1-2.73-2.73A2.73,2.73,0,0,1,1041.64,871Z" transform="translate(-921.36 284.37)"/><path class="e85e6af0-5dd7-4bc6-a5e2-826a3b6e88d9" d="M1074.46,871a2.73,2.73,0,1,1-2.73-2.73A2.74,2.74,0,0,1,1074.46,871Z" transform="translate(-921.36 284.37)"/><path class="e85e6af0-5dd7-4bc6-a5e2-826a3b6e88d9" d="M1107.27,871a2.73,2.73,0,1,1-2.72-2.73A2.73,2.73,0,0,1,1107.27,871Z" transform="translate(-921.36 284.37)"/><path class="e85e6af0-5dd7-4bc6-a5e2-826a3b6e88d9" d="M1140.09,871a2.73,2.73,0,1,1-2.73-2.73A2.73,2.73,0,0,1,1140.09,871Z" transform="translate(-921.36 284.37)"/><path class="e85e6af0-5dd7-4bc6-a5e2-826a3b6e88d9" d="M926.81,855.72a2.73,2.73,0,1,1-2.73-2.73A2.73,2.73,0,0,1,926.81,855.72Z" transform="translate(-921.36 284.37)"/><path class="e85e6af0-5dd7-4bc6-a5e2-826a3b6e88d9" d="M959.63,855.72A2.73,2.73,0,1,1,956.9,853,2.73,2.73,0,0,1,959.63,855.72Z" transform="translate(-921.36 284.37)"/><path class="e85e6af0-5dd7-4bc6-a5e2-826a3b6e88d9" d="M992.45,855.72a2.73,2.73,0,1,1-2.73-2.73A2.73,2.73,0,0,1,992.45,855.72Z" transform="translate(-921.36 284.37)"/><path class="e85e6af0-5dd7-4bc6-a5e2-826a3b6e88d9" d="M1025.27,855.72a2.73,2.73,0,1,1-2.73-2.73A2.73,2.73,0,0,1,1025.27,855.72Z" transform="translate(-921.36 284.37)"/><path class="e85e6af0-5dd7-4bc6-a5e2-826a3b6e88d9" d="M1058.08,855.72a2.73,2.73,0,1,1-2.72-2.73A2.72,2.72,0,0,1,1058.08,855.72Z" transform="translate(-921.36 284.37)"/><path class="e85e6af0-5dd7-4bc6-a5e2-826a3b6e88d9" d="M1090.9,855.72a2.73,2.73,0,1,1-2.73-2.73A2.73,2.73,0,0,1,1090.9,855.72Z" transform="translate(-921.36 284.37)"/><path class="e85e6af0-5dd7-4bc6-a5e2-826a3b6e88d9" d="M1123.72,855.72A2.73,2.73,0,1,1,1121,853,2.73,2.73,0,0,1,1123.72,855.72Z" transform="translate(-921.36 284.37)"/><path class="e85e6af0-5dd7-4bc6-a5e2-826a3b6e88d9" d="M943.18,838.65a2.73,2.73,0,1,1-2.72-2.73A2.73,2.73,0,0,1,943.18,838.65Z" transform="translate(-921.36 284.37)"/><path class="e85e6af0-5dd7-4bc6-a5e2-826a3b6e88d9" d="M976,838.65a2.73,2.73,0,1,1-2.73-2.73A2.73,2.73,0,0,1,976,838.65Z" transform="translate(-921.36 284.37)"/><path class="e85e6af0-5dd7-4bc6-a5e2-826a3b6e88d9" d="M1008.82,838.65a2.73,2.73,0,1,1-2.73-2.73A2.73,2.73,0,0,1,1008.82,838.65Z" transform="translate(-921.36 284.37)"/><path class="e85e6af0-5dd7-4bc6-a5e2-826a3b6e88d9" d="M1041.64,838.65a2.73,2.73,0,1,1-2.73-2.73A2.73,2.73,0,0,1,1041.64,838.65Z" transform="translate(-921.36 284.37)"/><path class="e85e6af0-5dd7-4bc6-a5e2-826a3b6e88d9" d="M1074.46,838.65a2.73,2.73,0,1,1-2.73-2.73A2.74,2.74,0,0,1,1074.46,838.65Z" transform="translate(-921.36 284.37)"/><path class="e85e6af0-5dd7-4bc6-a5e2-826a3b6e88d9" d="M1107.27,838.65a2.73,2.73,0,1,1-2.72-2.73A2.73,2.73,0,0,1,1107.27,838.65Z" transform="translate(-921.36 284.37)"/><path class="e85e6af0-5dd7-4bc6-a5e2-826a3b6e88d9" d="M1140.09,838.65a2.73,2.73,0,1,1-2.73-2.73A2.73,2.73,0,0,1,1140.09,838.65Z" transform="translate(-921.36 284.37)"/><path class="e85e6af0-5dd7-4bc6-a5e2-826a3b6e88d9" d="M926.81,823.37a2.73,2.73,0,1,1-2.73-2.73A2.73,2.73,0,0,1,926.81,823.37Z" transform="translate(-921.36 284.37)"/><path class="e85e6af0-5dd7-4bc6-a5e2-826a3b6e88d9" d="M959.63,823.37a2.73,2.73,0,1,1-2.73-2.73A2.73,2.73,0,0,1,959.63,823.37Z" transform="translate(-921.36 284.37)"/><path class="e85e6af0-5dd7-4bc6-a5e2-826a3b6e88d9" d="M992.45,823.37a2.73,2.73,0,1,1-2.73-2.73A2.73,2.73,0,0,1,992.45,823.37Z" transform="translate(-921.36 284.37)"/><path class="e85e6af0-5dd7-4bc6-a5e2-826a3b6e88d9" d="M1025.27,823.37a2.73,2.73,0,1,1-2.73-2.73A2.73,2.73,0,0,1,1025.27,823.37Z" transform="translate(-921.36 284.37)"/><path class="e85e6af0-5dd7-4bc6-a5e2-826a3b6e88d9" d="M1058.08,823.37a2.73,2.73,0,1,1-2.72-2.73A2.72,2.72,0,0,1,1058.08,823.37Z" transform="translate(-921.36 284.37)"/><path class="e85e6af0-5dd7-4bc6-a5e2-826a3b6e88d9" d="M1090.9,823.37a2.73,2.73,0,1,1-2.73-2.73A2.73,2.73,0,0,1,1090.9,823.37Z" transform="translate(-921.36 284.37)"/><path class="e85e6af0-5dd7-4bc6-a5e2-826a3b6e88d9" d="M1123.72,823.37a2.73,2.73,0,1,1-2.73-2.73A2.73,2.73,0,0,1,1123.72,823.37Z" transform="translate(-921.36 284.37)"/><path class="e85e6af0-5dd7-4bc6-a5e2-826a3b6e88d9" d="M943.18,806.3a2.73,2.73,0,1,1-2.72-2.73A2.73,2.73,0,0,1,943.18,806.3Z" transform="translate(-921.36 284.37)"/><path class="e85e6af0-5dd7-4bc6-a5e2-826a3b6e88d9" d="M976,806.3a2.73,2.73,0,1,1-2.73-2.73A2.73,2.73,0,0,1,976,806.3Z" transform="translate(-921.36 284.37)"/><path class="e85e6af0-5dd7-4bc6-a5e2-826a3b6e88d9" d="M1008.82,806.3a2.73,2.73,0,1,1-2.73-2.73A2.73,2.73,0,0,1,1008.82,806.3Z" transform="translate(-921.36 284.37)"/><path class="e85e6af0-5dd7-4bc6-a5e2-826a3b6e88d9" d="M1041.64,806.3a2.73,2.73,0,1,1-2.73-2.73A2.73,2.73,0,0,1,1041.64,806.3Z" transform="translate(-921.36 284.37)"/><path class="e85e6af0-5dd7-4bc6-a5e2-826a3b6e88d9" d="M1074.46,806.3a2.73,2.73,0,1,1-2.73-2.73A2.74,2.74,0,0,1,1074.46,806.3Z" transform="translate(-921.36 284.37)"/><path class="e85e6af0-5dd7-4bc6-a5e2-826a3b6e88d9" d="M1107.27,806.3a2.73,2.73,0,1,1-2.72-2.73A2.73,2.73,0,0,1,1107.27,806.3Z" transform="translate(-921.36 284.37)"/><path class="e85e6af0-5dd7-4bc6-a5e2-826a3b6e88d9" d="M1140.09,806.3a2.73,2.73,0,1,1-2.73-2.73A2.73,2.73,0,0,1,1140.09,806.3Z" transform="translate(-921.36 284.37)"/><circle class="e85e6af0-5dd7-4bc6-a5e2-826a3b6e88d9" cx="2.73" cy="1075.39" r="2.73"/><path class="e85e6af0-5dd7-4bc6-a5e2-826a3b6e88d9" d="M959.63,791a2.73,2.73,0,1,1-2.73-2.73A2.73,2.73,0,0,1,959.63,791Z" transform="translate(-921.36 284.37)"/><path class="e85e6af0-5dd7-4bc6-a5e2-826a3b6e88d9" d="M992.45,791a2.73,2.73,0,1,1-2.73-2.73A2.73,2.73,0,0,1,992.45,791Z" transform="translate(-921.36 284.37)"/><path class="e85e6af0-5dd7-4bc6-a5e2-826a3b6e88d9" d="M1025.27,791a2.73,2.73,0,1,1-2.73-2.73A2.73,2.73,0,0,1,1025.27,791Z" transform="translate(-921.36 284.37)"/><circle class="e85e6af0-5dd7-4bc6-a5e2-826a3b6e88d9" cx="134" cy="1075.39" r="2.73"/><path class="e85e6af0-5dd7-4bc6-a5e2-826a3b6e88d9" d="M1090.9,791a2.73,2.73,0,1,1-2.73-2.73A2.73,2.73,0,0,1,1090.9,791Z" transform="translate(-921.36 284.37)"/><path class="e85e6af0-5dd7-4bc6-a5e2-826a3b6e88d9" d="M1123.72,791a2.73,2.73,0,1,1-2.73-2.73A2.73,2.73,0,0,1,1123.72,791Z" transform="translate(-921.36 284.37)"/><path class="e85e6af0-5dd7-4bc6-a5e2-826a3b6e88d9" d="M943.18,774a2.73,2.73,0,1,1-2.72-2.73A2.73,2.73,0,0,1,943.18,774Z" transform="translate(-921.36 284.37)"/><path class="e85e6af0-5dd7-4bc6-a5e2-826a3b6e88d9" d="M976,774a2.73,2.73,0,1,1-2.73-2.73A2.73,2.73,0,0,1,976,774Z" transform="translate(-921.36 284.37)"/><path class="e85e6af0-5dd7-4bc6-a5e2-826a3b6e88d9" d="M1008.82,774a2.73,2.73,0,1,1-2.73-2.73A2.73,2.73,0,0,1,1008.82,774Z" transform="translate(-921.36 284.37)"/><path class="e85e6af0-5dd7-4bc6-a5e2-826a3b6e88d9" d="M1041.64,774a2.73,2.73,0,1,1-2.73-2.73A2.73,2.73,0,0,1,1041.64,774Z" transform="translate(-921.36 284.37)"/><path class="e85e6af0-5dd7-4bc6-a5e2-826a3b6e88d9" d="M1074.46,774a2.73,2.73,0,1,1-2.73-2.73A2.74,2.74,0,0,1,1074.46,774Z" transform="translate(-921.36 284.37)"/><path class="e85e6af0-5dd7-4bc6-a5e2-826a3b6e88d9" d="M1107.27,774a2.73,2.73,0,1,1-2.72-2.73A2.73,2.73,0,0,1,1107.27,774Z" transform="translate(-921.36 284.37)"/><path class="e85e6af0-5dd7-4bc6-a5e2-826a3b6e88d9" d="M1140.09,774a2.73,2.73,0,1,1-2.73-2.73A2.73,2.73,0,0,1,1140.09,774Z" transform="translate(-921.36 284.37)"/></g><g class="a002ce68-1ccf-4fd1-aa35-e8987d64fa0f"><g class="bd024ef4-0d55-4ac7-bffb-293e490da642"><path class="e85e6af0-5dd7-4bc6-a5e2-826a3b6e88d9" d="M1829.67,609.81a2.73,2.73,0,1,1-2.73-2.73A2.73,2.73,0,0,1,1829.67,609.81Z" transform="translate(-921.36 284.37)"/><path class="e85e6af0-5dd7-4bc6-a5e2-826a3b6e88d9" d="M1862.49,609.81a2.73,2.73,0,1,1-2.73-2.73A2.73,2.73,0,0,1,1862.49,609.81Z" transform="translate(-921.36 284.37)"/><path class="e85e6af0-5dd7-4bc6-a5e2-826a3b6e88d9" d="M1895.3,609.81a2.73,2.73,0,1,1-2.73-2.73A2.73,2.73,0,0,1,1895.3,609.81Z" transform="translate(-921.36 284.37)"/><path class="e85e6af0-5dd7-4bc6-a5e2-826a3b6e88d9" d="M1928.12,609.81a2.73,2.73,0,1,1-2.73-2.73A2.73,2.73,0,0,1,1928.12,609.81Z" transform="translate(-921.36 284.37)"/><path class="e85e6af0-5dd7-4bc6-a5e2-826a3b6e88d9" d="M1960.94,609.81a2.73,2.73,0,1,1-2.73-2.73A2.73,2.73,0,0,1,1960.94,609.81Z" transform="translate(-921.36 284.37)"/><path class="e85e6af0-5dd7-4bc6-a5e2-826a3b6e88d9" d="M1993.76,609.81a2.73,2.73,0,1,1-2.73-2.73A2.73,2.73,0,0,1,1993.76,609.81Z" transform="translate(-921.36 284.37)"/><path class="e85e6af0-5dd7-4bc6-a5e2-826a3b6e88d9" d="M2026.58,609.81a2.73,2.73,0,1,1-2.73-2.73A2.73,2.73,0,0,1,2026.58,609.81Z" transform="translate(-921.36 284.37)"/><path class="e85e6af0-5dd7-4bc6-a5e2-826a3b6e88d9" d="M1846,592.74a2.73,2.73,0,1,1-2.73-2.73A2.73,2.73,0,0,1,1846,592.74Z" transform="translate(-921.36 284.37)"/><path class="e85e6af0-5dd7-4bc6-a5e2-826a3b6e88d9" d="M1878.86,592.74a2.73,2.73,0,1,1-2.73-2.73A2.73,2.73,0,0,1,1878.86,592.74Z" transform="translate(-921.36 284.37)"/><path class="e85e6af0-5dd7-4bc6-a5e2-826a3b6e88d9" d="M1911.68,592.74A2.73,2.73,0,1,1,1909,590,2.73,2.73,0,0,1,1911.68,592.74Z" transform="translate(-921.36 284.37)"/><path class="e85e6af0-5dd7-4bc6-a5e2-826a3b6e88d9" d="M1944.49,592.74a2.73,2.73,0,1,1-2.73-2.73A2.73,2.73,0,0,1,1944.49,592.74Z" transform="translate(-921.36 284.37)"/><path class="e85e6af0-5dd7-4bc6-a5e2-826a3b6e88d9" d="M1977.31,592.74a2.73,2.73,0,1,1-2.73-2.73A2.73,2.73,0,0,1,1977.31,592.74Z" transform="translate(-921.36 284.37)"/><path class="e85e6af0-5dd7-4bc6-a5e2-826a3b6e88d9" d="M2010.13,592.74a2.73,2.73,0,1,1-2.73-2.73A2.73,2.73,0,0,1,2010.13,592.74Z" transform="translate(-921.36 284.37)"/><path class="e85e6af0-5dd7-4bc6-a5e2-826a3b6e88d9" d="M2043,592.74a2.73,2.73,0,1,1-2.73-2.73A2.73,2.73,0,0,1,2043,592.74Z" transform="translate(-921.36 284.37)"/><path class="e85e6af0-5dd7-4bc6-a5e2-826a3b6e88d9" d="M1829.67,577.46a2.73,2.73,0,1,1-2.73-2.73A2.73,2.73,0,0,1,1829.67,577.46Z" transform="translate(-921.36 284.37)"/><path class="e85e6af0-5dd7-4bc6-a5e2-826a3b6e88d9" d="M1862.49,577.46a2.73,2.73,0,1,1-2.73-2.73A2.73,2.73,0,0,1,1862.49,577.46Z" transform="translate(-921.36 284.37)"/><path class="e85e6af0-5dd7-4bc6-a5e2-826a3b6e88d9" d="M1895.3,577.46a2.73,2.73,0,1,1-2.73-2.73A2.73,2.73,0,0,1,1895.3,577.46Z" transform="translate(-921.36 284.37)"/><path class="e85e6af0-5dd7-4bc6-a5e2-826a3b6e88d9" d="M1928.12,577.46a2.73,2.73,0,1,1-2.73-2.73A2.73,2.73,0,0,1,1928.12,577.46Z" transform="translate(-921.36 284.37)"/><path class="e85e6af0-5dd7-4bc6-a5e2-826a3b6e88d9" d="M1960.94,577.46a2.73,2.73,0,1,1-2.73-2.73A2.73,2.73,0,0,1,1960.94,577.46Z" transform="translate(-921.36 284.37)"/><path class="e85e6af0-5dd7-4bc6-a5e2-826a3b6e88d9" d="M1993.76,577.46a2.73,2.73,0,1,1-2.73-2.73A2.73,2.73,0,0,1,1993.76,577.46Z" transform="translate(-921.36 284.37)"/><path class="e85e6af0-5dd7-4bc6-a5e2-826a3b6e88d9" d="M2026.58,577.46a2.73,2.73,0,1,1-2.73-2.73A2.73,2.73,0,0,1,2026.58,577.46Z" transform="translate(-921.36 284.37)"/><path class="e85e6af0-5dd7-4bc6-a5e2-826a3b6e88d9" d="M1846,560.39a2.73,2.73,0,1,1-2.73-2.73A2.73,2.73,0,0,1,1846,560.39Z" transform="translate(-921.36 284.37)"/><path class="e85e6af0-5dd7-4bc6-a5e2-826a3b6e88d9" d="M1878.86,560.39a2.73,2.73,0,1,1-2.73-2.73A2.73,2.73,0,0,1,1878.86,560.39Z" transform="translate(-921.36 284.37)"/><path class="e85e6af0-5dd7-4bc6-a5e2-826a3b6e88d9" d="M1911.68,560.39a2.73,2.73,0,1,1-2.73-2.73A2.73,2.73,0,0,1,1911.68,560.39Z" transform="translate(-921.36 284.37)"/><path class="e85e6af0-5dd7-4bc6-a5e2-826a3b6e88d9" d="M1944.49,560.39a2.73,2.73,0,1,1-2.73-2.73A2.73,2.73,0,0,1,1944.49,560.39Z" transform="translate(-921.36 284.37)"/><path class="e85e6af0-5dd7-4bc6-a5e2-826a3b6e88d9" d="M1977.31,560.39a2.73,2.73,0,1,1-2.73-2.73A2.73,2.73,0,0,1,1977.31,560.39Z" transform="translate(-921.36 284.37)"/><path class="e85e6af0-5dd7-4bc6-a5e2-826a3b6e88d9" d="M2010.13,560.39a2.73,2.73,0,1,1-2.73-2.73A2.73,2.73,0,0,1,2010.13,560.39Z" transform="translate(-921.36 284.37)"/><path class="e85e6af0-5dd7-4bc6-a5e2-826a3b6e88d9" d="M2043,560.39a2.73,2.73,0,1,1-2.73-2.73A2.73,2.73,0,0,1,2043,560.39Z" transform="translate(-921.36 284.37)"/><path class="e85e6af0-5dd7-4bc6-a5e2-826a3b6e88d9" d="M1829.67,545.11a2.73,2.73,0,1,1-2.73-2.73A2.73,2.73,0,0,1,1829.67,545.11Z" transform="translate(-921.36 284.37)"/><path class="e85e6af0-5dd7-4bc6-a5e2-826a3b6e88d9" d="M1862.49,545.11a2.73,2.73,0,1,1-2.73-2.73A2.73,2.73,0,0,1,1862.49,545.11Z" transform="translate(-921.36 284.37)"/><path class="e85e6af0-5dd7-4bc6-a5e2-826a3b6e88d9" d="M1895.3,545.11a2.73,2.73,0,1,1-2.73-2.73A2.73,2.73,0,0,1,1895.3,545.11Z" transform="translate(-921.36 284.37)"/><path class="e85e6af0-5dd7-4bc6-a5e2-826a3b6e88d9" d="M1928.12,545.11a2.73,2.73,0,1,1-2.73-2.73A2.73,2.73,0,0,1,1928.12,545.11Z" transform="translate(-921.36 284.37)"/><path class="e85e6af0-5dd7-4bc6-a5e2-826a3b6e88d9" d="M1960.94,545.11a2.73,2.73,0,1,1-2.73-2.73A2.73,2.73,0,0,1,1960.94,545.11Z" transform="translate(-921.36 284.37)"/><path class="e85e6af0-5dd7-4bc6-a5e2-826a3b6e88d9" d="M1993.76,545.11a2.73,2.73,0,1,1-2.73-2.73A2.73,2.73,0,0,1,1993.76,545.11Z" transform="translate(-921.36 284.37)"/><path class="e85e6af0-5dd7-4bc6-a5e2-826a3b6e88d9" d="M2026.58,545.11a2.73,2.73,0,1,1-2.73-2.73A2.73,2.73,0,0,1,2026.58,545.11Z" transform="translate(-921.36 284.37)"/><path class="e85e6af0-5dd7-4bc6-a5e2-826a3b6e88d9" d="M1846,528a2.73,2.73,0,1,1-2.73-2.73A2.73,2.73,0,0,1,1846,528Z" transform="translate(-921.36 284.37)"/><path class="e85e6af0-5dd7-4bc6-a5e2-826a3b6e88d9" d="M1878.86,528a2.73,2.73,0,1,1-2.73-2.73A2.73,2.73,0,0,1,1878.86,528Z" transform="translate(-921.36 284.37)"/><path class="e85e6af0-5dd7-4bc6-a5e2-826a3b6e88d9" d="M1911.68,528a2.73,2.73,0,1,1-2.73-2.73A2.73,2.73,0,0,1,1911.68,528Z" transform="translate(-921.36 284.37)"/><path class="e85e6af0-5dd7-4bc6-a5e2-826a3b6e88d9" d="M1944.49,528a2.73,2.73,0,1,1-2.73-2.73A2.73,2.73,0,0,1,1944.49,528Z" transform="translate(-921.36 284.37)"/><path class="e85e6af0-5dd7-4bc6-a5e2-826a3b6e88d9" d="M1977.31,528a2.73,2.73,0,1,1-2.73-2.73A2.73,2.73,0,0,1,1977.31,528Z" transform="translate(-921.36 284.37)"/><path class="e85e6af0-5dd7-4bc6-a5e2-826a3b6e88d9" d="M2010.13,528a2.73,2.73,0,1,1-2.73-2.73A2.73,2.73,0,0,1,2010.13,528Z" transform="translate(-921.36 284.37)"/><path class="e85e6af0-5dd7-4bc6-a5e2-826a3b6e88d9" d="M2043,528a2.73,2.73,0,1,1-2.73-2.73A2.73,2.73,0,0,1,2043,528Z" transform="translate(-921.36 284.37)"/><path class="e85e6af0-5dd7-4bc6-a5e2-826a3b6e88d9" d="M1829.67,512.76a2.73,2.73,0,1,1-2.73-2.73A2.73,2.73,0,0,1,1829.67,512.76Z" transform="translate(-921.36 284.37)"/><path class="e85e6af0-5dd7-4bc6-a5e2-826a3b6e88d9" d="M1862.49,512.76a2.73,2.73,0,1,1-2.73-2.73A2.73,2.73,0,0,1,1862.49,512.76Z" transform="translate(-921.36 284.37)"/><path class="e85e6af0-5dd7-4bc6-a5e2-826a3b6e88d9" d="M1895.3,512.76a2.73,2.73,0,1,1-2.73-2.73A2.73,2.73,0,0,1,1895.3,512.76Z" transform="translate(-921.36 284.37)"/><path class="e85e6af0-5dd7-4bc6-a5e2-826a3b6e88d9" d="M1928.12,512.76a2.73,2.73,0,1,1-2.73-2.73A2.73,2.73,0,0,1,1928.12,512.76Z" transform="translate(-921.36 284.37)"/><path class="e85e6af0-5dd7-4bc6-a5e2-826a3b6e88d9" d="M1960.94,512.76a2.73,2.73,0,1,1-2.73-2.73A2.73,2.73,0,0,1,1960.94,512.76Z" transform="translate(-921.36 284.37)"/><path class="e85e6af0-5dd7-4bc6-a5e2-826a3b6e88d9" d="M1993.76,512.76A2.73,2.73,0,1,1,1991,510,2.73,2.73,0,0,1,1993.76,512.76Z" transform="translate(-921.36 284.37)"/><path class="e85e6af0-5dd7-4bc6-a5e2-826a3b6e88d9" d="M2026.58,512.76a2.73,2.73,0,1,1-2.73-2.73A2.73,2.73,0,0,1,2026.58,512.76Z" transform="translate(-921.36 284.37)"/><path class="e85e6af0-5dd7-4bc6-a5e2-826a3b6e88d9" d="M1846,495.69a2.73,2.73,0,1,1-2.73-2.73A2.73,2.73,0,0,1,1846,495.69Z" transform="translate(-921.36 284.37)"/><circle class="e85e6af0-5dd7-4bc6-a5e2-826a3b6e88d9" cx="954.77" cy="780.06" r="2.73"/><path class="e85e6af0-5dd7-4bc6-a5e2-826a3b6e88d9" d="M1911.68,495.69A2.73,2.73,0,1,1,1909,493,2.73,2.73,0,0,1,1911.68,495.69Z" transform="translate(-921.36 284.37)"/><path class="e85e6af0-5dd7-4bc6-a5e2-826a3b6e88d9" d="M1944.49,495.69a2.73,2.73,0,1,1-2.73-2.73A2.73,2.73,0,0,1,1944.49,495.69Z" transform="translate(-921.36 284.37)"/><path class="e85e6af0-5dd7-4bc6-a5e2-826a3b6e88d9" d="M1977.31,495.69a2.73,2.73,0,1,1-2.73-2.73A2.73,2.73,0,0,1,1977.31,495.69Z" transform="translate(-921.36 284.37)"/><circle class="e85e6af0-5dd7-4bc6-a5e2-826a3b6e88d9" cx="1086.05" cy="780.06" r="2.73"/><path class="e85e6af0-5dd7-4bc6-a5e2-826a3b6e88d9" d="M2043,495.69a2.73,2.73,0,1,1-2.73-2.73A2.73,2.73,0,0,1,2043,495.69Z" transform="translate(-921.36 284.37)"/><path class="e85e6af0-5dd7-4bc6-a5e2-826a3b6e88d9" d="M1829.67,480.41a2.73,2.73,0,1,1-2.73-2.73A2.73,2.73,0,0,1,1829.67,480.41Z" transform="translate(-921.36 284.37)"/><path class="e85e6af0-5dd7-4bc6-a5e2-826a3b6e88d9" d="M1862.49,480.41a2.73,2.73,0,1,1-2.73-2.73A2.73,2.73,0,0,1,1862.49,480.41Z" transform="translate(-921.36 284.37)"/><path class="e85e6af0-5dd7-4bc6-a5e2-826a3b6e88d9" d="M1895.3,480.41a2.73,2.73,0,1,1-2.73-2.73A2.73,2.73,0,0,1,1895.3,480.41Z" transform="translate(-921.36 284.37)"/><circle class="e85e6af0-5dd7-4bc6-a5e2-826a3b6e88d9" cx="1004.04" cy="764.78" r="2.73"/><path class="e85e6af0-5dd7-4bc6-a5e2-826a3b6e88d9" d="M1960.94,480.41a2.73,2.73,0,1,1-2.73-2.73A2.73,2.73,0,0,1,1960.94,480.41Z" transform="translate(-921.36 284.37)"/><path class="e85e6af0-5dd7-4bc6-a5e2-826a3b6e88d9" d="M1993.76,480.41a2.73,2.73,0,1,1-2.73-2.73A2.73,2.73,0,0,1,1993.76,480.41Z" transform="translate(-921.36 284.37)"/><path class="e85e6af0-5dd7-4bc6-a5e2-826a3b6e88d9" d="M2026.58,480.41a2.73,2.73,0,1,1-2.73-2.73A2.73,2.73,0,0,1,2026.58,480.41Z" transform="translate(-921.36 284.37)"/><path class="e85e6af0-5dd7-4bc6-a5e2-826a3b6e88d9" d="M1846,463.34a2.73,2.73,0,1,1-2.73-2.73A2.73,2.73,0,0,1,1846,463.34Z" transform="translate(-921.36 284.37)"/><circle class="e85e6af0-5dd7-4bc6-a5e2-826a3b6e88d9" cx="954.77" cy="747.71" r="2.73"/><path class="e85e6af0-5dd7-4bc6-a5e2-826a3b6e88d9" d="M1911.68,463.34a2.73,2.73,0,1,1-2.73-2.73A2.73,2.73,0,0,1,1911.68,463.34Z" transform="translate(-921.36 284.37)"/><path class="e85e6af0-5dd7-4bc6-a5e2-826a3b6e88d9" d="M1944.49,463.34a2.73,2.73,0,1,1-2.73-2.73A2.73,2.73,0,0,1,1944.49,463.34Z" transform="translate(-921.36 284.37)"/><path class="e85e6af0-5dd7-4bc6-a5e2-826a3b6e88d9" d="M1977.31,463.34a2.73,2.73,0,1,1-2.73-2.73A2.73,2.73,0,0,1,1977.31,463.34Z" transform="translate(-921.36 284.37)"/><circle class="e85e6af0-5dd7-4bc6-a5e2-826a3b6e88d9" cx="1086.05" cy="747.71" r="2.73"/><path class="e85e6af0-5dd7-4bc6-a5e2-826a3b6e88d9" d="M2043,463.34a2.73,2.73,0,1,1-2.73-2.73A2.73,2.73,0,0,1,2043,463.34Z" transform="translate(-921.36 284.37)"/><path class="e85e6af0-5dd7-4bc6-a5e2-826a3b6e88d9" d="M1829.67,448.06a2.73,2.73,0,1,1-2.73-2.73A2.73,2.73,0,0,1,1829.67,448.06Z" transform="translate(-921.36 284.37)"/><path class="e85e6af0-5dd7-4bc6-a5e2-826a3b6e88d9" d="M1862.49,448.06a2.73,2.73,0,1,1-2.73-2.73A2.73,2.73,0,0,1,1862.49,448.06Z" transform="translate(-921.36 284.37)"/><path class="e85e6af0-5dd7-4bc6-a5e2-826a3b6e88d9" d="M1895.3,448.06a2.73,2.73,0,1,1-2.73-2.73A2.73,2.73,0,0,1,1895.3,448.06Z" transform="translate(-921.36 284.37)"/><circle class="e85e6af0-5dd7-4bc6-a5e2-826a3b6e88d9" cx="1004.04" cy="732.43" r="2.73"/><path class="e85e6af0-5dd7-4bc6-a5e2-826a3b6e88d9" d="M1960.94,448.06a2.73,2.73,0,1,1-2.73-2.73A2.73,2.73,0,0,1,1960.94,448.06Z" transform="translate(-921.36 284.37)"/><path class="e85e6af0-5dd7-4bc6-a5e2-826a3b6e88d9" d="M1993.76,448.06a2.73,2.73,0,1,1-2.73-2.73A2.73,2.73,0,0,1,1993.76,448.06Z" transform="translate(-921.36 284.37)"/><path class="e85e6af0-5dd7-4bc6-a5e2-826a3b6e88d9" d="M2026.58,448.06a2.73,2.73,0,1,1-2.73-2.73A2.73,2.73,0,0,1,2026.58,448.06Z" transform="translate(-921.36 284.37)"/><path class="e85e6af0-5dd7-4bc6-a5e2-826a3b6e88d9" d="M1846,431a2.73,2.73,0,1,1-2.73-2.73A2.73,2.73,0,0,1,1846,431Z" transform="translate(-921.36 284.37)"/><path class="e85e6af0-5dd7-4bc6-a5e2-826a3b6e88d9" d="M1878.86,431a2.73,2.73,0,1,1-2.73-2.73A2.73,2.73,0,0,1,1878.86,431Z" transform="translate(-921.36 284.37)"/><path class="e85e6af0-5dd7-4bc6-a5e2-826a3b6e88d9" d="M1911.68,431a2.73,2.73,0,1,1-2.73-2.73A2.74,2.74,0,0,1,1911.68,431Z" transform="translate(-921.36 284.37)"/><path class="e85e6af0-5dd7-4bc6-a5e2-826a3b6e88d9" d="M1944.49,431a2.73,2.73,0,1,1-2.73-2.73A2.73,2.73,0,0,1,1944.49,431Z" transform="translate(-921.36 284.37)"/><path class="e85e6af0-5dd7-4bc6-a5e2-826a3b6e88d9" d="M1977.31,431a2.73,2.73,0,1,1-2.73-2.73A2.73,2.73,0,0,1,1977.31,431Z" transform="translate(-921.36 284.37)"/><path class="e85e6af0-5dd7-4bc6-a5e2-826a3b6e88d9" d="M2010.13,431a2.73,2.73,0,1,1-2.73-2.73A2.73,2.73,0,0,1,2010.13,431Z" transform="translate(-921.36 284.37)"/><path class="e85e6af0-5dd7-4bc6-a5e2-826a3b6e88d9" d="M2043,431a2.73,2.73,0,1,1-2.73-2.73A2.73,2.73,0,0,1,2043,431Z" transform="translate(-921.36 284.37)"/><path class="e85e6af0-5dd7-4bc6-a5e2-826a3b6e88d9" d="M1829.67,415.71a2.73,2.73,0,1,1-2.73-2.73A2.73,2.73,0,0,1,1829.67,415.71Z" transform="translate(-921.36 284.37)"/><path class="e85e6af0-5dd7-4bc6-a5e2-826a3b6e88d9" d="M1862.49,415.71a2.73,2.73,0,1,1-2.73-2.73A2.73,2.73,0,0,1,1862.49,415.71Z" transform="translate(-921.36 284.37)"/><path class="e85e6af0-5dd7-4bc6-a5e2-826a3b6e88d9" d="M1895.3,415.71a2.73,2.73,0,1,1-2.73-2.73A2.73,2.73,0,0,1,1895.3,415.71Z" transform="translate(-921.36 284.37)"/><path class="e85e6af0-5dd7-4bc6-a5e2-826a3b6e88d9" d="M1928.12,415.71a2.73,2.73,0,1,1-2.73-2.73A2.73,2.73,0,0,1,1928.12,415.71Z" transform="translate(-921.36 284.37)"/><path class="e85e6af0-5dd7-4bc6-a5e2-826a3b6e88d9" d="M1960.94,415.71a2.73,2.73,0,1,1-2.73-2.73A2.73,2.73,0,0,1,1960.94,415.71Z" transform="translate(-921.36 284.37)"/><path class="e85e6af0-5dd7-4bc6-a5e2-826a3b6e88d9" d="M1993.76,415.71A2.73,2.73,0,1,1,1991,413,2.73,2.73,0,0,1,1993.76,415.71Z" transform="translate(-921.36 284.37)"/><path class="e85e6af0-5dd7-4bc6-a5e2-826a3b6e88d9" d="M2026.58,415.71a2.73,2.73,0,1,1-2.73-2.73A2.73,2.73,0,0,1,2026.58,415.71Z" transform="translate(-921.36 284.37)"/><path class="e85e6af0-5dd7-4bc6-a5e2-826a3b6e88d9" d="M1846,398.64a2.73,2.73,0,1,1-2.73-2.73A2.73,2.73,0,0,1,1846,398.64Z" transform="translate(-921.36 284.37)"/><path class="e85e6af0-5dd7-4bc6-a5e2-826a3b6e88d9" d="M1878.86,398.64a2.73,2.73,0,1,1-2.73-2.73A2.73,2.73,0,0,1,1878.86,398.64Z" transform="translate(-921.36 284.37)"/><path class="e85e6af0-5dd7-4bc6-a5e2-826a3b6e88d9" d="M1911.68,398.64a2.73,2.73,0,1,1-2.73-2.73A2.74,2.74,0,0,1,1911.68,398.64Z" transform="translate(-921.36 284.37)"/><path class="e85e6af0-5dd7-4bc6-a5e2-826a3b6e88d9" d="M1944.49,398.64a2.73,2.73,0,1,1-2.73-2.73A2.73,2.73,0,0,1,1944.49,398.64Z" transform="translate(-921.36 284.37)"/><path class="e85e6af0-5dd7-4bc6-a5e2-826a3b6e88d9" d="M1977.31,398.64a2.73,2.73,0,1,1-2.73-2.73A2.73,2.73,0,0,1,1977.31,398.64Z" transform="translate(-921.36 284.37)"/><path class="e85e6af0-5dd7-4bc6-a5e2-826a3b6e88d9" d="M2010.13,398.64a2.73,2.73,0,1,1-2.73-2.73A2.73,2.73,0,0,1,2010.13,398.64Z" transform="translate(-921.36 284.37)"/><path class="e85e6af0-5dd7-4bc6-a5e2-826a3b6e88d9" d="M2043,398.64a2.73,2.73,0,1,1-2.73-2.73A2.73,2.73,0,0,1,2043,398.64Z" transform="translate(-921.36 284.37)"/></g></g><g class="a1a6a9bc-dab5-4842-8d0b-da1aa8b53e68"><g class="afc0e2c3-df1a-4ce9-81d9-70aca460bcaa"><path class="e85e6af0-5dd7-4bc6-a5e2-826a3b6e88d9" d="M1327.18,180.55a2.73,2.73,0,1,1-2.73-2.72A2.73,2.73,0,0,1,1327.18,180.55Z" transform="translate(-921.36 284.37)"/><path class="e85e6af0-5dd7-4bc6-a5e2-826a3b6e88d9" d="M1360,180.55a2.73,2.73,0,1,1-2.73-2.72A2.73,2.73,0,0,1,1360,180.55Z" transform="translate(-921.36 284.37)"/><circle class="e85e6af0-5dd7-4bc6-a5e2-826a3b6e88d9" cx="1390.09" cy="180.55" r="2.73" transform="translate(263.1 1851.52) rotate(-88.96)"/><path class="e85e6af0-5dd7-4bc6-a5e2-826a3b6e88d9" d="M1425.64,180.55a2.73,2.73,0,1,1-2.73-2.72A2.73,2.73,0,0,1,1425.64,180.55Z" transform="translate(-921.36 284.37)"/><path class="e85e6af0-5dd7-4bc6-a5e2-826a3b6e88d9" d="M1458.45,180.55a2.73,2.73,0,1,1-2.72-2.72A2.72,2.72,0,0,1,1458.45,180.55Z" transform="translate(-921.36 284.37)"/><path class="e85e6af0-5dd7-4bc6-a5e2-826a3b6e88d9" d="M1491.27,180.55a2.73,2.73,0,1,1-2.73-2.72A2.73,2.73,0,0,1,1491.27,180.55Z" transform="translate(-921.36 284.37)"/><circle class="e85e6af0-5dd7-4bc6-a5e2-826a3b6e88d9" cx="1521.36" cy="180.55" r="2.73" transform="translate(392 1982.77) rotate(-88.96)"/><path class="e85e6af0-5dd7-4bc6-a5e2-826a3b6e88d9" d="M1343.56,163.48a2.73,2.73,0,1,1-2.73-2.73A2.73,2.73,0,0,1,1343.56,163.48Z" transform="translate(-921.36 284.37)"/><path class="e85e6af0-5dd7-4bc6-a5e2-826a3b6e88d9" d="M1376.37,163.48a2.73,2.73,0,1,1-2.73-2.73A2.73,2.73,0,0,1,1376.37,163.48Z" transform="translate(-921.36 284.37)"/><path class="e85e6af0-5dd7-4bc6-a5e2-826a3b6e88d9" d="M1409.19,163.48a2.73,2.73,0,1,1-2.73-2.73A2.73,2.73,0,0,1,1409.19,163.48Z" transform="translate(-921.36 284.37)"/><path class="e85e6af0-5dd7-4bc6-a5e2-826a3b6e88d9" d="M1442,163.48a2.73,2.73,0,1,1-2.73-2.73A2.73,2.73,0,0,1,1442,163.48Z" transform="translate(-921.36 284.37)"/><path class="e85e6af0-5dd7-4bc6-a5e2-826a3b6e88d9" d="M1474.83,163.48a2.73,2.73,0,1,1-2.73-2.73A2.73,2.73,0,0,1,1474.83,163.48Z" transform="translate(-921.36 284.37)"/><path class="e85e6af0-5dd7-4bc6-a5e2-826a3b6e88d9" d="M1507.65,163.48a2.73,2.73,0,1,1-2.73-2.73A2.73,2.73,0,0,1,1507.65,163.48Z" transform="translate(-921.36 284.37)"/><path class="e85e6af0-5dd7-4bc6-a5e2-826a3b6e88d9" d="M1540.46,163.48a2.73,2.73,0,1,1-2.73-2.73A2.73,2.73,0,0,1,1540.46,163.48Z" transform="translate(-921.36 284.37)"/><path class="e85e6af0-5dd7-4bc6-a5e2-826a3b6e88d9" d="M1327.18,148.2a2.73,2.73,0,1,1-2.73-2.73A2.73,2.73,0,0,1,1327.18,148.2Z" transform="translate(-921.36 284.37)"/><path class="e85e6af0-5dd7-4bc6-a5e2-826a3b6e88d9" d="M1360,148.2a2.73,2.73,0,1,1-2.73-2.73A2.73,2.73,0,0,1,1360,148.2Z" transform="translate(-921.36 284.37)"/><path class="e85e6af0-5dd7-4bc6-a5e2-826a3b6e88d9" d="M1392.82,148.2a2.73,2.73,0,1,1-2.73-2.73A2.73,2.73,0,0,1,1392.82,148.2Z" transform="translate(-921.36 284.37)"/><path class="e85e6af0-5dd7-4bc6-a5e2-826a3b6e88d9" d="M1425.64,148.2a2.73,2.73,0,1,1-2.73-2.73A2.73,2.73,0,0,1,1425.64,148.2Z" transform="translate(-921.36 284.37)"/><path class="e85e6af0-5dd7-4bc6-a5e2-826a3b6e88d9" d="M1458.45,148.2a2.73,2.73,0,1,1-2.72-2.73A2.72,2.72,0,0,1,1458.45,148.2Z" transform="translate(-921.36 284.37)"/><path class="e85e6af0-5dd7-4bc6-a5e2-826a3b6e88d9" d="M1491.27,148.2a2.73,2.73,0,1,1-2.73-2.73A2.73,2.73,0,0,1,1491.27,148.2Z" transform="translate(-921.36 284.37)"/><path class="e85e6af0-5dd7-4bc6-a5e2-826a3b6e88d9" d="M1524.09,148.2a2.73,2.73,0,1,1-2.73-2.73A2.73,2.73,0,0,1,1524.09,148.2Z" transform="translate(-921.36 284.37)"/><path class="e85e6af0-5dd7-4bc6-a5e2-826a3b6e88d9" d="M1343.56,131.13a2.73,2.73,0,1,1-2.73-2.73A2.73,2.73,0,0,1,1343.56,131.13Z" transform="translate(-921.36 284.37)"/><path class="e85e6af0-5dd7-4bc6-a5e2-826a3b6e88d9" d="M1376.37,131.13a2.73,2.73,0,1,1-2.73-2.73A2.73,2.73,0,0,1,1376.37,131.13Z" transform="translate(-921.36 284.37)"/><path class="e85e6af0-5dd7-4bc6-a5e2-826a3b6e88d9" d="M1409.19,131.13a2.73,2.73,0,1,1-2.73-2.73A2.73,2.73,0,0,1,1409.19,131.13Z" transform="translate(-921.36 284.37)"/><path class="e85e6af0-5dd7-4bc6-a5e2-826a3b6e88d9" d="M1442,131.13a2.73,2.73,0,1,1-2.73-2.73A2.73,2.73,0,0,1,1442,131.13Z" transform="translate(-921.36 284.37)"/><path class="e85e6af0-5dd7-4bc6-a5e2-826a3b6e88d9" d="M1474.83,131.13a2.73,2.73,0,1,1-2.73-2.73A2.73,2.73,0,0,1,1474.83,131.13Z" transform="translate(-921.36 284.37)"/><path class="e85e6af0-5dd7-4bc6-a5e2-826a3b6e88d9" d="M1507.65,131.13a2.73,2.73,0,1,1-2.73-2.73A2.73,2.73,0,0,1,1507.65,131.13Z" transform="translate(-921.36 284.37)"/><path class="e85e6af0-5dd7-4bc6-a5e2-826a3b6e88d9" d="M1540.46,131.13a2.73,2.73,0,1,1-2.73-2.73A2.73,2.73,0,0,1,1540.46,131.13Z" transform="translate(-921.36 284.37)"/><path class="e85e6af0-5dd7-4bc6-a5e2-826a3b6e88d9" d="M1327.18,115.85a2.73,2.73,0,1,1-2.73-2.73A2.73,2.73,0,0,1,1327.18,115.85Z" transform="translate(-921.36 284.37)"/><path class="e85e6af0-5dd7-4bc6-a5e2-826a3b6e88d9" d="M1360,115.85a2.73,2.73,0,1,1-2.73-2.73A2.73,2.73,0,0,1,1360,115.85Z" transform="translate(-921.36 284.37)"/><path class="e85e6af0-5dd7-4bc6-a5e2-826a3b6e88d9" d="M1392.82,115.85a2.73,2.73,0,1,1-2.73-2.73A2.73,2.73,0,0,1,1392.82,115.85Z" transform="translate(-921.36 284.37)"/><path class="e85e6af0-5dd7-4bc6-a5e2-826a3b6e88d9" d="M1425.64,115.85a2.73,2.73,0,1,1-2.73-2.73A2.73,2.73,0,0,1,1425.64,115.85Z" transform="translate(-921.36 284.37)"/><path class="e85e6af0-5dd7-4bc6-a5e2-826a3b6e88d9" d="M1458.45,115.85a2.73,2.73,0,1,1-2.72-2.73A2.72,2.72,0,0,1,1458.45,115.85Z" transform="translate(-921.36 284.37)"/><path class="e85e6af0-5dd7-4bc6-a5e2-826a3b6e88d9" d="M1491.27,115.85a2.73,2.73,0,1,1-2.73-2.73A2.73,2.73,0,0,1,1491.27,115.85Z" transform="translate(-921.36 284.37)"/><path class="e85e6af0-5dd7-4bc6-a5e2-826a3b6e88d9" d="M1524.09,115.85a2.73,2.73,0,1,1-2.73-2.73A2.73,2.73,0,0,1,1524.09,115.85Z" transform="translate(-921.36 284.37)"/><path class="e85e6af0-5dd7-4bc6-a5e2-826a3b6e88d9" d="M1343.56,98.78a2.73,2.73,0,1,1-2.73-2.73A2.73,2.73,0,0,1,1343.56,98.78Z" transform="translate(-921.36 284.37)"/><path class="e85e6af0-5dd7-4bc6-a5e2-826a3b6e88d9" d="M1376.37,98.78a2.73,2.73,0,1,1-2.73-2.73A2.73,2.73,0,0,1,1376.37,98.78Z" transform="translate(-921.36 284.37)"/><path class="e85e6af0-5dd7-4bc6-a5e2-826a3b6e88d9" d="M1409.19,98.78a2.73,2.73,0,1,1-2.73-2.73A2.73,2.73,0,0,1,1409.19,98.78Z" transform="translate(-921.36 284.37)"/><path class="e85e6af0-5dd7-4bc6-a5e2-826a3b6e88d9" d="M1442,98.78a2.73,2.73,0,1,1-2.73-2.73A2.73,2.73,0,0,1,1442,98.78Z" transform="translate(-921.36 284.37)"/><path class="e85e6af0-5dd7-4bc6-a5e2-826a3b6e88d9" d="M1474.83,98.78a2.73,2.73,0,1,1-2.73-2.73A2.73,2.73,0,0,1,1474.83,98.78Z" transform="translate(-921.36 284.37)"/><path class="e85e6af0-5dd7-4bc6-a5e2-826a3b6e88d9" d="M1507.65,98.78a2.73,2.73,0,1,1-2.73-2.73A2.73,2.73,0,0,1,1507.65,98.78Z" transform="translate(-921.36 284.37)"/><path class="e85e6af0-5dd7-4bc6-a5e2-826a3b6e88d9" d="M1540.46,98.78a2.73,2.73,0,1,1-2.73-2.73A2.73,2.73,0,0,1,1540.46,98.78Z" transform="translate(-921.36 284.37)"/><path class="e85e6af0-5dd7-4bc6-a5e2-826a3b6e88d9" d="M1327.18,83.5a2.73,2.73,0,1,1-2.73-2.73A2.73,2.73,0,0,1,1327.18,83.5Z" transform="translate(-921.36 284.37)"/><path class="e85e6af0-5dd7-4bc6-a5e2-826a3b6e88d9" d="M1360,83.5a2.73,2.73,0,1,1-2.73-2.73A2.73,2.73,0,0,1,1360,83.5Z" transform="translate(-921.36 284.37)"/><path class="e85e6af0-5dd7-4bc6-a5e2-826a3b6e88d9" d="M1392.82,83.5a2.73,2.73,0,1,1-2.73-2.73A2.73,2.73,0,0,1,1392.82,83.5Z" transform="translate(-921.36 284.37)"/><path class="e85e6af0-5dd7-4bc6-a5e2-826a3b6e88d9" d="M1425.64,83.5a2.73,2.73,0,1,1-2.73-2.73A2.73,2.73,0,0,1,1425.64,83.5Z" transform="translate(-921.36 284.37)"/><path class="e85e6af0-5dd7-4bc6-a5e2-826a3b6e88d9" d="M1458.45,83.5a2.73,2.73,0,1,1-2.72-2.73A2.72,2.72,0,0,1,1458.45,83.5Z" transform="translate(-921.36 284.37)"/><path class="e85e6af0-5dd7-4bc6-a5e2-826a3b6e88d9" d="M1491.27,83.5a2.73,2.73,0,1,1-2.73-2.73A2.73,2.73,0,0,1,1491.27,83.5Z" transform="translate(-921.36 284.37)"/><path class="e85e6af0-5dd7-4bc6-a5e2-826a3b6e88d9" d="M1524.09,83.5a2.73,2.73,0,1,1-2.73-2.73A2.73,2.73,0,0,1,1524.09,83.5Z" transform="translate(-921.36 284.37)"/><path class="e85e6af0-5dd7-4bc6-a5e2-826a3b6e88d9" d="M1343.56,66.43a2.73,2.73,0,1,1-2.73-2.73A2.73,2.73,0,0,1,1343.56,66.43Z" transform="translate(-921.36 284.37)"/><path class="e85e6af0-5dd7-4bc6-a5e2-826a3b6e88d9" d="M1376.37,66.43a2.73,2.73,0,1,1-2.73-2.73A2.73,2.73,0,0,1,1376.37,66.43Z" transform="translate(-921.36 284.37)"/><path class="e85e6af0-5dd7-4bc6-a5e2-826a3b6e88d9" d="M1409.19,66.43a2.73,2.73,0,1,1-2.73-2.73A2.73,2.73,0,0,1,1409.19,66.43Z" transform="translate(-921.36 284.37)"/><path class="e85e6af0-5dd7-4bc6-a5e2-826a3b6e88d9" d="M1442,66.43a2.73,2.73,0,1,1-2.73-2.73A2.73,2.73,0,0,1,1442,66.43Z" transform="translate(-921.36 284.37)"/><path class="e85e6af0-5dd7-4bc6-a5e2-826a3b6e88d9" d="M1474.83,66.43a2.73,2.73,0,1,1-2.73-2.73A2.73,2.73,0,0,1,1474.83,66.43Z" transform="translate(-921.36 284.37)"/><path class="e85e6af0-5dd7-4bc6-a5e2-826a3b6e88d9" d="M1507.65,66.43a2.73,2.73,0,1,1-2.73-2.73A2.73,2.73,0,0,1,1507.65,66.43Z" transform="translate(-921.36 284.37)"/><path class="e85e6af0-5dd7-4bc6-a5e2-826a3b6e88d9" d="M1540.46,66.43a2.73,2.73,0,1,1-2.73-2.73A2.73,2.73,0,0,1,1540.46,66.43Z" transform="translate(-921.36 284.37)"/><path class="e85e6af0-5dd7-4bc6-a5e2-826a3b6e88d9" d="M1327.18,51.15a2.73,2.73,0,1,1-2.73-2.73A2.73,2.73,0,0,1,1327.18,51.15Z" transform="translate(-921.36 284.37)"/><path class="e85e6af0-5dd7-4bc6-a5e2-826a3b6e88d9" d="M1360,51.15a2.73,2.73,0,1,1-2.73-2.73A2.73,2.73,0,0,1,1360,51.15Z" transform="translate(-921.36 284.37)"/><path class="e85e6af0-5dd7-4bc6-a5e2-826a3b6e88d9" d="M1392.82,51.15a2.73,2.73,0,1,1-2.73-2.73A2.73,2.73,0,0,1,1392.82,51.15Z" transform="translate(-921.36 284.37)"/><path class="e85e6af0-5dd7-4bc6-a5e2-826a3b6e88d9" d="M1425.64,51.15a2.73,2.73,0,1,1-2.73-2.73A2.73,2.73,0,0,1,1425.64,51.15Z" transform="translate(-921.36 284.37)"/><path class="e85e6af0-5dd7-4bc6-a5e2-826a3b6e88d9" d="M1458.45,51.15a2.73,2.73,0,1,1-2.72-2.73A2.72,2.72,0,0,1,1458.45,51.15Z" transform="translate(-921.36 284.37)"/><path class="e85e6af0-5dd7-4bc6-a5e2-826a3b6e88d9" d="M1491.27,51.15a2.73,2.73,0,1,1-2.73-2.73A2.73,2.73,0,0,1,1491.27,51.15Z" transform="translate(-921.36 284.37)"/><path class="e85e6af0-5dd7-4bc6-a5e2-826a3b6e88d9" d="M1524.09,51.15a2.73,2.73,0,1,1-2.73-2.73A2.73,2.73,0,0,1,1524.09,51.15Z" transform="translate(-921.36 284.37)"/><path class="e85e6af0-5dd7-4bc6-a5e2-826a3b6e88d9" d="M1343.56,34.08a2.73,2.73,0,1,1-2.73-2.73A2.73,2.73,0,0,1,1343.56,34.08Z" transform="translate(-921.36 284.37)"/><path class="e85e6af0-5dd7-4bc6-a5e2-826a3b6e88d9" d="M1376.37,34.08a2.73,2.73,0,1,1-2.73-2.73A2.73,2.73,0,0,1,1376.37,34.08Z" transform="translate(-921.36 284.37)"/><path class="e85e6af0-5dd7-4bc6-a5e2-826a3b6e88d9" d="M1409.19,34.08a2.73,2.73,0,1,1-2.73-2.73A2.73,2.73,0,0,1,1409.19,34.08Z" transform="translate(-921.36 284.37)"/><path class="e85e6af0-5dd7-4bc6-a5e2-826a3b6e88d9" d="M1442,34.08a2.73,2.73,0,1,1-2.73-2.73A2.73,2.73,0,0,1,1442,34.08Z" transform="translate(-921.36 284.37)"/><path class="e85e6af0-5dd7-4bc6-a5e2-826a3b6e88d9" d="M1474.83,34.08a2.73,2.73,0,1,1-2.73-2.73A2.73,2.73,0,0,1,1474.83,34.08Z" transform="translate(-921.36 284.37)"/><path class="e85e6af0-5dd7-4bc6-a5e2-826a3b6e88d9" d="M1507.65,34.08a2.73,2.73,0,1,1-2.73-2.73A2.73,2.73,0,0,1,1507.65,34.08Z" transform="translate(-921.36 284.37)"/><path class="e85e6af0-5dd7-4bc6-a5e2-826a3b6e88d9" d="M1540.46,34.08a2.73,2.73,0,1,1-2.73-2.73A2.73,2.73,0,0,1,1540.46,34.08Z" transform="translate(-921.36 284.37)"/><path class="e85e6af0-5dd7-4bc6-a5e2-826a3b6e88d9" d="M1327.18,18.8a2.73,2.73,0,1,1-2.73-2.73A2.73,2.73,0,0,1,1327.18,18.8Z" transform="translate(-921.36 284.37)"/><path class="e85e6af0-5dd7-4bc6-a5e2-826a3b6e88d9" d="M1360,18.8a2.73,2.73,0,1,1-2.73-2.73A2.73,2.73,0,0,1,1360,18.8Z" transform="translate(-921.36 284.37)"/><path class="e85e6af0-5dd7-4bc6-a5e2-826a3b6e88d9" d="M1392.82,18.8a2.73,2.73,0,1,1-2.73-2.73A2.73,2.73,0,0,1,1392.82,18.8Z" transform="translate(-921.36 284.37)"/><path class="e85e6af0-5dd7-4bc6-a5e2-826a3b6e88d9" d="M1425.64,18.8a2.73,2.73,0,1,1-2.73-2.73A2.73,2.73,0,0,1,1425.64,18.8Z" transform="translate(-921.36 284.37)"/><path class="e85e6af0-5dd7-4bc6-a5e2-826a3b6e88d9" d="M1458.45,18.8a2.73,2.73,0,1,1-2.72-2.73A2.72,2.72,0,0,1,1458.45,18.8Z" transform="translate(-921.36 284.37)"/><path class="e85e6af0-5dd7-4bc6-a5e2-826a3b6e88d9" d="M1491.27,18.8a2.73,2.73,0,1,1-2.73-2.73A2.73,2.73,0,0,1,1491.27,18.8Z" transform="translate(-921.36 284.37)"/><path class="e85e6af0-5dd7-4bc6-a5e2-826a3b6e88d9" d="M1524.09,18.8a2.73,2.73,0,1,1-2.73-2.73A2.73,2.73,0,0,1,1524.09,18.8Z" transform="translate(-921.36 284.37)"/><path class="e85e6af0-5dd7-4bc6-a5e2-826a3b6e88d9" d="M1343.56,1.73A2.73,2.73,0,1,1,1340.83-1,2.73,2.73,0,0,1,1343.56,1.73Z" transform="translate(-921.36 284.37)"/><path class="e85e6af0-5dd7-4bc6-a5e2-826a3b6e88d9" d="M1376.37,1.73A2.73,2.73,0,1,1,1373.64-1,2.73,2.73,0,0,1,1376.37,1.73Z" transform="translate(-921.36 284.37)"/><path class="e85e6af0-5dd7-4bc6-a5e2-826a3b6e88d9" d="M1409.19,1.73A2.73,2.73,0,1,1,1406.46-1,2.73,2.73,0,0,1,1409.19,1.73Z" transform="translate(-921.36 284.37)"/><path class="e85e6af0-5dd7-4bc6-a5e2-826a3b6e88d9" d="M1442,1.73A2.73,2.73,0,1,1,1439.28-1,2.73,2.73,0,0,1,1442,1.73Z" transform="translate(-921.36 284.37)"/><path class="e85e6af0-5dd7-4bc6-a5e2-826a3b6e88d9" d="M1474.83,1.73A2.73,2.73,0,1,1,1472.1-1,2.73,2.73,0,0,1,1474.83,1.73Z" transform="translate(-921.36 284.37)"/><path class="e85e6af0-5dd7-4bc6-a5e2-826a3b6e88d9" d="M1507.65,1.73A2.73,2.73,0,1,1,1504.92-1,2.73,2.73,0,0,1,1507.65,1.73Z" transform="translate(-921.36 284.37)"/><path class="e85e6af0-5dd7-4bc6-a5e2-826a3b6e88d9" d="M1540.46,1.73A2.73,2.73,0,1,1,1537.73-1,2.73,2.73,0,0,1,1540.46,1.73Z" transform="translate(-921.36 284.37)"/><path class="e85e6af0-5dd7-4bc6-a5e2-826a3b6e88d9" d="M1327.18-13.55a2.73,2.73,0,0,1-2.73,2.73,2.72,2.72,0,0,1-2.72-2.73,2.72,2.72,0,0,1,2.72-2.73A2.73,2.73,0,0,1,1327.18-13.55Z" transform="translate(-921.36 284.37)"/><path class="e85e6af0-5dd7-4bc6-a5e2-826a3b6e88d9" d="M1360-13.55a2.73,2.73,0,0,1-2.73,2.73,2.73,2.73,0,0,1-2.73-2.73,2.73,2.73,0,0,1,2.73-2.73A2.73,2.73,0,0,1,1360-13.55Z" transform="translate(-921.36 284.37)"/><circle class="e85e6af0-5dd7-4bc6-a5e2-826a3b6e88d9" cx="468.74" cy="270.82" r="2.73"/><path class="e85e6af0-5dd7-4bc6-a5e2-826a3b6e88d9" d="M1425.64-13.55a2.73,2.73,0,0,1-2.73,2.73,2.73,2.73,0,0,1-2.73-2.73,2.73,2.73,0,0,1,2.73-2.73A2.73,2.73,0,0,1,1425.64-13.55Z" transform="translate(-921.36 284.37)"/><path class="e85e6af0-5dd7-4bc6-a5e2-826a3b6e88d9" d="M1458.45-13.55a2.72,2.72,0,0,1-2.72,2.73,2.73,2.73,0,0,1-2.73-2.73,2.73,2.73,0,0,1,2.73-2.73A2.72,2.72,0,0,1,1458.45-13.55Z" transform="translate(-921.36 284.37)"/><path class="e85e6af0-5dd7-4bc6-a5e2-826a3b6e88d9" d="M1491.27-13.55a2.73,2.73,0,0,1-2.73,2.73,2.72,2.72,0,0,1-2.72-2.73,2.72,2.72,0,0,1,2.72-2.73A2.73,2.73,0,0,1,1491.27-13.55Z" transform="translate(-921.36 284.37)"/><circle class="e85e6af0-5dd7-4bc6-a5e2-826a3b6e88d9" cx="600.01" cy="270.82" r="2.73"/><path class="e85e6af0-5dd7-4bc6-a5e2-826a3b6e88d9" d="M1343.56-30.62a2.73,2.73,0,0,1-2.73,2.73,2.73,2.73,0,0,1-2.73-2.73,2.73,2.73,0,0,1,2.73-2.73A2.73,2.73,0,0,1,1343.56-30.62Z" transform="translate(-921.36 284.37)"/><path class="e85e6af0-5dd7-4bc6-a5e2-826a3b6e88d9" d="M1376.37-30.62a2.73,2.73,0,0,1-2.73,2.73,2.72,2.72,0,0,1-2.72-2.73,2.72,2.72,0,0,1,2.72-2.73A2.73,2.73,0,0,1,1376.37-30.62Z" transform="translate(-921.36 284.37)"/><path class="e85e6af0-5dd7-4bc6-a5e2-826a3b6e88d9" d="M1409.19-30.62a2.73,2.73,0,0,1-2.73,2.73,2.73,2.73,0,0,1-2.73-2.73,2.73,2.73,0,0,1,2.73-2.73A2.73,2.73,0,0,1,1409.19-30.62Z" transform="translate(-921.36 284.37)"/><path class="e85e6af0-5dd7-4bc6-a5e2-826a3b6e88d9" d="M1442-30.62a2.73,2.73,0,0,1-2.73,2.73,2.73,2.73,0,0,1-2.73-2.73,2.73,2.73,0,0,1,2.73-2.73A2.73,2.73,0,0,1,1442-30.62Z" transform="translate(-921.36 284.37)"/><circle class="e85e6af0-5dd7-4bc6-a5e2-826a3b6e88d9" cx="550.74" cy="253.75" r="2.73"/><path class="e85e6af0-5dd7-4bc6-a5e2-826a3b6e88d9" d="M1507.65-30.62a2.73,2.73,0,0,1-2.73,2.73,2.73,2.73,0,0,1-2.73-2.73,2.73,2.73,0,0,1,2.73-2.73A2.73,2.73,0,0,1,1507.65-30.62Z" transform="translate(-921.36 284.37)"/><path class="e85e6af0-5dd7-4bc6-a5e2-826a3b6e88d9" d="M1540.46-30.62a2.73,2.73,0,0,1-2.73,2.73,2.72,2.72,0,0,1-2.72-2.73,2.72,2.72,0,0,1,2.72-2.73A2.73,2.73,0,0,1,1540.46-30.62Z" transform="translate(-921.36 284.37)"/></g></g><g class="a9090c3c-9bc5-45c9-b875-35763284cca1"><path class="afd1ddd2-bf73-45e5-a02d-6599e3fa67d8" d="M1897.85,944.85A113.87,113.87,0,1,1,2011.71,831,114,114,0,0,1,1897.85,944.85Zm0-157.73A43.87,43.87,0,1,0,1941.71,831,43.92,43.92,0,0,0,1897.85,787.12Z" transform="translate(-921.36 284.37)"/></g><polygon class="a271b9d2-b6cd-428d-ae5b-eb5875ee6e81" points="651.77 1172.94 480.65 966.05 471.92 933.29 332.38 910.62 427.86 1006.92 631.34 1172.94 651.77 1172.94"/><path class="e85e6af0-5dd7-4bc6-a5e2-826a3b6e88d9" d="M1866.75,573.72l-83.14,76.11-135.17-29.66,36.55-2.82a227.05,227.05,0,0,0,78.3-20.53l23.8-11.08a142.89,142.89,0,0,1,79.66-12Z" transform="translate(-921.36 284.37)"/><path class="a271b9d2-b6cd-428d-ae5b-eb5875ee6e81" d="M1348.3,688.78l-3.65,33.87a21.79,21.79,0,0,1-22.85,19.43l-70.6-3.85a13,13,0,0,1-12.27-14.11l1.8-21.11a10.91,10.91,0,0,1,11.35-10l43.68,2,34.4,8.34Z" transform="translate(-921.36 284.37)"/><path class="b745cd3c-90c2-409c-bf53-7ff9f183d396" d="M1203.84,531.16a91.58,91.58,0,0,0,2.26,12.4l67.81,11.57,5.59-12.86,9.21-21.2,4.88-11.22L1218,499.55a11.06,11.06,0,0,0-11.94,7.31c-.18.51-.36,1-.51,1.58C1203.87,513.72,1202.76,521.19,1203.84,531.16Z" transform="translate(-921.36 284.37)"/><path class="b762e4ec-9024-47f7-adfa-0ebb8b063856" d="M1812.68,559l-29.07,90.84-60.87-13.36,54.73-65.05A34.91,34.91,0,0,1,1804.18,559Z" transform="translate(-921.36 284.37)"/><polygon class="b762e4ec-9024-47f7-adfa-0ebb8b063856" points="863.12 955.01 917.02 1036.09 891.32 1034.19 807.58 957.4 863.12 955.01"/><path class="ee770704-d8da-4a0d-bb99-bc363a9f0438" d="M997.13,551.05a237,237,0,0,1,50.41,2.72l738.13,116.82-161.94,7a419.28,419.28,0,0,1-85.3-5l-471.67-76.64c-51.75-8.71-84.8-22.26-104.92-33.61C964.19,554.79,980.75,552,997.13,551.05Z" transform="translate(-921.36 284.37)"/><path class="b90a5139-3daf-4de3-b4f1-9074b68a32a2" d="M947.11,535.8c62.32-26.5,147.61-11.3,147.61-11.3L1630,616.12l189,41.47v11.57l-33.31,1.43L1047.54,553.77a237,237,0,0,0-50.41-2.72c-16.38.92-32.94,3.74-35.29,11.21a145.41,145.41,0,0,1-16.67-10.85A9.1,9.1,0,0,1,947.11,535.8Z" transform="translate(-921.36 284.37)"/><path class="a271b9d2-b6cd-428d-ae5b-eb5875ee6e81" d="M1417.39,733.67a4.93,4.93,0,0,0,1.55-.25l27.39-9.1a4.89,4.89,0,1,0-3.08-9.28l-27.39,9.1a4.89,4.89,0,0,0,1.53,9.53Z" transform="translate(-921.36 284.37)"/><path class="a271b9d2-b6cd-428d-ae5b-eb5875ee6e81" d="M1449.18,771a4.87,4.87,0,0,0,1.54-.25l27.4-9.1a4.89,4.89,0,0,0-3.08-9.28l-27.4,9.11a4.88,4.88,0,0,0,1.54,9.52Z" transform="translate(-921.36 284.37)"/><path class="a271b9d2-b6cd-428d-ae5b-eb5875ee6e81" d="M1481,808.32a4.93,4.93,0,0,0,1.55-.25l27.39-9.1a4.89,4.89,0,1,0-3.08-9.28l-27.4,9.1a4.89,4.89,0,0,0,1.54,9.53Z" transform="translate(-921.36 284.37)"/><path class="e85e6af0-5dd7-4bc6-a5e2-826a3b6e88d9" d="M1633.38,623.61a2,2,0,0,0,.32-3.88l-559.79-94.37a2,2,0,1,0-.65,3.86l559.79,94.37A1.83,1.83,0,0,0,1633.38,623.61Z" transform="translate(-921.36 284.37)"/><path class="b90a5139-3daf-4de3-b4f1-9074b68a32a2" d="M1203.84,531.16l75.66,11.11,15.54,2.28-1.45-22.73-4.88-.75-83.21-12.63C1203.87,513.72,1202.76,521.19,1203.84,531.16Z" transform="translate(-921.36 284.37)"/><polygon class="b745cd3c-90c2-409c-bf53-7ff9f183d396" points="471.11 892.73 471.11 811.86 580.43 554.32 562.21 554.32 525.77 579.99 332.38 836.09 333.16 870.89 471.11 892.73"/><path class="b745cd3c-90c2-409c-bf53-7ff9f183d396" d="M1417.4,437.45h28.87a4.89,4.89,0,0,0,0-9.77H1417.4a4.89,4.89,0,1,0,0,9.77Z" transform="translate(-921.36 284.37)"/><path class="b745cd3c-90c2-409c-bf53-7ff9f183d396" d="M1399,482.9h28.87a4.89,4.89,0,0,0,0-9.78H1399a4.89,4.89,0,0,0,0,9.78Z" transform="translate(-921.36 284.37)"/><path class="b745cd3c-90c2-409c-bf53-7ff9f183d396" d="M1380.6,528.34h28.87a4.89,4.89,0,0,0,0-9.78H1380.6a4.89,4.89,0,1,0,0,9.78Z" transform="translate(-921.36 284.37)"/><path class="e85e6af0-5dd7-4bc6-a5e2-826a3b6e88d9" d="M1024.71,521.69a5.82,5.82,0,0,1-5,2.67H986.9s13-2.35,19.44-2.67Z" transform="translate(-921.36 284.37)"/><polygon class="e85e6af0-5dd7-4bc6-a5e2-826a3b6e88d9" points="471.92 933.29 479.15 960.45 363.05 941.55 332.38 910.62 471.92 933.29"/><g class="f43fc36e-3ee2-4d8a-9b32-e3d8c860d4d4"><path class="afd1ddd2-bf73-45e5-a02d-6599e3fa67d8" d="M1444.31,1175.34a34.94,34.94,0,0,1-26.86-12.53l-277.88-332a35,35,0,1,1,53.68-44.92l277.88,332a35,35,0,0,1-26.82,57.46Z" transform="translate(-921.36 284.37)"/><path class="afd1ddd2-bf73-45e5-a02d-6599e3fa67d8" d="M1652.21,117.66a34.92,34.92,0,0,1-26.85-12.54l-277.89-332a35,35,0,0,1,4.37-49.31,35,35,0,0,1,49.31,4.38L1679,60.19a35,35,0,0,1-26.83,57.47Z" transform="translate(-921.36 284.37)"/><path class="b90a5139-3daf-4de3-b4f1-9074b68a32a2" d="M1678.41,310.81a35,35,0,0,1-26.86-12.54l-277.88-332A35,35,0,0,1,1378-83.06a35,35,0,0,1,49.31,4.38l277.88,332a35,35,0,0,1-26.82,57.47Z" transform="translate(-921.36 284.37)"/><path class="b90a5139-3daf-4de3-b4f1-9074b68a32a2" d="M1454.75,1329.08a34.94,34.94,0,0,1-26.86-12.54L1150,984.52a35,35,0,1,1,53.68-44.93l277.88,332a35,35,0,0,1-26.82,57.47Z" transform="translate(-921.36 284.37)"/></g></g></svg>