<?xml version="1.0" standalone="no"?><svg xmlns:xlink="http://www.w3.org/1999/xlink" xmlns="http://www.w3.org/2000/svg" viewBox="0 0 1000 500.00000000000006" preserveAspectRatio="xMaxYMax slice"><g transform="scale(1.042535446205171)"><rect x="0" y="0" width="959.2" height="479.6" fill="#ffffff"/><path d="M 319.73 0 A 79.93 79.93 0 0 1  399.66 79.93 L 319.73 0 A 79.93 79.93 0 0 0 399.66 79.93" fill="#99aaf2"/><rect x="399.6666666666667" y="0" width="79.93333333333334" height="79.93333333333334" fill="#ffffff"/><path d="M 399.67 39.97 A 39.97 39.97 0 0 1  439.64 0 L 399.67 39.97 A 39.97 39.97 0 0 0 439.64 0" fill="#8ff08e"/><path d="M 439.63 39.97 A 39.97 39.97 0 0 1  479.6 79.94 L 439.63 39.97 A 39.97 39.97 0 0 0 479.6 79.94" fill="#6d86ec"/><rect x="559.5333333333333" y="0" width="79.93333333333334" height="79.93333333333334" fill="#ffffff"/><path d="M 599.5 79.94 A 39.97 39.97 0 0 1  639.47 39.97 L 599.5 79.94 A 39.97 39.97 0 0 0 639.47 39.97" fill="#e8ecfc"/><rect x="79.93333333333334" y="79.93333333333334" width="79.93333333333334" height="79.93333333333334" fill="#ffffff"/><path d="M 79.93 159.87 A 39.97 39.97 0 0 1  119.9 119.9 L 79.93 159.87 A 39.97 39.97 0 0 0 119.9 119.9" fill="#98f196"/><path d="M 239.8 159.86 A 79.93 79.93 0 0 1  319.73 79.93 L 239.8 159.86 A 79.93 79.93 0 0 0 319.73 79.93" fill="#3154e4"/><rect x="319.73333333333335" y="79.93333333333334" width="79.93333333333334" height="79.93333333333334" fill="#ffffff"/><path d="M 319.73 119.9 A 39.97 39.97 0 0 1  359.70000000000005 159.87 L 319.73 119.9 A 39.97 39.97 0 0 0 359.70000000000005 159.87" fill="#97a9f2"/><rect x="479.6" y="79.93333333333334" width="79.93333333333334" height="79.93333333333334" fill="#ffffff"/><path d="M 479.6 119.9 A 39.97 39.97 0 0 1  519.57 159.87 L 479.6 119.9 A 39.97 39.97 0 0 0 519.57 159.87" fill="#2f52e4"/><path d="M 519.57 119.9 A 39.97 39.97 0 0 1  559.5400000000001 159.87 L 519.57 119.9 A 39.97 39.97 0 0 0 559.5400000000001 159.87" fill="#d9fad9"/><path d="M 159.87 239.8 A 79.93 79.93 0 0 1  239.8 159.87 L 159.87 239.8 A 79.93 79.93 0 0 0 239.8 159.87" fill="#afbcf5"/><path d="M 319.73 239.8 A 79.93 79.93 0 0 1  399.66 159.87 L 319.73 239.8 A 79.93 79.93 0 0 0 399.66 159.87" fill="#bef6bc"/><rect x="879.2666666666667" y="159.86666666666667" width="79.93333333333334" height="79.93333333333334" fill="#ffffff"/><path d="M 879.27 199.83 A 39.97 39.97 0 0 1  919.24 239.8 L 879.27 199.83 A 39.97 39.97 0 0 0 919.24 239.8" fill="#3a5be5"/><path d="M 399.67 319.73 A 79.93 79.93 0 0 1  479.6 239.8 L 399.67 319.73 A 79.93 79.93 0 0 0 479.6 239.8" fill="#e5eafc"/><rect x="719.4000000000001" y="239.8" width="79.93333333333334" height="79.93333333333334" fill="#ffffff"/><path d="M 759.37 319.74 A 39.97 39.97 0 0 1  799.34 279.77 L 759.37 319.74 A 39.97 39.97 0 0 0 799.34 279.77" fill="#274ce3"/><rect x="639.4666666666667" y="319.73333333333335" width="79.93333333333334" height="79.93333333333334" fill="#ffffff"/><path d="M 639.47 359.70000000000005 A 39.97 39.97 0 0 1  679.44 319.73 L 639.47 359.70000000000005 A 39.97 39.97 0 0 0 679.44 319.73" fill="#5f7aea"/><path d="M 639.47 399.66999999999996 A 39.97 39.97 0 0 1  679.44 359.7 L 639.47 399.66999999999996 A 39.97 39.97 0 0 0 679.44 359.7" fill="#9bf199"/><path d="M 679.43 399.66999999999996 A 39.97 39.97 0 0 1  719.4 359.7 L 679.43 399.66999999999996 A 39.97 39.97 0 0 0 719.4 359.7" fill="#84ee82"/><rect x="719.4000000000001" y="319.73333333333335" width="79.93333333333334" height="79.93333333333334" fill="#ffffff"/><path d="M 719.4 319.73 A 39.97 39.97 0 0 1  759.37 359.70000000000005 L 719.4 319.73 A 39.97 39.97 0 0 0 759.37 359.70000000000005" fill="#53e850"/><path d="M 759.37 319.73 A 39.97 39.97 0 0 1  799.34 359.70000000000005 L 759.37 319.73 A 39.97 39.97 0 0 0 799.34 359.70000000000005" fill="#3557e5"/><path d="M 759.37 359.7 A 39.97 39.97 0 0 1  799.34 399.66999999999996 L 759.37 359.7 A 39.97 39.97 0 0 0 799.34 399.66999999999996" fill="#879bef"/><path d="M 799.33 399.66 A 79.93 79.93 0 0 1  879.26 319.73 L 799.33 399.66 A 79.93 79.93 0 0 0 879.26 319.73" fill="#5774e9"/><rect x="0" y="399.6666666666667" width="79.93333333333334" height="79.93333333333334" fill="#ffffff"/><path d="M 0 399.67 A 39.97 39.97 0 0 1  39.97 439.64 L 0 399.67 A 39.97 39.97 0 0 0 39.97 439.64" fill="#3557e5"/><rect x="79.93333333333334" y="399.6666666666667" width="79.93333333333334" height="79.93333333333334" fill="#ffffff"/><path d="M 79.93 399.67 A 39.97 39.97 0 0 1  119.9 439.64 L 79.93 399.67 A 39.97 39.97 0 0 0 119.9 439.64" fill="#b0f4af"/><path d="M 119.9 439.64 A 39.97 39.97 0 0 1  159.87 399.67 L 119.9 439.64 A 39.97 39.97 0 0 0 159.87 399.67" fill="#889cf0"/><path d="M 119.9 439.63 A 39.97 39.97 0 0 1  159.87 479.6 L 119.9 439.63 A 39.97 39.97 0 0 0 159.87 479.6" fill="#a9b7f4"/><path d="M 159.87 479.6 A 79.93 79.93 0 0 1  239.8 399.67 L 159.87 479.6 A 79.93 79.93 0 0 0 239.8 399.67" fill="#2f52e4"/><path d="M 879.27 399.67 A 79.93 79.93 0 0 1  959.2 479.6 L 879.27 399.67 A 79.93 79.93 0 0 0 959.2 479.6" fill="#c0f7bf"/></g></svg>